<?xml version="1.0" encoding="utf-8"?>
<!-- Generator: Adobe Illustrator 21.1.0, SVG Export Plug-In . SVG Version: 6.00 Build 0)  -->
<svg version="1.1" id="Calque_1" xmlns="http://www.w3.org/2000/svg" xmlns:xlink="http://www.w3.org/1999/xlink" x="0px" y="0px"
	 viewBox="0 0 100 125" style="enable-background:new 0 0 100 125;" xml:space="preserve">
<style type="text/css">
	.st0{fill:#FFBBEF;}
</style>
<circle class="st0" cx="19.8" cy="60.2" r="1.2"/>
<circle class="st0" cx="19.8" cy="82" r="1.2"/>
<circle class="st0" cx="80.4" cy="60.2" r="1.2"/>
<circle class="st0" cx="80.4" cy="82" r="1.2"/>
<path class="st0" d="M83.9,27.1c0.8-0.5,1.6-1,2.1-1.6c0.8-1,1.1-2,0.7-2.9s-1.3-1.4-2.6-1.5c-0.8,0-1.7,0.1-2.5,0.4
	c0.4-1.2,0.6-2.4,0.5-3.4c-0.1-1.4-0.7-2.4-1.7-2.7c-1.7-0.7-3.8,0.9-5.1,3.7c-0.5-0.8-1-1.6-1.6-2.1c-1-0.8-2-1.1-2.9-0.7
	c-1.5,0.6-1.9,2.8-1.1,5.2c-2.9-1-5.4-0.6-6.1,1.1c-0.7,1.7,0.9,3.8,3.7,5c-2.2,1.2-3.4,3-2.7,4.5c0.4,1,1.5,1.5,2.9,1.5
	c0.7,0,1.4-0.1,2.2-0.4c-0.4,1.2-0.6,2.3-0.5,3.4c0.1,1.4,0.7,2.4,1.7,2.7c0.3,0.1,0.5,0.2,0.8,0.2c0.7,0,1.5-0.3,2.3-1
	c0.3-0.3,0.6-0.6,0.8-0.9V44c-2.5-2-6.4-1.3-6.6-1.3c-0.4,0.1-0.8,0.4-0.8,0.8c0,0.2-0.7,4.6,1.7,7c1.5,1.5,3.8,1.8,5.4,1.8
	c0.1,0,0.2,0,0.4,0V55h-24v-2.7c0.2,0,0.5,0,0.7,0c1.6,0,3.8-0.3,5.4-1.8c2.4-2.4,1.7-6.8,1.7-7c-0.1-0.4-0.4-0.8-0.8-0.8
	c-0.2,0-4.5-0.7-7,1.6V37c0.2,0.3,0.5,0.5,0.7,0.7c0.7,0.6,1.4,0.9,2,0.9c0.3,0,0.6-0.1,0.8-0.2c0.9-0.4,1.4-1.3,1.5-2.6
	c0-0.8-0.1-1.7-0.4-2.6c1,0.3,2,0.5,2.9,0.5c0.2,0,0.4,0,0.5,0c1.4-0.1,2.4-0.7,2.7-1.7c0.4-1,0.1-2-0.9-3.1c-0.7-0.8-1.7-1.4-2.8-2
	c2.2-1.2,3.4-3,2.8-4.5c-0.6-1.4-2.7-1.8-5.1-1.1c0.4-1.2,0.6-2.4,0.5-3.4c-0.1-1.4-0.7-2.4-1.7-2.7c-1.7-0.7-3.8,0.9-5.1,3.7
	c-0.5-0.8-1-1.6-1.6-2.1c-1-0.8-2-1.1-2.9-0.7c-1.5,0.6-1.9,2.8-1.1,5.2c-2.9-1-5.4-0.6-6.1,1.1c-0.4,0.9-0.1,2,0.9,3.1
	c0.7,0.7,1.7,1.4,2.8,1.9c-0.8,0.5-1.5,1-2.1,1.6c-0.8,1-1.1,2-0.7,2.9c0.4,0.9,1.3,1.4,2.6,1.5c0.1,0,0.2,0,0.3,0
	c0.7,0,1.5-0.1,2.2-0.4c-0.4,1.2-0.6,2.3-0.5,3.4c0.1,1.4,0.7,2.4,1.7,2.7c0.3,0.1,0.5,0.2,0.8,0.2c0.7,0,1.5-0.3,2.3-1
	c0.3-0.3,0.6-0.6,0.8-0.9V44c-2.5-2.1-6.5-1.5-6.7-1.4c-0.4,0.1-0.8,0.4-0.8,0.8c0,0.2-0.7,4.6,1.7,7c1.5,1.5,3.8,1.8,5.4,1.8
	c0.2,0,0.3,0,0.5,0V55H25.1v-2.7c0.2,0,0.4,0,0.6,0c1.6,0,3.8-0.3,5.4-1.8c2.4-2.4,1.7-6.8,1.7-7c-0.1-0.4-0.4-0.8-0.8-0.8
	c-0.2,0-4.4-0.7-6.8,1.5V37c0.2,0.3,0.5,0.5,0.7,0.7c0.7,0.6,1.4,0.9,2,0.9c0.3,0,0.6-0.1,0.8-0.2c0.9-0.4,1.4-1.3,1.5-2.6
	c0-0.8-0.1-1.7-0.4-2.6c1,0.3,2,0.5,2.9,0.5c0.2,0,0.4,0,0.5,0c1.4-0.1,2.4-0.7,2.7-1.7c0.7-1.7-0.9-3.8-3.7-5
	c2.2-1.2,3.4-3,2.8-4.5c-0.6-1.4-2.7-1.8-5.1-1.1c0.4-1.2,0.6-2.4,0.5-3.4c-0.1-1.4-0.7-2.4-1.7-2.7c-1.7-0.7-3.8,0.9-5.1,3.7
	c-0.5-0.8-1-1.6-1.6-2.1c-1-0.8-2-1.1-2.9-0.7c-1.5,0.6-1.9,2.8-1.1,5.2c-2.9-1-5.4-0.6-6.1,1.1c-0.4,0.9-0.1,2,0.9,3.1
	c0.7,0.8,1.7,1.4,2.8,1.9c-2.2,1.2-3.4,3.1-2.8,4.5c0.4,0.9,1.3,1.4,2.6,1.5c0.1,0,0.2,0,0.3,0c0.7,0,1.5-0.1,2.2-0.4
	c-0.4,1.2-0.6,2.3-0.5,3.4c0.1,1.4,0.7,2.4,1.7,2.7c0.3,0.1,0.5,0.2,0.8,0.2c0.7,0,1.5-0.3,2.3-1c0.3-0.3,0.6-0.6,0.8-0.9v6.7
	c-2.5-2.2-6.7-1.6-6.8-1.5c-0.4,0.1-0.8,0.4-0.8,0.8c0,0.2-0.7,4.6,1.7,7c1.5,1.5,3.8,1.8,5.4,1.8c0.2,0,0.4,0,0.6,0V55h-8.6
	c-0.6,0-1,0.4-1,1v8.5c0,0.6,0.4,1,1,1h2v11.2h-2c-0.6,0-1,0.4-1,1v8.5c0,0.6,0.4,1,1,1h71.6c0.6,0,1-0.4,1-1v-8.5c0-0.6-0.4-1-1-1
	h-1.9V65.5h1.9c0.6,0,1-0.4,1-1V56c0-0.6-0.4-1-1-1h-9.3v-2.7c0.2,0,0.5,0,0.8,0c1.6,0,3.8-0.3,5.4-1.8c2.4-2.4,1.7-6.8,1.7-7
	c-0.1-0.4-0.4-0.8-0.8-0.8c-0.2,0-4.6-0.7-7,1.7c0,0,0,0,0,0.1V37c0.2,0.3,0.5,0.5,0.7,0.7c0.7,0.6,1.4,0.9,2,0.9
	c0.3,0,0.6-0.1,0.8-0.2c0.9-0.4,1.4-1.3,1.5-2.6c0-0.8-0.1-1.7-0.4-2.6c1,0.3,2,0.5,2.9,0.5c0.2,0,0.4,0,0.5,0
	c1.4-0.1,2.4-0.7,2.7-1.7c0.4-1,0.1-2-0.9-3.1C86,28.3,85,27.6,83.9,27.1z M52.2,45.7c1.2-1.2,3.4-1.3,4.5-1.2
	c0.1,1.1,0,3.3-1.2,4.5s-3.4,1.3-4.5,1.2C51,49.1,51,47,52.2,45.7z M26.3,45.7c1.2-1.2,3.4-1.3,4.5-1.2c0.1,1.1,0,3.3-1.2,4.5
	s-3.4,1.3-4.5,1.2C25,49.1,25.1,47,26.3,45.7z M23,50.3c-1.1,0.1-3.3,0-4.5-1.2s-1.3-3.4-1.2-4.5c1.1-0.1,3.3,0,4.5,1.2
	S23.1,49.1,23,50.3z M78.2,45.7c1.2-1.2,3.4-1.3,4.5-1.2c0.1,1.1,0,3.3-1.2,4.5s-3.4,1.3-4.5,1.2C76.9,49.1,77,47,78.2,45.7z
	 M81.4,23.7c0.9-0.4,1.8-0.6,2.5-0.5c0.6,0,0.8,0.2,0.8,0.2s0,0.3-0.4,0.8c-0.5,0.5-1.2,1.1-2.1,1.5c-1.2,0.5-2.2,0.6-2.8,0.5
	c-0.1-0.3-0.2-0.5-0.3-0.7C79.5,24.8,80.3,24.2,81.4,23.7z M77,20.2c0.8-2.1,2.1-3,2.5-3h0.1c0.2,0.1,0.4,0.4,0.4,1
	c0.1,0.8-0.1,1.9-0.5,2.9c-0.5,1.3-1.3,2.2-1.9,2.7c-0.2-0.1-0.4-0.2-0.6-0.3c-0.2-0.1-0.4-0.1-0.6-0.2C76.4,22.7,76.5,21.5,77,20.2
	z M71.6,18.1L71.6,18.1c0.2,0,0.4,0.1,0.8,0.4c0.6,0.5,1.1,1.2,1.5,2.1c0.5,1.2,0.6,2.3,0.5,2.9c-0.1,0-0.2,0.1-0.4,0.1
	c-0.1,0.1-0.2,0.1-0.4,0.2c-0.5-0.3-1.2-1.1-1.8-2.3C71,19.5,71.3,18.2,71.6,18.1z M65.5,23.3c0.1-0.2,0.6-0.4,1.4-0.4
	c0.7,0,1.5,0.1,2.6,0.5c1.3,0.5,2.2,1.3,2.7,1.8c-0.1,0.2-0.2,0.3-0.3,0.5c-0.1,0.2-0.1,0.4-0.2,0.5c-0.7,0.1-1.9,0-3.2-0.5
	C66.2,25,65.3,23.7,65.5,23.3z M69.7,31c-1.9,0.8-3.3,0.5-3.4,0.3c-0.1-0.3,0.6-1.4,2.5-2.3c0.9-0.4,1.7-0.5,2.3-0.5
	c0.2,0,0.4,0,0.5,0c0,0.2,0.1,0.3,0.1,0.5c0,0.1,0.1,0.2,0.2,0.3C71.7,29.8,70.9,30.5,69.7,31z M74.2,34.5c-0.4,1-1,1.9-1.6,2.5
	c-0.5,0.4-0.9,0.5-1,0.5c-0.2-0.1-0.4-0.4-0.4-1c-0.1-0.8,0.1-1.9,0.5-2.9c0.5-1.3,1.2-2.2,1.8-2.6c0.2,0.1,0.4,0.2,0.6,0.3
	c0.2,0.1,0.4,0.1,0.5,0.2C74.8,32,74.7,33.2,74.2,34.5z M70.4,49.1c-1.2-1.2-1.3-3.4-1.2-4.5c1.1-0.1,3.3,0,4.5,1.2
	c0.5,0.5,0.8,1.2,1,1.9v2.7C73.5,50.3,71.5,50.2,70.4,49.1z M53.7,36.6c-0.1,0-0.4,0-0.8-0.4c-0.6-0.5-1.1-1.2-1.5-2.1
	c-0.5-1.2-0.6-2.3-0.5-2.9c0.3-0.1,0.5-0.2,0.7-0.3c0.5,0.3,1.2,1.1,1.8,2.3c0.4,0.9,0.6,1.8,0.5,2.5C53.9,36.3,53.8,36.6,53.7,36.6
	z M59.4,30.4c0.4,0.5,0.5,0.9,0.5,1c-0.1,0.2-0.4,0.4-1,0.4c-0.8,0.1-1.9-0.1-2.9-0.5c-1.3-0.5-2.2-1.2-2.6-1.8
	c0.1-0.2,0.2-0.4,0.3-0.6s0.1-0.4,0.2-0.6c0.7-0.1,1.9,0,3.2,0.5C57.9,29.2,58.8,29.7,59.4,30.4z M55.6,23.7
	c1.9-0.8,3.2-0.5,3.4-0.3c0.1,0.2-0.6,1.4-2.5,2.2c-1.2,0.5-2.2,0.6-2.8,0.5c0-0.1-0.1-0.3-0.1-0.4c-0.1-0.1-0.1-0.2-0.2-0.4
	C53.7,24.8,54.5,24.2,55.6,23.7z M51.2,20.2c0.8-2.1,2.1-3,2.5-3h0.1c0.2,0.1,0.4,0.4,0.4,1c0.1,0.8-0.1,1.9-0.5,2.9
	c-0.5,1.3-1.3,2.2-1.9,2.7c-0.2-0.1-0.4-0.2-0.6-0.3c-0.2-0.1-0.4-0.1-0.6-0.2C50.6,22.7,50.7,21.5,51.2,20.2z M45.8,18.1L45.8,18.1
	c0.2,0,0.4,0.1,0.8,0.4c0.6,0.5,1.1,1.2,1.5,2.1c0.5,1.2,0.6,2.3,0.5,2.9c-0.1,0-0.2,0.1-0.4,0.1c-0.1,0.1-0.2,0.1-0.4,0.2
	c-0.5-0.3-1.2-1.1-1.8-2.3C45.2,19.5,45.5,18.2,45.8,18.1z M40.1,24.3c-0.5-0.5-0.5-0.9-0.5-1c0.1-0.2,0.6-0.4,1.4-0.4
	c0.7,0,1.5,0.1,2.6,0.5c1.3,0.5,2.2,1.3,2.7,1.8c-0.1,0.2-0.2,0.3-0.3,0.5s-0.1,0.4-0.2,0.5c-0.7,0.1-1.9,0-3.2-0.5
	C41.6,25.5,40.7,24.9,40.1,24.3z M43.9,31c-0.9,0.4-1.8,0.6-2.5,0.5c-0.6,0-0.8-0.2-0.9-0.3c0-0.1,0-0.4,0.4-0.8
	c0.5-0.6,1.2-1.1,2.1-1.5c0.9-0.4,1.7-0.5,2.3-0.5c0.2,0,0.4,0,0.5,0c0.1,0.3,0.2,0.5,0.3,0.8C45.9,29.8,45.1,30.5,43.9,31z
	 M48.3,34.5c-0.4,1-1,1.9-1.6,2.5c-0.5,0.4-0.9,0.5-1,0.5c-0.2-0.1-0.4-0.4-0.4-1c-0.1-0.8,0.1-1.9,0.5-2.9c0.5-1.3,1.2-2.2,1.8-2.6
	c0.2,0.1,0.4,0.2,0.6,0.3c0.2,0.1,0.4,0.1,0.5,0.2C48.9,32,48.8,33.2,48.3,34.5z M48,26.7c0.2-0.5,0.5-0.8,1-1
	c0.2-0.1,0.5-0.2,0.7-0.2s0.5,0,0.7,0.1l0,0c0.5,0.2,0.8,0.5,1,1s0.2,1,0,1.4c-0.4,1-1.5,1.4-2.4,1.1C48.1,28.7,47.6,27.6,48,26.7z
	 M44.4,49.1c-1.2-1.2-1.3-3.4-1.2-4.5c1.1-0.1,3.3,0,4.5,1.2c0.6,0.6,1,1.6,1.1,2.4v2.1C47.7,50.3,45.6,50.2,44.4,49.1z M27.9,36.6
	c-0.1,0-0.4,0-0.8-0.4c-0.6-0.5-1.1-1.2-1.5-2.1c-0.5-1.2-0.6-2.3-0.5-2.9c0.3-0.1,0.5-0.2,0.7-0.3c0.5,0.3,1.2,1.1,1.8,2.3
	c0.4,0.9,0.6,1.8,0.5,2.5C28.1,36.3,27.9,36.6,27.9,36.6z M34,31.4c-0.1,0.2-0.4,0.4-1,0.4c-0.8,0.1-1.9-0.1-2.9-0.5
	c-1.3-0.5-2.2-1.2-2.6-1.8c0.1-0.2,0.2-0.4,0.3-0.6c0.1-0.2,0.1-0.4,0.2-0.6c0.7-0.1,1.9,0,3.2,0.5C33.3,29.6,34.2,31,34,31.4z
	 M29.8,23.7c1.9-0.8,3.2-0.5,3.4-0.3c0.1,0.2-0.6,1.4-2.5,2.2c-1.2,0.5-2.2,0.6-2.8,0.5c-0.1-0.3-0.2-0.5-0.3-0.7
	C27.8,24.8,28.6,24.2,29.8,23.7z M25.4,20.2c0.8-2.1,2.1-3,2.5-3H28c0.2,0.1,0.4,0.4,0.4,1c0.1,0.8-0.1,1.9-0.5,2.9
	c-0.5,1.3-1.3,2.2-1.9,2.7c-0.2-0.1-0.4-0.2-0.6-0.3c-0.2-0.1-0.4-0.1-0.6-0.2C24.7,22.7,24.8,21.5,25.4,20.2z M19.9,18.1
	C19.9,18.1,20,18.1,19.9,18.1c0.2,0,0.4,0.1,0.8,0.4c0.6,0.5,1.1,1.2,1.5,2.1c0.5,1.2,0.6,2.3,0.5,2.9c-0.1,0-0.2,0.1-0.4,0.1
	c-0.1,0.1-0.2,0.1-0.4,0.2c-0.5-0.3-1.2-1.1-1.8-2.3C19.4,19.5,19.7,18.2,19.9,18.1z M14.3,24.3c-0.5-0.5-0.5-0.9-0.5-1
	c0.1-0.2,0.6-0.4,1.4-0.4c0.7,0,1.5,0.1,2.6,0.5c1.3,0.5,2.2,1.3,2.7,1.8c-0.1,0.2-0.2,0.3-0.3,0.5C20.1,26,20,26.2,20,26.4
	c-0.7,0.1-1.9,0-3.2-0.5C15.8,25.5,14.9,24.9,14.3,24.3z M18.1,31c-0.9,0.4-1.8,0.6-2.5,0.5c-0.6,0-0.8-0.2-0.9-0.3
	c-0.1-0.3,0.6-1.4,2.5-2.3c0.9-0.4,1.7-0.5,2.3-0.5c0.2,0,0.4,0,0.5,0c0.1,0.3,0.2,0.5,0.3,0.8C20,29.8,19.2,30.5,18.1,31z
	 M22.5,34.5c-0.4,1-1,1.9-1.6,2.5c-0.5,0.4-0.9,0.5-1,0.5c-0.2-0.1-0.4-0.4-0.4-1c-0.1-0.8,0.1-1.9,0.5-2.9c0.5-1.3,1.2-2.2,1.8-2.6
	c0.2,0.1,0.4,0.2,0.6,0.3c0.2,0.1,0.4,0.1,0.5,0.2C23.1,32,23,33.2,22.5,34.5z M22.2,26.7c0.2-0.5,0.5-0.8,1-1
	c0.2-0.1,0.5-0.2,0.7-0.2s0.5,0,0.7,0.1l0,0c1,0.4,1.4,1.5,1.1,2.4c-0.4,1-1.5,1.4-2.4,1.1C22.3,28.7,21.8,27.6,22.2,26.7z
	 M85.1,78.7v6.5H15.4v-6.5H85.1z M18.4,76.7V65.5h63.8v11.2H18.4z M85.1,57v6.5H15.4V57H85.1z M74.9,29.1c-0.5-0.2-0.8-0.5-1-1
	s-0.2-1,0-1.4c0.2-0.5,0.5-0.8,1-1c0.2-0.1,0.5-0.2,0.7-0.2s0.5,0,0.7,0.1l0,0c0.5,0.2,0.8,0.5,1,1s0.2,1,0,1.4
	C77,29,75.9,29.5,74.9,29.1z M79.5,36.6c-0.1,0-0.4,0-0.8-0.4c-0.6-0.5-1.1-1.2-1.5-2.1c-0.5-1.2-0.6-2.3-0.5-2.9
	c0.3-0.1,0.5-0.2,0.7-0.3c0.5,0.3,1.2,1.1,1.8,2.3c0.4,0.9,0.6,1.8,0.5,2.5C79.8,36.3,79.6,36.6,79.5,36.6z M85.7,31.4
	c-0.1,0.2-0.4,0.4-1,0.4c-0.8,0.1-1.9-0.1-2.9-0.5c-1.3-0.5-2.2-1.2-2.6-1.8c0.1-0.2,0.2-0.4,0.3-0.6c0.1-0.2,0.1-0.4,0.2-0.6
	c0.7-0.1,1.9,0,3.2,0.5c1,0.4,1.9,1,2.5,1.6C85.6,30.8,85.7,31.2,85.7,31.4z"/>
</svg>
