<?xml version="1.0" encoding="utf-8"?>
<!-- Generator: Adobe Illustrator 21.1.0, SVG Export Plug-In . SVG Version: 6.00 Build 0)  -->
<svg version="1.1" id="Calque_1" xmlns="http://www.w3.org/2000/svg" xmlns:xlink="http://www.w3.org/1999/xlink" x="0px" y="0px"
	 viewBox="0 0 100 125" style="enable-background:new 0 0 100 125;" xml:space="preserve">
<style type="text/css">
	.st0{fill:#FFBBEF;}
</style>
<path class="st0" d="M85.5,48.5h-1.2V36.2c0-4.3-3.5-7.8-7.8-7.8c-0.4,0-0.7,0-1.1,0.1v-4.3c0-4.3-3.5-7.8-7.8-7.8
	c-2.9,0-5.4,1.6-6.8,4c-1.3-2.4-3.9-4-6.8-4c-4.3,0-7.8,3.5-7.8,7.8v4.3c-0.4-0.1-0.7-0.1-1.1-0.1c-2.3,0-4.4,1-5.8,2.6v-6.8
	c0-4.3-3.5-7.8-7.8-7.8s-7.8,3.5-7.8,7.8v4.3c-0.4-0.1-0.7-0.1-1.1-0.1c-4.3,0-7.8,3.5-7.8,7.8v12.3h-1.2c-0.6,0-1,0.4-1,1V58
	c0,0.6,0.4,1,1,1h2v3.9h-2c-0.6,0-1,0.4-1,1v8.5c0,0.6,0.4,1,1,1h2v3.9h-2c-0.6,0-1,0.4-1,1v8.5c0,0.6,0.4,1,1,1h71.6
	c0.6,0,1-0.4,1-1v-8.5c0-0.6-0.4-1-1-1h-1.9v-3.9h1.9c0.6,0,1-0.4,1-1v-8.5c0-0.6-0.4-1-1-1h-1.9V59h1.9c0.6,0,1-0.4,1-1v-8.5
	C86.5,48.9,86,48.5,85.5,48.5z M76.5,30.4c3.2,0,5.8,2.6,5.8,5.8v12.3H70.7V36.2C70.7,33,73.3,30.4,76.5,30.4z M61.9,24.2
	c0-3.2,2.6-5.8,5.8-5.8s5.8,2.6,5.8,5.8V29c-2.8,1.2-4.7,3.9-4.7,7.1v12.3h-6.9C61.9,48.4,61.9,24.2,61.9,24.2z M48.3,24.2
	c0-3.2,2.6-5.8,5.8-5.8s5.8,2.6,5.8,5.8v24.2H53V36.2c0-3.2-1.9-5.9-4.7-7.1V24.2z M39.5,36.2c0-3.2,2.6-5.8,5.8-5.8S51,33,51,36.2
	v12.3H39.5V36.2z M25.9,24.2c0-3.2,2.6-5.8,5.8-5.8s5.8,2.6,5.8,5.8v11.9v12.3h-6.9V36.2c0-3.2-1.9-5.9-4.7-7.1
	C25.9,29.1,25.9,24.2,25.9,24.2z M17.1,36.2c0-3.2,2.6-5.8,5.8-5.8s5.8,2.6,5.8,5.8v12.3H17.1V36.2z M84.5,79.3v6.5H14.8v-6.5H84.5z
	 M17.8,77.3v-3.9h63.8v3.9H17.8z M84.5,64.9v6.5H14.8v-6.5H84.5z M17.8,62.9V59h63.8v3.9H17.8z M84.5,57H14.8v-6.5h69.6L84.5,57
	L84.5,57z"/>
<circle class="st0" cx="19.2" cy="53.7" r="1.2"/>
<circle class="st0" cx="19.2" cy="68.1" r="1.2"/>
<circle class="st0" cx="19.2" cy="82.5" r="1.2"/>
<circle class="st0" cx="79.8" cy="53.7" r="1.2"/>
<circle class="st0" cx="79.8" cy="68.1" r="1.2"/>
<circle class="st0" cx="79.8" cy="82.5" r="1.2"/>
<circle class="st0" cx="33" cy="25.1" r="1.1"/>
<circle class="st0" cx="35.4" cy="46.5" r="1.1"/>
<circle class="st0" cx="25.9" cy="36" r="0.8"/>
<circle class="st0" cx="33.9" cy="21.1" r="0.8"/>
<circle class="st0" cx="29.6" cy="22.5" r="0.8"/>
<circle class="st0" cx="32.1" cy="35.2" r="0.8"/>
<circle class="st0" cx="35.6" cy="37.6" r="0.8"/>
<circle class="st0" cx="32.6" cy="44.4" r="0.8"/>
<circle class="st0" cx="28.1" cy="27" r="0.8"/>
<circle class="st0" cx="36" cy="42.2" r="0.8"/>
<circle class="st0" cx="35.4" cy="28.6" r="0.8"/>
<circle class="st0" cx="23.2" cy="32.7" r="0.8"/>
<circle class="st0" cx="27.3" cy="44.6" r="0.8"/>
<circle class="st0" cx="19.6" cy="44.4" r="0.8"/>
<circle class="st0" cx="20.2" cy="34.9" r="1.1"/>
<circle class="st0" cx="32.6" cy="40" r="1.1"/>
<circle class="st0" cx="35.4" cy="32.7" r="1.1"/>
<circle class="st0" cx="31.1" cy="29.4" r="1.1"/>
<circle class="st0" cx="20.7" cy="39.7" r="1.1"/>
<circle class="st0" cx="25.9" cy="40.8" r="1.1"/>
<circle class="st0" cx="23.7" cy="46.5" r="1.1"/>
<circle class="st0" cx="55.4" cy="25.1" r="1.1"/>
<circle class="st0" cx="57.8" cy="46.5" r="1.1"/>
<circle class="st0" cx="48.3" cy="36" r="0.8"/>
<circle class="st0" cx="56.3" cy="21.1" r="0.8"/>
<circle class="st0" cx="52" cy="22.5" r="0.8"/>
<circle class="st0" cx="54.5" cy="35.2" r="0.8"/>
<circle class="st0" cx="58" cy="37.6" r="0.8"/>
<circle class="st0" cx="55" cy="44.4" r="0.8"/>
<circle class="st0" cx="50.5" cy="27" r="0.8"/>
<circle class="st0" cx="58.5" cy="42.2" r="0.8"/>
<circle class="st0" cx="57.8" cy="28.6" r="0.8"/>
<circle class="st0" cx="45.6" cy="32.7" r="0.8"/>
<circle class="st0" cx="49.7" cy="44.6" r="0.8"/>
<circle class="st0" cx="42" cy="44.4" r="0.8"/>
<circle class="st0" cx="42.7" cy="34.9" r="1.1"/>
<circle class="st0" cx="55" cy="40" r="1.1"/>
<circle class="st0" cx="57.8" cy="32.7" r="1.1"/>
<circle class="st0" cx="53.6" cy="29.4" r="1.1"/>
<circle class="st0" cx="43.1" cy="39.7" r="1.1"/>
<circle class="st0" cx="48.3" cy="40.8" r="1.1"/>
<circle class="st0" cx="46.2" cy="46.5" r="1.1"/>
<circle class="st0" cx="66.3" cy="25.1" r="1.1"/>
<circle class="st0" cx="63.9" cy="46.5" r="1.1"/>
<circle class="st0" cx="73.5" cy="36" r="0.8"/>
<circle class="st0" cx="65.5" cy="21.1" r="0.8"/>
<circle class="st0" cx="69.7" cy="22.5" r="0.8"/>
<circle class="st0" cx="67.3" cy="35.2" r="0.8"/>
<circle class="st0" cx="63.8" cy="37.6" r="0.8"/>
<circle class="st0" cx="66.7" cy="44.4" r="0.8"/>
<circle class="st0" cx="71.3" cy="27" r="0.8"/>
<circle class="st0" cx="63.3" cy="42.2" r="0.8"/>
<circle class="st0" cx="63.9" cy="28.6" r="0.8"/>
<circle class="st0" cx="76.2" cy="32.7" r="0.8"/>
<circle class="st0" cx="72.1" cy="44.6" r="0.8"/>
<circle class="st0" cx="79.7" cy="44.4" r="0.8"/>
<circle class="st0" cx="79.1" cy="34.9" r="1.1"/>
<circle class="st0" cx="66.7" cy="40" r="1.1"/>
<circle class="st0" cx="63.9" cy="32.7" r="1.1"/>
<circle class="st0" cx="68.2" cy="29.4" r="1.1"/>
<circle class="st0" cx="78.7" cy="39.7" r="1.1"/>
<circle class="st0" cx="73.5" cy="40.8" r="1.1"/>
<circle class="st0" cx="75.6" cy="46.5" r="1.1"/>
</svg>
