<?xml version="1.0" encoding="utf-8"?>
<!-- Generator: Adobe Illustrator 21.1.0, SVG Export Plug-In . SVG Version: 6.00 Build 0)  -->
<svg version="1.1" id="Calque_1" xmlns="http://www.w3.org/2000/svg" xmlns:xlink="http://www.w3.org/1999/xlink" x="0px" y="0px"
	 viewBox="0 0 100 125" style="enable-background:new 0 0 100 125;" xml:space="preserve">
<style type="text/css">
	.st0{fill:#FFBBEF;}
</style>
<path class="st0" d="M67.4,38.6c1.1-0.5,1.8-1.2,1.9-2.1c0.1-0.9-0.5-1.8-1.5-2.4c-0.7-0.4-1.6-0.7-2.5-0.9c0.5-0.5,0.9-1.1,1.1-1.6
	c0.6-1.4,0.2-2.3-0.2-2.6c-0.9-1-2.6-0.9-4.3,0.2c0-1-0.1-1.9-0.4-2.6c-0.5-1.1-1.2-1.8-2.1-1.9c-1.5-0.1-2.9,1.6-3.3,4
	c-0.3-0.3-0.7-0.6-1-0.8c0.2-0.5,0.3-1.1,0.1-1.8c-0.1-0.5-0.4-1.1-0.7-1.7c2.4,0,4.2-1,4.3-2.5s-1.5-2.8-3.8-3.2
	c0.4-0.5,0.8-1,1-1.5c0.4-1,0.4-1.9-0.2-2.6c-0.5-0.6-1.5-0.8-2.5-0.6c-0.5,0.1-1.1,0.4-1.6,0.7c0-0.9-0.1-1.7-0.4-2.4
	c-0.4-1.1-1.2-1.8-2.1-1.8c-1.5-0.1-2.8,1.5-3.2,3.8c-1.5-1.3-3.1-1.7-4.1-0.8S41,16,42,17.7c-2.4,0-4.1,1-4.2,2.5
	c0,0.5,0.1,1.5,1.5,2.3c0.6,0.4,1.4,0.6,2.3,0.8c-0.9,1.1-1.4,2.2-1.2,3.1h-0.1c-1.5-0.1-2.7,1.4-3.1,3.6c-1.4-1.2-3-1.6-3.9-0.8
	c-1,0.8-0.9,2.4,0.1,4c-0.8,0-1.6,0.1-2.2,0.4c-1.5,0.6-1.8,1.5-1.8,2s0.1,1.5,1.4,2.3c0.6,0.4,1.3,0.6,2.1,0.8
	c-1.2,1.4-1.5,3-0.7,3.9c0.4,0.5,1,0.7,1.6,0.7c0.7,0,1.5-0.3,2.3-0.7c0,2.3,1,3.9,2.4,4c0,0,0.1,0,0.2,0c0.5,0,1.3-0.2,2.1-1.3
	c0.5,1.7,1.2,4.1,1.9,7.1h-3.1c-0.6,0-1,0.4-1,1v35c0,0.6,0.4,1,1,1h20.8c0.6,0,1-0.4,1-1v-35c0-0.6-0.4-1-1-1h-4.9
	c0.3-2.5,0.6-4.7,0.8-6.4c0.4,0.3,0.8,0.5,1.3,0.6c0.1,0,0.1,0,0.2,0c1.5,0,2.7-1.6,3.1-3.9c1,0.9,2,1.4,3,1.4c0.5,0,1-0.2,1.4-0.5
	c1.1-0.9,0.9-2.7-0.2-4.4c0,0,0,0,0.1,0C65.7,39,66.6,38.9,67.4,38.6z M31.1,35.8c0.1-0.2,0.9-0.6,2.2-0.6c0.2,0,0.3,0,0.5,0
	c0.9,0.1,1.7,0.3,2.1,0.6c0,0.1-0.1,0.2-0.1,0.3s0,0.2,0,0.3c-0.5,0.2-1.3,0.3-2.2,0.3C32,36.6,31.2,36,31.1,35.8z M35.6,40.3
	c-0.9,0.8-1.8,1-2.1,1c0-0.3,0.3-1.1,1.3-1.9c0.7-0.6,1.3-0.8,1.7-0.9c0.1,0.1,0.2,0.2,0.3,0.3C36.6,39.1,36.2,39.7,35.6,40.3z
	 M36.9,34c-0.4-0.1-1-0.5-1.6-1.2c-0.8-0.9-1-1.8-1-2.1c0.3,0,1.1,0.3,1.9,1.3c0.6,0.7,0.8,1.3,0.9,1.7C37.1,33.8,37,33.9,36.9,34z
	 M39.5,42c-0.1,1.6-0.8,2.5-1,2.6c-0.2-0.1-0.7-1.1-0.6-2.7c0.1-0.9,0.3-1.6,0.6-2.1c0.1,0,0.3,0.1,0.4,0.1c0.1,0,0.2,0,0.3,0l0,0
	C39.5,40.3,39.6,41.1,39.5,42z M39.1,37.6c-0.6,0-1.1-0.6-1.1-1.3c0.1-0.6,0.6-1.1,1.2-1.1h0.1c0.3,0,0.6,0.2,0.8,0.4
	s0.3,0.6,0.3,0.9C40.4,37.2,39.8,37.7,39.1,37.6z M40.5,31c-0.1,0.9-0.3,1.7-0.6,2.1c-0.1,0-0.2-0.1-0.4-0.1c-0.1,0-0.2,0-0.3,0
	c-0.2-0.5-0.3-1.3-0.3-2.2c0.1-1.6,0.8-2.5,1-2.6C40.1,28.4,40.6,29.4,40.5,31z M62.3,31.3c1.2-1,2.2-1.2,2.4-1.1
	c0.1,0.2-0.2,1.2-1.4,2.2c-0.7,0.6-1.4,0.9-2,1c-0.1-0.1-0.2-0.3-0.3-0.4C61.1,32.5,61.5,31.9,62.3,31.3z M56.6,21.7
	c-0.1,0.2-1.1,0.8-2.8,0.7c-1-0.1-1.8-0.4-2.2-0.7c0-0.1,0.1-0.3,0.1-0.4s0-0.3,0-0.4c0.5-0.2,1.4-0.4,2.3-0.3
	C55.7,20.7,56.6,21.5,56.6,21.7z M51.9,16.9c1-0.9,1.9-1.1,2.2-1c0,0.3-0.4,1.2-1.4,2c-0.7,0.6-1.4,0.9-1.8,1
	c-0.1-0.1-0.2-0.2-0.3-0.3C50.8,18.1,51.2,17.5,51.9,16.9z M50.5,23.5c0.4,0.2,1,0.5,1.7,1.3c0.9,1.1,1.1,2.1,1.1,2.2
	c-0.2,0.1-1.1-0.2-2.1-1.3c-0.6-0.7-0.9-1.4-1-1.9C50.3,23.7,50.4,23.6,50.5,23.5z M54.8,35.6c-0.5,0.2-1.4,0.4-2.5,0.3
	c-1.9-0.2-2.8-1-2.9-1.2c0.1-0.2,0.9-0.7,2.4-0.7c0.2,0,0.4,0,0.6,0c1.1,0.1,1.9,0.4,2.4,0.7c0,0.1-0.1,0.3-0.1,0.4
	C54.7,35.4,54.8,35.5,54.8,35.6z M50.3,39.6l-0.1-2.1c0.4,0.1,0.8,0.2,1.2,0.3C50.9,38.4,50.5,39,50.3,39.6z M52.2,42.9
	c0.8,0,1.6-0.3,2.5-0.8c-0.3,1.6-0.9,5.4-1.4,10.3h-2.7L50.3,42c0.1,0.1,0.1,0.2,0.2,0.3C50.9,42.6,51.5,42.9,52.2,42.9z M49.6,29.8
	c0.3-0.6,0.6-1.3,0.7-2.1c0.3,0.2,0.5,0.5,0.8,0.6c-0.3,0.5-0.3,1.2-0.1,1.9c0.1,0.6,0.4,1.2,0.8,1.8c-0.8,0-1.6,0.1-2.3,0.3
	L49.6,29.8L49.6,29.8z M47.7,15.1c0.1-1.8,0.9-2.7,1.1-2.7c0.2,0.1,0.8,1.1,0.7,2.8c-0.1,1-0.4,1.8-0.7,2.3c-0.1,0-0.3-0.1-0.4-0.1
	l0,0c-0.1,0-0.3,0-0.4,0C47.8,17,47.7,16.2,47.7,15.1z M48.1,19.7L48.1,19.7c0.8,0.1,1.3,0.7,1.3,1.4c-0.1,0.7-0.7,1.2-1.4,1.2
	c-0.7-0.1-1.2-0.7-1.2-1.4C46.9,20.2,47.5,19.7,48.1,19.7z M46.7,26.6c0.1-1,0.4-1.8,0.7-2.2c0.1,0,0.3,0.1,0.5,0.1
	c0.1,0,0.2,0,0.3,0c0,0,0,0,0.1,0c0.2,0.5,0.4,1.3,0.3,2.3c-0.1,1.8-0.9,2.7-1.1,2.7C47.2,29.4,46.6,28.4,46.7,26.6z M46.9,31.4
	c0.1,0,0.2,0.1,0.3,0.1s0.1,0,0.2,0c0.1,0,0.2,0,0.2,0v2.2c0,0.1,0,0.1,0,0.2c-0.2,0.3-0.2,0.6-0.3,0.8v0.1
	c-0.5-0.2-1.1-0.4-1.7-0.5c0.4-0.5,0.7-0.9,0.9-1.4C46.8,32.3,46.9,31.8,46.9,31.4z M42.3,28c0.7,0,1.6-0.3,2.5-0.8
	c0,0.9,0.1,1.7,0.4,2.4c0,0,0,0,0,0.1c-0.4,0-0.7,0-1.2,0.1s-1,0.4-1.5,0.7c0-0.9-0.2-1.7-0.5-2.4C42.1,28,42.2,28,42.3,28z
	 M43.5,24c0.7-0.6,1.4-0.9,1.8-1c0.1,0.1,0.2,0.3,0.3,0.4c-0.2,0.4-0.5,1-1.3,1.6c-1.1,0.9-2.1,1.1-2.2,1.1
	C42.1,25.8,42.4,24.9,43.5,24z M42.8,32.6c0.9-0.8,1.8-1,2-1c0,0.3-0.4,1.1-1.3,1.9c-0.7,0.6-1.3,0.8-1.7,0.9c0-0.1-0.1-0.1-0.1-0.2
	c0-0.1-0.1-0.1-0.1-0.1C41.8,33.7,42.2,33.2,42.8,32.6z M42.6,36.4c0.5-0.2,1.3-0.3,2.2-0.3c1.6,0.1,2.5,0.8,2.6,1
	c-0.1,0.2-1.1,0.7-2.7,0.6c-0.9-0.1-1.6-0.3-2.1-0.6c0-0.1,0.1-0.3,0.1-0.4C42.6,36.6,42.6,36.5,42.6,36.4z M43,15L43,15
	c0.4,0,1.2,0.3,2.1,1.3c0.6,0.7,0.9,1.4,1,1.9c-0.1,0.1-0.2,0.2-0.3,0.3c-0.4-0.1-1.1-0.5-1.7-1.3C43.1,16.1,42.9,15.1,43,15z
	 M39.6,20.3c0.1-0.2,0.9-0.7,2.3-0.7c0.2,0,0.4,0,0.6,0c1,0.1,1.8,0.4,2.3,0.7c0,0.1-0.1,0.3-0.1,0.4s0,0.2,0,0.4
	c-0.5,0.2-1.4,0.4-2.3,0.3C40.6,21.2,39.7,20.5,39.6,20.3z M41.5,38.9c0.4,0.2,1,0.5,1.5,1.2c0.8,0.9,1,1.8,1,2.1
	c-0.3,0-1.1-0.3-1.9-1.3c-0.6-0.7-0.9-1.3-0.9-1.7C41.3,39.1,41.4,39,41.5,38.9z M42.1,43.5c0.2,0.2,0.5,0.3,0.7,0.4
	c0.4,0.2,0.8,0.3,1.2,0.3c0.5,0,0.9-0.1,1.3-0.4c0.6-0.5,0.8-1.4,0.6-2.5c-0.1-0.5-0.4-1-0.7-1.6c1.2,0,2.3-0.3,3-0.8l0.4,13.4h-4.1
	C43.6,48.3,42.7,45.3,42.1,43.5z M59.1,54.3v33H40.3v-33h2.6c1.4,6.6,2.7,15.6,2.8,26.5c0,0.5,0.5,1,1,1l0,0c0.6,0,1-0.5,1-1
	C47.6,70,46.3,61,45,54.3h3.7l0.7,26.5c0,0.5,0.5,1,1,1l0,0c0.6,0,1-0.5,1-1l-0.7-26.5h2.4c-0.8,7.8-1.3,17.9-0.1,26.6
	c0.1,0.5,0.5,0.9,1,0.9h0.1c0.5-0.1,0.9-0.6,0.9-1.1C53.8,72,54.3,62,55.1,54.3H59.1z M54.4,39.8c-1.2,1-2.2,1.2-2.4,1.1
	c-0.1-0.2,0.2-1.2,1.4-2.2c0.7-0.6,1.5-0.9,2-1c0.1,0.1,0.1,0.2,0.2,0.3c0.1,0.1,0.1,0.1,0.2,0.2C55.6,38.5,55.1,39.2,54.4,39.8z
	 M55.8,33c-0.5-0.2-1.2-0.6-1.8-1.4c-1-1.2-1.2-2.2-1.1-2.4c0,0,0,0,0.1,0c0.3,0,1.2,0.4,2.2,1.4c0.6,0.7,1,1.5,1,2
	C56.1,32.8,56,32.9,55.8,33z M58.8,41.6c-0.2,2-1,2.9-1.2,2.9l0,0c0,0-0.2-0.1-0.4-0.6c-0.2-0.6-0.4-1.5-0.3-2.4
	c0.1-1.1,0.4-1.9,0.7-2.4c0.2,0,0.3,0.1,0.5,0.1c0.1,0,0.2,0,0.3,0h0.1C58.7,39.7,58.9,40.5,58.8,41.6z M59.3,36.6
	c-0.3,0.2-0.6,0.4-1,0.3c-0.4,0-0.7-0.2-1-0.5s-0.4-0.6-0.3-1c0.1-0.7,0.7-1.3,1.4-1.3h0.1c0.8,0.1,1.3,0.7,1.3,1.5
	C59.7,36,59.5,36.4,59.3,36.6z M59.8,29.6c-0.1,1.1-0.4,1.9-0.7,2.4c-0.1,0-0.3-0.1-0.4-0.1l0,0c-0.1,0-0.3,0-0.4,0
	c-0.2-0.5-0.4-1.4-0.3-2.5c0.2-2,1-2.9,1.2-2.9l0,0c0,0,0.2,0.1,0.4,0.6C59.8,27.9,59.9,28.7,59.8,29.6z M63.7,41.9
	c-0.2,0.1-1.2-0.2-2.2-1.4c-0.6-0.7-1-1.5-1-2c0.1-0.1,0.2-0.1,0.3-0.2l0.1-0.1c0.5,0.2,1.2,0.6,1.8,1.3
	C63.6,40.7,63.8,41.7,63.7,41.9z M64.2,37c-1.1-0.1-1.9-0.4-2.4-0.7c0-0.2,0.1-0.3,0.1-0.5c0-0.1,0-0.3,0-0.4
	c0.5-0.2,1.4-0.4,2.5-0.3c0.9,0.1,1.7,0.3,2.3,0.7c0.5,0.3,0.6,0.5,0.6,0.5s-0.2,0.3-0.6,0.4C66,37,65.1,37.1,64.2,37z"/>
</svg>
