<?xml version="1.0" encoding="utf-8"?>
<!-- Generator: Adobe Illustrator 21.1.0, SVG Export Plug-In . SVG Version: 6.00 Build 0)  -->
<svg version="1.1" id="Calque_1" xmlns="http://www.w3.org/2000/svg" xmlns:xlink="http://www.w3.org/1999/xlink" x="0px" y="0px"
	 viewBox="0 0 100 125" style="enable-background:new 0 0 100 125;" xml:space="preserve">
<style type="text/css">
	.st0{fill:#FFBBEF;}
</style>
<circle class="st0" cx="63.6" cy="44.4" r="1.1"/>
<circle class="st0" cx="67.5" cy="50.3" r="1.1"/>
<circle class="st0" cx="63.8" cy="39.1" r="0.8"/>
<circle class="st0" cx="70.2" cy="38.2" r="0.8"/>
<circle class="st0" cx="61" cy="35.7" r="0.8"/>
<circle class="st0" cx="61.8" cy="27.4" r="0.8"/>
<circle class="st0" cx="54.5" cy="33.7" r="0.8"/>
<circle class="st0" cx="66.2" cy="24.3" r="0.8"/>
<circle class="st0" cx="52.1" cy="47.3" r="0.8"/>
<circle class="st0" cx="79.4" cy="44.1" r="0.8"/>
<circle class="st0" cx="77.3" cy="38.2" r="0.8"/>
<circle class="st0" cx="71.1" cy="47.8" r="0.8"/>
<circle class="st0" cx="57.3" cy="47.8" r="0.8"/>
<circle class="st0" cx="55.6" cy="30.4" r="1.1"/>
<circle class="st0" cx="56.7" cy="26.2" r="1.1"/>
<circle class="st0" cx="81.6" cy="39.5" r="1.1"/>
<circle class="st0" cx="66.2" cy="35.7" r="1.1"/>
<circle class="st0" cx="69.7" cy="43.3" r="1.1"/>
<circle class="st0" cx="58.4" cy="43" r="1.1"/>
<circle class="st0" cx="61.6" cy="50" r="1.1"/>
<circle class="st0" cx="26.6" cy="29.6" r="1.1"/>
<circle class="st0" cx="24.3" cy="50.9" r="1.1"/>
<circle class="st0" cx="33.8" cy="40.4" r="0.8"/>
<circle class="st0" cx="25.6" cy="26.1" r="0.8"/>
<circle class="st0" cx="30.1" cy="26.9" r="0.8"/>
<circle class="st0" cx="27.6" cy="39.6" r="0.8"/>
<circle class="st0" cx="24.1" cy="42" r="0.8"/>
<circle class="st0" cx="27" cy="48.8" r="0.8"/>
<circle class="st0" cx="31.6" cy="31.4" r="0.8"/>
<circle class="st0" cx="23.6" cy="46.6" r="0.8"/>
<circle class="st0" cx="24.3" cy="33" r="0.8"/>
<circle class="st0" cx="36.5" cy="37.1" r="0.8"/>
<circle class="st0" cx="32.4" cy="49" r="0.8"/>
<circle class="st0" cx="40" cy="48.8" r="0.8"/>
<circle class="st0" cx="39.4" cy="39.3" r="1.1"/>
<circle class="st0" cx="27" cy="44.5" r="1.1"/>
<circle class="st0" cx="24.3" cy="37.1" r="1.1"/>
<circle class="st0" cx="28.5" cy="33.8" r="1.1"/>
<circle class="st0" cx="39" cy="44.2" r="1.1"/>
<circle class="st0" cx="33.8" cy="45.2" r="1.1"/>
<circle class="st0" cx="35.9" cy="50.9" r="1.1"/>
<path class="st0" d="M14.4,75c-0.6,0-1,0.4-1,1v8.5c0,0.6,0.4,1,1,1H86c0.6,0,1-0.4,1-1V76c0-0.6-0.4-1-1-1h-1.9V63.8H86
	c0.6,0,1-0.4,1-1v-8.5c0-0.6-0.4-1-1-1H74.3c0.7-1.4,1.3-2.9,1.7-4.4c0.1,0,0.2,0,0.3,0c1.8,0,3.7-0.5,5.4-1.5
	C86,44.8,88,40,86.1,36.6c-1-1.7-2.7-2.7-5-3c-2.1-0.2-4.4,0.3-6.5,1.5c-0.2,0.1-0.3,0.2-0.5,0.3c-1.5-2.6-3.6-4.6-6.1-5.5
	c-0.1-0.2-0.1-0.4-0.2-0.5c1-1,1.8-2.3,2.1-3.6c0.3-1.6,0-3-0.9-4.1s-2.3-1.6-3.9-1.4c-1.4,0.1-2.9,0.8-4.1,1.8
	c-2.4-1.1-5-1.2-7.1,0c-2.2,1.1-3.6,3.3-4.1,6.2c-0.4,2.7,0.1,5.7,1.6,8.5c0.7,1.4,1.6,2.6,2.6,3.6c-0.1,0.6-0.2,1.2-0.3,1.9
	c-1.4,0.2-2.8,0.8-3.7,1.7c-1.2,1.1-1.8,2.4-1.7,3.8c0.1,1.4,0.9,2.6,2.3,3.5c1.1,0.7,2.4,1,3.8,1c0.2,0,0.5,0,0.7,0
	c0.2,0.4,0.4,0.8,0.6,1.1h-11V40.6c0-4.3-3.5-7.8-7.8-7.8c-0.4,0-0.7,0-1.1,0.1v-4.3c0-4.3-3.5-7.8-7.8-7.8s-7.8,3.5-7.8,7.8v24.6
	h-5.8c-0.6,0-1,0.4-1,1v8.5c0,0.6,0.4,1,1,1h2V75H14.4z M75.6,36.8c1.7-1,3.6-1.4,5.2-1.2s2.8,0.9,3.4,2c1.4,2.4-0.2,6-3.6,7.9
	c-1.4,0.8-2.9,1.2-4.4,1.2c0.1-0.8,0.1-1.5,0.1-2.3c0-2.6-0.5-5.1-1.4-7.3C75.2,37.1,75.4,36.9,75.6,36.8z M65.2,22.3
	c1-0.1,1.8,0.2,2.3,0.8s0.7,1.4,0.5,2.3c-0.2,0.8-0.5,1.5-1.1,2.2c-1.1-1.8-2.5-3.3-4-4.4C63.6,22.6,64.4,22.3,65.2,22.3z
	 M51.5,49.4c-0.8-0.5-1.3-1.2-1.4-2c-0.1-0.8,0.3-1.5,1-2.2c0.6-0.5,1.4-0.9,2.3-1.1c0,0.1,0,0.2,0,0.4c0,1.9,0.3,3.8,0.8,5.6
	C53.3,50.1,52.3,49.8,51.5,49.4z M54.6,38c-0.6-0.7-1.1-1.5-1.5-2.3c-1.2-2.4-1.7-4.9-1.4-7.2c0.3-2.2,1.4-3.9,3-4.7
	c3.4-1.8,8.3,0.6,10.8,5.5c0,0.1,0.1,0.1,0.1,0.2c-0.2,0-0.4,0-0.7,0C60.4,29.4,56.4,32.9,54.6,38z M55.5,44.5
	c0-7.2,4.3-13.1,9.5-13.1s9.5,5.9,9.5,13.1c0,3.2-0.9,6.3-2.5,8.7H57.9C56.3,50.8,55.5,47.7,55.5,44.5z M36.8,34.8
	c3.2,0,5.8,2.6,5.8,5.8v12.6H31.1V40.6C31.1,37.4,33.7,34.8,36.8,34.8z M22.2,28.7c0-3.2,2.6-5.8,5.8-5.8s5.8,2.6,5.8,5.8v4.8
	c-2.8,1.2-4.7,3.9-4.7,7.1v12.6h-6.9C22.2,53.2,22.2,28.7,22.2,28.7z M15.4,61.8v-6.5H85v6.5H15.4z M24.1,69.3l-5.7,5.4V63.8
	L24.1,69.3z M21.2,63.8h8.7l-4.4,4.1L21.2,63.8z M25.6,70.6l4.6,4.4H21L25.6,70.6z M27,69.3l4.8-4.5l4.8,4.5l-4.8,4.5L27,69.3z
	 M33.6,63.8h8.7L38,67.9L33.6,63.8z M38,70.6l4.6,4.4h-9.2L38,70.6z M39.5,69.3l4.8-4.5l4.8,4.5l-4.8,4.5L39.5,69.3z M46.1,63.8h8.7
	l-4.4,4.1L46.1,63.8z M50.5,70.6l4.6,4.4h-9.2L50.5,70.6z M51.9,69.3l4.8-4.5l4.8,4.5l-4.8,4.5L51.9,69.3z M58.5,63.8h8.7l-4.4,4.1
	L58.5,63.8z M62.9,70.6l4.6,4.4h-9.2L62.9,70.6z M64.4,69.3l4.8-4.5l4.8,4.5l-4.8,4.5L64.4,69.3z M71,63.8h8.7l-4.4,4.1L71,63.8z
	 M75.4,70.6L80,75h-9.2L75.4,70.6z M76.8,69.3l5.3-5v10L76.8,69.3z M85,77v6.5H15.4V77H85z"/>
<circle class="st0" cx="19.8" cy="80.3" r="1.2"/>
<circle class="st0" cx="19.8" cy="58.5" r="1.2"/>
<circle class="st0" cx="80.4" cy="58.5" r="1.2"/>
<circle class="st0" cx="80.4" cy="80.3" r="1.2"/>
</svg>
