<?xml version="1.0" encoding="utf-8"?>
<!-- Generator: Adobe Illustrator 21.1.0, SVG Export Plug-In . SVG Version: 6.00 Build 0)  -->
<svg version="1.1" id="Calque_1" xmlns="http://www.w3.org/2000/svg" xmlns:xlink="http://www.w3.org/1999/xlink" x="0px" y="0px"
	 viewBox="0 0 100 125" style="enable-background:new 0 0 100 125;" xml:space="preserve">
<style type="text/css">
	.st0{fill:#FFBBEF;}
</style>
<path class="st0" d="M87,56.6c0.6,0,1-0.4,1-1v-8.5c0-0.6-0.4-1-1-1h-2.7c0.8-3.4,4-18.2-1.5-26.6c-0.2-0.4-0.7-0.5-1.1-0.4
	S81,19.6,81,20c0,0.1-0.3,5.8-1,11c-0.2-3.9-0.3-8.5-0.3-13.6c0-0.4-0.2-0.7-0.6-0.9c-0.4-0.2-0.8-0.1-1.1,0.1
	c-0.4,0.3-2.7,2.6-3.4,12.2c-0.3-4.5-0.4-7.7-0.4-7.8c0-0.4-0.3-0.8-0.8-0.9c-0.4-0.1-0.9,0.1-1.1,0.5c-1.1,1.9-1.9,4.1-2.4,6.4
	C69,19,67,17,66.6,16.7c-0.3-0.2-0.7-0.3-1.1-0.1c-0.4,0.2-0.6,0.5-0.6,0.9c0,1.7,0,3.3,0,4.9c-0.4-1-0.9-2-1.4-2.8
	c-0.2-0.4-0.7-0.5-1.1-0.4c-0.4,0.1-0.7,0.5-0.7,0.9c0,0.1-0.3,5.8-1,11c-0.2-3.9-0.3-8.5-0.3-13.6c0-0.4-0.2-0.7-0.6-0.9
	c-0.4-0.2-0.8-0.1-1.1,0.1c-0.4,0.3-2.7,2.6-3.4,12.2C55.1,24.3,55,21.1,55,21c0-0.4-0.3-0.8-0.8-0.9c-0.4-0.1-0.9,0.1-1.1,0.5
	c-1.1,1.9-1.9,4.1-2.4,6.4c-0.9-8-2.9-10-3.3-10.3c-0.3-0.2-0.7-0.3-1.1-0.1c-0.4,0.2-0.6,0.5-0.6,0.9c0,3.9-0.1,7.4-0.2,10.6
	C44.8,24,44.4,20,44.4,20c0-0.4-0.3-0.8-0.8-0.9c-0.4-0.1-0.9,0.1-1.1,0.4c-0.9,1.4-1.5,2.9-1.9,4.6c-0.5-1.6-1.1-3.2-2-4.6
	c-0.2-0.4-0.7-0.5-1.1-0.4c-0.4,0.1-0.7,0.5-0.7,0.9c0,0.1-0.3,5.8-1,11c-0.2-3.9-0.3-8.5-0.3-13.6c0-0.4-0.2-0.7-0.6-0.9
	c-0.4-0.2-0.8-0.1-1.1,0.1c-0.4,0.3-2.7,2.6-3.4,12.2C30.1,24.3,30,21.1,30,21c0-0.4-0.3-0.8-0.8-0.9c-0.4-0.1-0.9,0.1-1.1,0.5
	c-1.1,1.9-1.9,4.1-2.4,6.4c-0.9-8-2.9-10-3.3-10.3c-0.3-0.2-0.7-0.3-1.1-0.1c-0.1,0-0.3,0.4-0.3,0.8c0,3.9-0.1,7.4-0.2,10.6
	c-0.7-4.1-1.1-8.1-1.1-8.1c0-0.4-0.3-0.8-0.8-0.9c-0.4-0.1-0.9,0.1-1.1,0.4c-5.4,8.4-1.2,23.1-0.1,26.6h-2.3c-0.6,0-1,0.4-1,1v8.5
	c0,0.6,0.4,1,1,1h2v18.2h-2c-0.6,0-1,0.4-1,1v8.5c0,0.6,0.4,1,1,1H87c0.6,0,1-0.4,1-1v-8.5c0-0.6-0.4-1-1-1h-1.9V56.6H87z M82.8,24
	c2.7,8.5-0.1,20.5-0.5,22.1h-1c-0.1-0.9-0.4-3.5-0.7-7.5C81.8,35.1,82.5,28.3,82.8,24z M77.8,21.9c0.1,6.7,0.4,12.4,0.7,16.6l0,0
	c0.3,3.8,0.6,6.5,0.7,7.5H77C75.9,32.8,76.8,25.6,77.8,21.9z M72.5,25.5c0.3,5.2,0.9,13.8,2.4,20.6h-4
	C70.6,43.4,70.1,33.1,72.5,25.5z M66.2,40.3c0.3-2.4,0.6-5.3,0.6-8.3c0.2-3,0.3-6.4,0.3-10.2c1,3.7,1.9,10.9,0.8,24.2h-2.3
	C65.7,45.2,65.9,43.2,66.2,40.3z M63.5,24c0.8,2.6,1.1,5.4,1.2,8.3c-0.1,2.9-0.3,5.4-0.5,7.4c-0.4,3.3-1,5.7-1.2,6.4h-1
	c-0.1-0.9-0.4-3.5-0.7-7.5C62.5,35.1,63.2,28.3,63.5,24z M58.5,21.9c0.1,6.7,0.4,12.4,0.7,16.6l0,0c0.3,3.8,0.6,6.5,0.7,7.5h-2.3
	C56.6,32.8,57.5,25.6,58.5,21.9z M53.2,25.5c0.3,5.2,0.9,13.8,2.4,20.6h-4C51.3,43.4,50.9,33.1,53.2,25.5z M47.8,21.8
	c1,3.7,1.9,10.9,0.8,24.3h-2.3C46.6,43.8,47.6,34.8,47.8,21.8z M42.9,23.7c0.4,3.3,1.2,8,2.4,11.2c-0.3,5-0.7,8.6-0.9,10.4
	C43.4,42,40.5,31.3,42.9,23.7z M41.2,40.9c0.5,2.3,1.1,4.2,1.4,5.2h-2.4C40.4,45.1,40.9,43.3,41.2,40.9z M38.7,24
	c2.7,8.5-0.1,20.5-0.5,22.1h-1c-0.1-0.9-0.4-3.5-0.7-7.5C37.7,35.1,38.3,28.3,38.7,24z M33.7,21.9c0.1,6.7,0.4,12.4,0.7,16.6l0,0
	c0.3,3.8,0.6,6.5,0.7,7.5h-2.3C31.7,32.8,32.6,25.6,33.7,21.9z M28.3,25.5c0.3,5.2,0.9,13.8,2.4,20.6h-4
	C26.5,43.4,26,33.1,28.3,25.5z M22.9,21.8c1,3.7,1.9,10.9,0.8,24.3h-2.3C21.7,43.8,22.7,34.8,22.9,21.8z M18.1,23.7
	c0.4,3.3,1.2,8,2.4,11.2c-0.3,5-0.7,8.6-0.9,10.4C18.5,42,15.6,31.3,18.1,23.7z M86,76.8v6.5H16.4v-6.5H86z M24.7,71.5l5.3-4.6
	l5.6,4.9l-3.5,3l0,0h-3.4L24.7,71.5z M25.6,74.8h-4.7l2.3-2L25.6,74.8z M31.5,65.6l5.6-4.9l5.6,4.9l-5.6,4.9L31.5,65.6z M37.1,73.1
	l2,1.7h-4L37.1,73.1z M38.6,71.8l5.6-4.9l5.6,4.9l-3.5,3l0,0h-4.1l0,0L38.6,71.8z M45.8,65.6l5.6-4.9l5.6,4.9l-5.6,4.9L45.8,65.6z
	 M51.4,73.1l2,1.8h-4L51.4,73.1z M52.9,71.8l5.6-4.9l5.6,4.9l-3.5,3l0,0h-4.1l0,0L52.9,71.8z M60,65.6l5.6-4.9l5.6,4.9l-5.6,4.9
	L60,65.6z M65.6,73.1l2,1.7h-4L65.6,73.1z M67.1,71.8l5.6-4.9l5.2,4.5L74,74.8l0,0h-3.3l0,0L67.1,71.8z M79.5,72.7l2.4,2.1H77
	L79.5,72.7z M81,71.4l2.1-1.8v3.7L81,71.4z M79.5,70.1l-5.2-4.5l5.4-4.6l3.5,3v3L79.5,70.1z M81.2,59.6l1.9-1.7v3.3L81.2,59.6z
	 M79.6,58.3l-2-1.7h4L79.6,58.3z M78.1,59.6l-5.3,4.6l-5.6-4.9l3.2-2.8l0,0h4.2L78.1,59.6z M65.6,58.1l-1.7-1.5h3.4L65.6,58.1z
	 M64.1,59.4l-5.6,4.9l-5.6-4.9l3.2-2.8l0,0h4.8l0,0L64.1,59.4z M51.4,58.1l-1.7-1.5h3.4L51.4,58.1z M49.8,59.4l-5.6,4.9l-5.6-4.9
	l3.2-2.8l0,0h4.8l0,0L49.8,59.4z M37.1,58.1l-1.7-1.5h3.4L37.1,58.1z M35.6,59.4L30,64.3l-4.8-4.2l3.9-3.5h3.3l0,0L35.6,59.4z
	 M23.6,58.8l-2.5-2.1H26L23.6,58.8z M22.1,60.1l-2.8,2.5v-4.9L22.1,60.1z M19.4,65.2l4.2-3.8l4.8,4.2l-5.3,4.6L19.3,67l0,0
	L19.4,65.2L19.4,65.2z M21.6,71.5l-2.3,2v-3.9L21.6,71.5z M16.4,54.6v-6.5H86v6.5H16.4z"/>
<circle class="st0" cx="20.8" cy="51.3" r="1.2"/>
<circle class="st0" cx="20.8" cy="80.1" r="1.2"/>
<circle class="st0" cx="81.3" cy="51.3" r="1.2"/>
<circle class="st0" cx="81.3" cy="80.1" r="1.2"/>
</svg>
