<?xml version="1.0" encoding="utf-8"?>
<!-- Generator: Adobe Illustrator 21.1.0, SVG Export Plug-In . SVG Version: 6.00 Build 0)  -->
<svg version="1.1" id="Calque_1" xmlns="http://www.w3.org/2000/svg" xmlns:xlink="http://www.w3.org/1999/xlink" x="0px" y="0px"
	 viewBox="0 0 100 125" style="enable-background:new 0 0 100 125;" xml:space="preserve">
<style type="text/css">
	.st0{fill:#FFBBEF;}
</style>
<path class="st0" d="M14.4,85.4H86c0.6,0,1-0.4,1-1v-8.5c0-0.6-0.4-1-1-1h-1.9V56.6H86c0.6,0,1-0.4,1-1v-8.5c0-0.6-0.4-1-1-1h-5.8
	v-2.9h1.4c0.6,0,1-0.4,1-1s-0.4-1-1-1h-1.4v-2.1h1.4c0.6,0,1-0.4,1-1s-0.4-1-1-1h-1.4V35h1.4c0.6,0,1-0.4,1-1s-0.4-1-1-1h-1.5
	c-0.3-4.1-3.7-7.4-7.9-7.4c-0.4,0-0.8,0-1.1,0.1v-3.1h1.1c0.6,0,1-0.4,1-1s-0.4-1-1-1H71c-0.4-4-3.8-7.2-7.9-7.2s-7.5,3.2-7.9,7.2
	H54c-0.6,0-1,0.4-1,1s0.4,1,1,1h1.4v2.1H54c-0.6,0-1,0.4-1,1s0.4,1,1,1h1.4v2.1H54c-0.6,0-1,0.4-1,1s0.4,1,1,1h1.4v2.1H54
	c-0.6,0-1,0.4-1,1s0.4,1,1,1h1.4V37H54c-0.6,0-1,0.4-1,1s0.4,1,1,1h1.4v2.1H54c-0.6,0-1,0.4-1,1s0.4,1,1,1h1.4V46h-11v-2.9h1.4
	c0.6,0,1-0.4,1-1s-0.4-1-1-1h-1.4V39h1.4c0.6,0,1-0.4,1-1s-0.4-1-1-1h-1.4v-2.1h1.4c0.6,0,1-0.4,1-1s-0.4-1-1-1h-1.4v-2.1h1.4
	c0.6,0,1-0.4,1-1s-0.4-1-1-1h-1.4v-2.1h1.4c0.6,0,1-0.4,1-1s-0.4-1-1-1h-1.4v-2.1h1.4c0.6,0,1-0.4,1-1s-0.4-1-1-1h-1.5
	c-0.4-4-3.8-7.2-7.9-7.2s-7.5,3.2-7.9,7.2h-1.2c-0.6,0-1,0.4-1,1s0.4,1,1,1h1.1v3.1c-0.4-0.1-0.7-0.1-1.1-0.1
	c-4.2,0-7.6,3.3-7.9,7.4h-1.5c-0.6,0-1,0.4-1,1s0.4,1,1,1h1.4v2.1h-1.4c-0.6,0-1,0.4-1,1s0.4,1,1,1h1.4v2.1h-1.4c-0.6,0-1,0.4-1,1
	s0.4,1,1,1h1.4v2.9h-5.1c-0.6,0-1,0.4-1,1v8.5c0,0.6,0.4,1,1,1h2v18.2h-2c-0.6,0-1,0.4-1,1v8.5C13.4,84.9,13.9,85.4,14.4,85.4z
	 M72.4,27.6c3.1,0,5.6,2.4,5.9,5.4h-1.4c-0.6,0-1,0.4-1,1s0.4,1,1,1h1.4v2.1h-1.4c-0.6,0-1,0.4-1,1s0.4,1,1,1h1.4v2.1h-1.4
	c-0.6,0-1,0.4-1,1s0.4,1,1,1h1.4v2.9H66.5v-2.9h1.4c0.6,0,1-0.4,1-1s-0.4-1-1-1h-1.4v-2.1h1.4c0.6,0,1-0.4,1-1s-0.4-1-1-1h-1.4V35
	h1.4c0.6,0,1-0.4,1-1s-0.4-1-1-1h-1.4C66.8,29.9,69.3,27.6,72.4,27.6z M57.4,43.2h1.4c0.6,0,1-0.4,1-1s-0.4-1-1-1h-1.4v-2.1h1.4
	c0.6,0,1-0.4,1-1s-0.4-1-1-1h-1.4V35h1.4c0.6,0,1-0.4,1-1s-0.4-1-1-1h-1.4v-2.1h1.4c0.6,0,1-0.4,1-1s-0.4-1-1-1h-1.4v-2.1h1.4
	c0.6,0,1-0.4,1-1s-0.4-1-1-1h-1.4v-2.1h1.4c0.6,0,1-0.4,1-1s-0.4-1-1-1h-1.4c0.4-2.9,2.8-5.2,5.9-5.2c3.1,0,5.5,2.3,5.9,5.2h-1.7
	c-0.6,0-1,0.4-1,1s0.4,1,1,1h1.7v3.6c-2.7,1.1-4.5,3.7-4.7,6.7H63c-0.6,0-1,0.4-1,1s0.4,1,1,1h1.4v2.1H63c-0.6,0-1,0.4-1,1
	s0.4,1,1,1h1.4v2.1H63c-0.6,0-1,0.4-1,1s0.4,1,1,1h1.4v2.9h-7V43.2z M30.6,22.6h1.7c0.6,0,1-0.4,1-1s-0.4-1-1-1h-1.7
	c0.4-2.9,2.8-5.2,5.9-5.2s5.5,2.3,5.9,5.2H41c-0.6,0-1,0.4-1,1s0.4,1,1,1h1.4v2.1H41c-0.6,0-1,0.4-1,1s0.4,1,1,1h1.4v2.1H41
	c-0.6,0-1,0.4-1,1s0.4,1,1,1h1.4v2.1H41c-0.6,0-1,0.4-1,1s0.4,1,1,1h1.4V37H41c-0.6,0-1,0.4-1,1s0.4,1,1,1h1.4v2.1H41
	c-0.6,0-1,0.4-1,1s0.4,1,1,1h1.4V46h-7v-2.9h1.4c0.6,0,1-0.4,1-1s-0.4-1-1-1h-1.4V39h1.4c0.6,0,1-0.4,1-1s-0.4-1-1-1h-1.4v-2.1h1.4
	c0.6,0,1-0.4,1-1s-0.4-1-1-1h-1.5c-0.2-3-2.1-5.6-4.7-6.7C30.6,26.2,30.6,22.6,30.6,22.6z M21.5,43.2H23c0.6,0,1-0.4,1-1s-0.4-1-1-1
	h-1.4v-2.1H23c0.6,0,1-0.4,1-1s-0.4-1-1-1h-1.4V35H23c0.6,0,1-0.4,1-1s-0.4-1-1-1h-1.4c0.3-3,2.8-5.4,5.9-5.4s5.6,2.4,5.9,5.4H32
	c-0.6,0-1,0.4-1,1s0.4,1,1,1h1.4v2.1H32c-0.6,0-1,0.4-1,1s0.4,1,1,1h1.4v2.1H32c-0.6,0-1,0.4-1,1s0.4,1,1,1h1.4v2.9H21.5V43.2z
	 M15.4,54.6v-6.5H85v6.5H15.4z M82.1,56.6v18.2H18.4V56.6H82.1z M15.4,76.8H85v6.5H15.4V76.8z"/>
<circle class="st0" cx="19.8" cy="51.3" r="1.2"/>
<circle class="st0" cx="19.8" cy="80.1" r="1.2"/>
<circle class="st0" cx="80.4" cy="51.3" r="1.2"/>
<circle class="st0" cx="80.4" cy="80.1" r="1.2"/>
</svg>
