<?xml version="1.0" encoding="utf-8"?>
<!-- Generator: Adobe Illustrator 21.1.0, SVG Export Plug-In . SVG Version: 6.00 Build 0)  -->
<svg version="1.1" id="Calque_1" xmlns="http://www.w3.org/2000/svg" xmlns:xlink="http://www.w3.org/1999/xlink" x="0px" y="0px"
	 viewBox="0 0 100 125" style="enable-background:new 0 0 100 125;" xml:space="preserve">
<style type="text/css">
	.st0{fill:#FFBBEF;}
</style>
<circle class="st0" cx="19.2" cy="51.6" r="1.2"/>
<circle class="st0" cx="19.2" cy="66" r="1.2"/>
<circle class="st0" cx="19.2" cy="80.4" r="1.2"/>
<circle class="st0" cx="79.8" cy="51.6" r="1.2"/>
<circle class="st0" cx="79.8" cy="66" r="1.2"/>
<circle class="st0" cx="79.8" cy="80.4" r="1.2"/>
<path class="st0" d="M87.4,19.5c0.6-0.3,1.1-0.7,1.4-1.2c0.7-0.8,0.9-1.8,0.6-2.5c-0.5-1.2-2.1-1.6-4-1.1c0.7-2.3,0.3-4.3-1.1-4.9
	c-1.4-0.6-3.1,0.6-4.2,2.8c-1-1.7-2.5-2.6-3.7-2c-0.8,0.3-1.2,1.2-1.3,2.3c0,0.6,0.1,1.2,0.2,1.8c-0.9-0.3-1.7-0.4-2.5-0.3
	c-1.6,0.1-2.2,1-2.4,1.4c-0.2,0.4-0.4,1.5,0.7,2.7c0.5,0.6,1.2,1.1,2,1.5c-0.6,0.3-1,0.7-1.4,1.2C71,22,70.8,23,71.1,23.7
	c0.4,0.9,1.3,1.3,2.5,1.3c0.5,0,1-0.1,1.5-0.2C74.5,27,75,29,76.4,29.6c0.2,0.1,0.5,0.1,0.7,0.1c0.6,0,1.3-0.3,2-0.9
	c0.1-0.1,0.3-0.3,0.4-0.4c0.3,1.6,1.9,11-0.1,17.9H67.1c0-1.2,0-2.2,0-2.9c0.1,0.1,0.1,0.1,0.2,0.2c0.6,0.5,1.2,0.7,1.8,0.7
	c0.3,0,0.5-0.1,0.7-0.2c0.8-0.3,1.2-1.2,1.3-2.3c0-0.6-0.1-1.2-0.2-1.9c0.7,0.2,1.4,0.3,2,0.3c1.4,0,2.5-0.5,2.8-1.5
	c0.6-1.4-0.6-3.1-2.8-4.2c1.7-1,2.5-2.5,2-3.7s-2.1-1.6-4-1.1c0.3-0.9,0.4-1.7,0.3-2.5c-0.1-1.2-0.6-2-1.5-2.4
	c-1.4-0.6-3.1,0.6-4.2,2.8c-0.3-0.6-0.8-1.1-1.2-1.4c-0.8-0.7-1.8-0.9-2.5-0.6c-0.8,0.3-1.2,1.2-1.3,2.3c0,0.6,0.1,1.2,0.2,1.8
	c-0.9-0.3-1.7-0.4-2.5-0.3c-1.6,0.1-2.2,1-2.4,1.4s-0.4,1.5,0.7,2.7c0.5,0.6,1.2,1.1,2,1.5c-0.6,0.3-1,0.7-1.4,1.2
	c-0.7,0.8-0.9,1.8-0.6,2.5c0.4,0.9,1.3,1.3,2.5,1.3c0.5,0,1-0.1,1.5-0.2c-0.7,2.3-0.2,4.3,1.2,4.8c0.2,0.1,0.5,0.1,0.7,0.1
	c0.8,0,1.7-0.5,2.4-1.3c0,0.7,0,1.6,0,2.7H51.4c-0.3-5.4,0.6-14.9,1.1-18.8c0,0,0,0,0.1,0.1c0.6,0.5,1.2,0.7,1.8,0.7
	c0.3,0,0.5-0.1,0.7-0.2c1.2-0.5,1.6-2.2,1.1-4.1c0.7,0.2,1.4,0.3,2,0.3c1.4,0,2.5-0.5,2.8-1.5c0.3-0.8,0.1-1.8-0.7-2.7
	c-0.5-0.6-1.2-1.1-2-1.5c0.6-0.3,1.1-0.7,1.4-1.2c0.7-0.8,0.9-1.8,0.6-2.5c-0.5-1.2-2.1-1.6-4-1.1c0.7-2.3,0.3-4.3-1.1-4.9
	c-1.5-0.1-3.2,1-4.2,3.2c-0.3-0.6-0.8-1.1-1.2-1.4C49,9.8,48,9.6,47.3,9.9c-0.5,0.2-0.9,0.6-1.1,1.2c-0.3,0.8-0.3,1.8,0,2.9
	c-2.3-0.7-4.3-0.3-4.8,1.1c-0.2,0.5-0.4,1.5,0.7,2.7c0.5,0.6,1.2,1.1,2,1.5c-0.6,0.3-1,0.7-1.4,1.2c-0.7,0.8-0.9,1.8-0.6,2.5
	c0.4,0.9,1.3,1.3,2.5,1.3c0.5,0,1-0.1,1.5-0.2c-0.3,0.9-0.4,1.7-0.3,2.5c0.1,1.2,0.6,2,1.5,2.4c0.2,0.1,0.5,0.1,0.7,0.1
	c0.6,0,1.3-0.3,2-0.9c0.2-0.2,0.4-0.4,0.6-0.6c-0.4,4.1-1.3,13.3-1,18.8H38.1c-0.3-1.2-0.4-2.8-0.4-4c0.1,0.1,0.2,0.2,0.3,0.3
	c0.6,0.5,1.2,0.7,1.8,0.7c0.3,0,0.5-0.1,0.7-0.2c1.2-0.5,1.6-2.2,1.1-4.1c0.7,0.2,1.4,0.3,2,0.3c1.4,0,2.5-0.5,2.8-1.5
	c0.6-1.4-0.6-3.1-2.8-4.2c0.6-0.3,1.1-0.7,1.4-1.2c0.7-0.8,0.9-1.8,0.6-2.5c-0.5-1.2-2.1-1.6-4-1.1c0.7-2.3,0.3-4.3-1.1-4.9
	c-1.4-0.6-3.1,0.6-4.2,2.8c-0.3-0.6-0.8-1.1-1.2-1.4c-0.8-0.7-1.8-0.9-2.5-0.6c-0.5,0.2-0.9,0.6-1.1,1.2c-0.3,0.8-0.3,1.8,0,2.9
	c-0.9-0.3-1.7-0.4-2.4-0.3c-1.6,0.1-2.2,1-2.4,1.4c-0.2,0.5-0.4,1.5,0.7,2.7c0.5,0.6,1.2,1.1,2,1.5c-0.6,0.3-1,0.7-1.4,1.2
	c-0.7,0.8-0.9,1.8-0.6,2.5c0.4,0.9,1.3,1.3,2.5,1.3c0.5,0,1-0.1,1.5-0.2c-0.3,0.9-0.4,1.7-0.3,2.5c0.1,1.2,0.6,2,1.5,2.4
	c0.2,0.1,0.5,0.1,0.7,0.1c0.6,0,1.3-0.3,2-0.9c0.1-0.1,0.2-0.2,0.3-0.3c0,1.1,0.1,2.4,0.4,3.6H23.2c1-6.1-0.6-12.8-1.5-16
	c0.6,0.5,1.2,0.7,1.7,0.7c0.3,0,0.5-0.1,0.7-0.2c0.8-0.3,1.2-1.2,1.3-2.3c0-0.6-0.1-1.2-0.2-1.9c0.7,0.2,1.4,0.3,2,0.3
	c1.4,0,2.5-0.5,2.8-1.5c0.6-1.4-0.6-3.1-2.8-4.2c1.7-1,2.5-2.5,2-3.7s-2.1-1.6-4-1.1c0.3-0.9,0.4-1.7,0.3-2.5
	c-0.1-1.2-0.6-2-1.5-2.4c-0.8-0.3-1.8-0.1-2.7,0.7c-0.6,0.5-1.1,1.2-1.5,2c-0.3-0.6-0.8-1.1-1.2-1.4c-0.8-0.7-1.8-0.9-2.5-0.6
	c-1.2,0.5-1.6,2.2-1.1,4.1c-2-0.4-4,0-4.6,1.4s0.6,3.1,2.7,4.1c-0.6,0.3-1,0.7-1.4,1.2c-0.7,0.8-0.9,1.8-0.6,2.5
	c0.3,0.8,1.2,1.2,2.3,1.3c0.1,0,0.2,0,0.2,0c0.5,0,1-0.1,1.5-0.2c-0.7,2.3-0.2,4.3,1.2,4.8c0.2,0.1,0.5,0.1,0.7,0.1
	c0.8,0,1.7-0.5,2.5-1.4c0.9,2.7,2.8,9.9,1.6,16.1h-7.4c-0.6,0-1,0.4-1,1v8.5c0,0.6,0.4,1,1,1h2v3.9h-2c-0.6,0-1,0.4-1,1v8.5
	c0,0.6,0.4,1,1,1h2v3.9h-2c-0.6,0-1,0.4-1,1v8.5c0,0.6,0.4,1,1,1h71.6c0.6,0,1-0.4,1-1v-8.5c0-0.6-0.4-1-1-1h-1.9v-3.9h1.9
	c0.6,0,1-0.4,1-1v-8.5c0-0.6-0.4-1-1-1h-1.9v-3.9h1.9c0.6,0,1-0.4,1-1v-8.5c0-0.6-0.4-1-1-1h-4c1.8-7.3,0.3-16.3,0-18.2
	c0.1,0.1,0.1,0.1,0.2,0.2c0.6,0.5,1.2,0.7,1.8,0.7c0.3,0,0.5-0.1,0.7-0.2c0.8-0.3,1.2-1.2,1.3-2.3c0-0.6-0.1-1.2-0.2-1.9
	c0.7,0.2,1.4,0.3,2,0.3c1.4,0,2.5-0.5,2.8-1.5C90.7,22.3,89.6,20.6,87.4,19.5z M85.2,16.9c1.3-0.6,2.3-0.4,2.5-0.4
	c0,0.2-0.6,1-1.9,1.6c-0.9,0.4-1.6,0.5-2,0.4c0-0.1,0-0.2-0.1-0.2c0-0.1-0.1-0.1-0.1-0.2C83.7,17.8,84.3,17.3,85.2,16.9z M81.7,14
	c0.7-1.7,1.6-2.3,1.9-2.3l0,0c0.2,0.1,0.5,1.2-0.2,3c-0.4,1-0.9,1.6-1.3,2c-0.1-0.1-0.2-0.1-0.4-0.2c-0.1,0-0.2-0.1-0.4-0.1
	C81.2,15.8,81.3,15,81.7,14z M77.1,12.4L77.1,12.4c0.2,0,1,0.6,1.6,1.9c0.4,0.9,0.5,1.6,0.4,2.1c-0.1,0-0.1,0-0.2,0.1
	c-0.1,0-0.1,0.1-0.2,0.1c-0.4-0.3-0.9-0.8-1.2-1.7C76.9,13.6,77,12.6,77.1,12.4z M72.3,16.6c0.1-0.1,0.4-0.2,0.9-0.2s1.2,0.1,2,0.4
	c0.9,0.4,1.6,0.9,2,1.3c-0.1,0.1-0.1,0.2-0.2,0.4c0,0.1-0.1,0.2-0.1,0.3c-0.6,0.1-1.4,0-2.4-0.4C73,17.7,72.3,16.8,72.3,16.6z
	 M75.5,22.5c-1.4,0.6-2.3,0.4-2.5,0.4c0-0.2,0.6-1,1.9-1.6c0.7-0.3,1.4-0.4,1.8-0.4c0.1,0,0.2,0,0.3,0c0.1,0.2,0.1,0.3,0.2,0.5
	C76.9,21.7,76.3,22.2,75.5,22.5z M79,25.4c-0.7,1.7-1.7,2.3-1.9,2.3c-0.2-0.1-0.5-1.2,0.2-3c0.4-0.9,0.9-1.6,1.3-2
	c0.1,0.1,0.3,0.2,0.4,0.2s0.2,0.1,0.3,0.1C79.5,23.7,79.4,24.5,79,25.4z M79.9,21c-0.7-0.3-1-1-0.7-1.7c0.1-0.3,0.4-0.6,0.7-0.7
	c0.2-0.1,0.3-0.1,0.5-0.1s0.3,0,0.5,0.1l0,0c0.3,0.1,0.6,0.4,0.7,0.7c0.1,0.3,0.1,0.7,0,1s-0.4,0.6-0.7,0.7
	C80.5,21.1,80.2,21.1,79.9,21z M80.6,27C80.5,27,80.5,27,80.6,27C80.5,27,80.5,26.9,80.6,27C80.5,26.9,80.6,27,80.6,27z M69,42.4
	L69,42.4c-0.2,0-1-0.6-1.6-1.9C67,39.6,67,38.8,67,38.4c0.1,0,0.3-0.1,0.4-0.2c0.4,0.3,0.9,0.8,1.2,1.7C69.3,41.3,69.1,42.3,69,42.4
	z M73.9,38.2c-0.1,0.2-1.2,0.5-3-0.2c-0.9-0.4-1.6-0.9-2-1.3c0.1-0.1,0.1-0.3,0.2-0.4c0-0.1,0.1-0.3,0.1-0.4c0.6-0.1,1.4,0,2.3,0.4
	C73.3,37,73.9,38,73.9,38.2z M70.7,32.2c1.3-0.6,2.3-0.4,2.5-0.4c0,0.2-0.6,1-1.9,1.6c-0.9,0.4-1.6,0.5-2,0.4
	c-0.1-0.1-0.1-0.3-0.2-0.4C69.3,33.1,69.9,32.6,70.7,32.2z M67.2,29.3c0.7-1.7,1.6-2.3,1.9-2.3l0,0c0.2,0.1,0.5,1.3-0.2,3
	c-0.4,1-0.9,1.6-1.3,2c-0.1-0.1-0.2-0.1-0.4-0.2c-0.1,0-0.2-0.1-0.4-0.1C66.8,31.1,66.8,30.3,67.2,29.3z M62.7,27.7L62.7,27.7
	c0.2,0,1,0.6,1.6,1.9c0.4,0.8,0.5,1.6,0.4,2.1c-0.1,0.1-0.3,0.1-0.4,0.2c-0.4-0.3-0.9-0.8-1.3-1.7C62.5,28.9,62.6,27.9,62.7,27.7z
	 M57.9,31.8c0.1-0.1,0.4-0.2,0.9-0.2s1.2,0.1,2,0.4c0.9,0.4,1.6,0.9,2,1.3c-0.1,0.1-0.1,0.2-0.2,0.4c0,0.1-0.1,0.2-0.1,0.3
	c-0.6,0.1-1.4,0-2.4-0.4C58.5,33,57.9,32.1,57.9,31.8z M61.1,37.8c-1.4,0.6-2.3,0.4-2.5,0.4c0-0.2,0.6-1,1.9-1.6
	c0.7-0.3,1.3-0.4,1.8-0.4c0.1,0,0.2,0,0.2,0c0.1,0.2,0.1,0.3,0.2,0.5C62.5,37,62,37.5,61.1,37.8z M64.6,40.7
	c-0.7,1.7-1.7,2.3-1.9,2.3c-0.2-0.1-0.5-1.3,0.2-3c0.4-0.9,0.9-1.6,1.3-2c0.1,0.1,0.3,0.2,0.4,0.2s0.2,0.1,0.3,0.1
	C65,39,64.9,39.8,64.6,40.7z M64.7,35.6c-0.1-0.3-0.1-0.7,0-1s0.4-0.6,0.7-0.7c0.2-0.1,0.3-0.1,0.5-0.1s0.3,0,0.5,0.1
	c0.3,0.1,0.6,0.4,0.7,0.7s0.1,0.7,0,1s-0.4,0.6-0.7,0.7c-0.3,0.1-0.7,0.1-1,0C65.1,36.1,64.8,35.9,64.7,35.6z M54.3,26.3
	c-0.3,0-1-0.6-1.6-1.9c-0.4-0.8-0.5-1.6-0.4-2.1c0.1,0,0.3-0.1,0.4-0.2c0.4,0.3,0.9,0.9,1.2,1.7C54.6,25.2,54.4,26.2,54.3,26.3z
	 M59.2,22.2c-0.1,0.2-1.2,0.5-3-0.2c-0.9-0.4-1.6-0.9-2-1.3c0.1-0.1,0.1-0.3,0.2-0.4c0-0.1,0.1-0.3,0.1-0.4c0.6-0.1,1.4,0,2.3,0.4
	C58.6,21,59.2,22,59.2,22.2z M56,16.2c1.3-0.6,2.3-0.4,2.5-0.4c0,0.2-0.6,1-1.9,1.6c-0.9,0.4-1.6,0.5-2,0.4
	c-0.1-0.1-0.1-0.3-0.2-0.4C54.6,17,55.1,16.6,56,16.2z M52.5,13.3c0.7-1.7,1.6-2.3,1.9-2.3l0,0c0.2,0.1,0.5,1.3-0.2,3
	c-0.4,1-0.9,1.6-1.3,2c-0.1-0.1-0.2-0.1-0.4-0.2c-0.1,0-0.2-0.1-0.4-0.1C52.1,15.1,52.1,14.2,52.5,13.3z M48,11.7L48,11.7
	c0.2,0,1,0.6,1.6,1.9c0.4,0.9,0.5,1.6,0.4,2.1c-0.1,0.1-0.3,0.1-0.4,0.2c-0.4-0.3-0.9-0.8-1.3-1.7C47.8,12.8,47.9,11.8,48,11.7z
	 M43.2,15.8c0.1-0.1,0.4-0.2,0.9-0.2s1.2,0.1,2,0.4c0.9,0.4,1.6,0.9,2,1.3c-0.1,0.1-0.1,0.2-0.2,0.4c0,0.1-0.1,0.2-0.1,0.3
	c-0.6,0.1-1.4,0-2.4-0.4C43.8,17,43.2,16,43.2,15.8z M46.4,21.8c-1.4,0.6-2.3,0.4-2.5,0.4c0-0.2,0.6-1,1.9-1.6
	c0.7-0.3,1.3-0.4,1.8-0.4c0.1,0,0.2,0,0.2,0c0.1,0.2,0.1,0.3,0.2,0.5C47.8,21,47.2,21.4,46.4,21.8z M49.9,24.7
	C49.2,26.4,48.2,27,48,27c-0.2-0.1-0.5-1.3,0.2-3c0.4-0.9,0.9-1.6,1.3-2c0.1,0.1,0.3,0.2,0.4,0.2c0.1,0,0.2,0.1,0.3,0.1
	C50.3,22.9,50.2,23.7,49.9,24.7z M50,19.5c-0.1-0.3-0.1-0.7,0-1s0.4-0.6,0.7-0.7c0.2-0.1,0.3-0.1,0.5-0.1s0.3,0,0.5,0.1
	c0.3,0.1,0.6,0.4,0.7,0.7c0.1,0.3,0.1,0.7,0,1s-0.4,0.6-0.7,0.7s-0.7,0.1-1,0S50.1,19.8,50,19.5z M39.7,41.3L39.7,41.3
	c-0.2,0-1-0.6-1.6-1.9c-0.4-0.8-0.5-1.6-0.4-2.1c0.1,0,0.3-0.1,0.4-0.2c0.4,0.3,0.9,0.9,1.2,1.7C40,40.2,39.8,41.2,39.7,41.3z
	 M44.6,37.2c-0.1,0.2-1.2,0.5-3-0.2c-0.9-0.4-1.6-0.9-2-1.3c0.1-0.1,0.1-0.3,0.2-0.4c0-0.1,0.1-0.3,0.1-0.4c0.6-0.1,1.4,0,2.3,0.4
	C44,36,44.6,37,44.6,37.2z M41.4,31.2c1.3-0.6,2.3-0.4,2.5-0.4c0,0.2-0.6,1-1.9,1.6c-0.9,0.4-1.6,0.5-2,0.4
	c-0.1-0.1-0.1-0.3-0.2-0.4C40,32,40.5,31.6,41.4,31.2z M37.9,28.3c0.7-1.7,1.6-2.3,1.9-2.3l0,0c0.2,0.1,0.5,1.3-0.2,3
	c-0.4,1-0.9,1.6-1.3,2c-0.1-0.1-0.2-0.1-0.4-0.2c-0.1,0-0.2-0.1-0.4-0.1C37.5,30.1,37.5,29.2,37.9,28.3z M33.4,26.7L33.4,26.7
	c0.2,0,1,0.6,1.6,1.9c0.4,0.9,0.5,1.6,0.4,2.1c-0.1,0.1-0.3,0.1-0.4,0.2c-0.4-0.3-0.9-0.8-1.3-1.7C33.2,27.8,33.3,26.8,33.4,26.7z
	 M28.6,30.8c0.1-0.1,0.4-0.2,0.9-0.2s1.2,0.1,2,0.4c0.9,0.4,1.6,0.9,2,1.3c-0.1,0.1-0.1,0.2-0.2,0.4c0,0.1-0.1,0.2-0.1,0.3
	c-0.6,0.1-1.4,0-2.4-0.4C29.2,32,28.6,31,28.6,30.8z M31.8,36.8c-1.4,0.6-2.3,0.4-2.5,0.4c0-0.2,0.6-1,1.9-1.6
	c0.7-0.3,1.3-0.4,1.8-0.4c0.1,0,0.2,0,0.2,0c0.1,0.2,0.1,0.3,0.2,0.5C33.2,36,32.6,36.4,31.8,36.8z M35.3,39.7
	c-0.7,1.7-1.7,2.3-1.9,2.3c-0.2-0.1-0.5-1.3,0.2-3c0.4-0.9,0.9-1.6,1.3-2c0.1,0.1,0.3,0.2,0.4,0.2c0.1,0,0.2,0.1,0.3,0.1
	C35.7,37.9,35.6,38.7,35.3,39.7z M35.4,34.5c-0.1-0.3-0.1-0.7,0-1s0.4-0.6,0.7-0.7c0.2-0.1,0.3-0.1,0.5-0.1s0.3,0,0.5,0.1
	c0.3,0.1,0.6,0.4,0.7,0.7c0.1,0.3,0.1,0.7,0,1s-0.4,0.6-0.7,0.7c-0.3,0.1-0.7,0.1-1,0C35.8,35.1,35.5,34.8,35.4,34.5z M28.3,24.9
	c-0.1,0.2-1.2,0.5-3-0.2c-0.9-0.4-1.6-0.9-2-1.3c0.1-0.1,0.1-0.3,0.2-0.4c0-0.1,0.1-0.3,0.1-0.4c0.6-0.1,1.4,0,2.3,0.4
	C27.7,23.7,28.3,24.7,28.3,24.9z M25.1,18.9c1.2-0.5,2.2-0.5,2.4-0.3c-0.1,0.3-0.7,1-1.9,1.6c-0.9,0.4-1.6,0.5-2,0.4
	c0-0.1,0-0.2-0.1-0.2c0-0.1-0.1-0.1-0.1-0.2C23.7,19.8,24.3,19.3,25.1,18.9z M21.6,16c0.7-1.7,1.6-2.3,1.9-2.3l0,0
	c0.2,0.1,0.5,1.2-0.2,3c-0.4,1-0.9,1.6-1.3,2c-0.1-0.1-0.2-0.1-0.4-0.2c-0.1,0-0.2-0.1-0.4-0.1C21.2,17.8,21.2,17,21.6,16z
	 M17.1,14.4L17.1,14.4c0.2,0,1,0.6,1.6,1.9c0.4,0.8,0.5,1.6,0.4,2.1c-0.1,0-0.1,0-0.2,0.1c-0.1,0-0.1,0.1-0.2,0.1
	c-0.4-0.3-0.9-0.9-1.3-1.7C16.9,15.5,17,14.6,17.1,14.4z M12.3,18.5c0.1-0.1,0.4-0.2,0.9-0.2s1.2,0.1,2,0.4c0.9,0.4,1.6,0.9,2,1.3
	c-0.1,0.1-0.1,0.2-0.2,0.4c0,0.1-0.1,0.2-0.1,0.3c-0.6,0.1-1.4,0-2.4-0.4C12.9,19.7,12.3,18.8,12.3,18.5z M15.5,24.5
	c-1.4,0.6-2.3,0.4-2.5,0.4c0-0.2,0.6-1,1.9-1.6c0.7-0.3,1.4-0.4,1.8-0.4c0.1,0,0.2,0,0.3,0c0,0.1,0,0.2,0.1,0.3
	c0,0.1,0.1,0.1,0.1,0.2C16.9,23.7,16.3,24.1,15.5,24.5z M19,27.4c-0.7,1.7-1.7,2.3-1.9,2.3c-0.2-0.1-0.5-1.2,0.2-3
	c0.4-0.9,0.9-1.6,1.3-2c0.1,0.1,0.3,0.2,0.4,0.2s0.2,0.1,0.4,0.1C19.4,25.7,19.3,26.5,19,27.4z M19.8,23c-0.3-0.1-0.6-0.4-0.7-0.7
	s-0.1-0.7,0-1s0.4-0.6,0.7-0.7c0.2-0.1,0.3-0.1,0.5-0.1s0.3,0,0.5,0.1c0.3,0.1,0.6,0.4,0.7,0.7c0.1,0.3,0.1,0.7,0,1
	C21.3,22.9,20.5,23.2,19.8,23z M21.4,25.1c0.1,0,0.3-0.1,0.4-0.2c0.4,0.3,0.9,0.8,1.2,1.7c0.6,1.4,0.4,2.3,0.4,2.5
	c-0.2,0-1-0.6-1.6-1.9C21.4,26.3,21.4,25.5,21.4,25.1z M84.5,77.1v6.5H14.8v-6.5H84.5z M17.8,75.1v-3.9h63.8v3.9H17.8z M84.5,62.7
	v6.5H14.8v-6.5C14.8,62.7,84.5,62.7,84.5,62.7z M17.8,60.7v-3.9h63.8v3.9H17.8z M84.5,48.3v6.5H14.8v-6.5H84.5z M83.5,27.1
	L83.5,27.1c-0.2,0-1-0.6-1.6-1.9c-0.4-0.8-0.5-1.6-0.4-2.1c0.1,0,0.2,0,0.3-0.1c0.1,0,0.1-0.1,0.1-0.1c0.4,0.3,0.9,0.8,1.2,1.7
	C83.7,26,83.6,27,83.5,27.1z M85.4,22.7c-0.9-0.4-1.6-0.9-2-1.3c0.1-0.1,0.1-0.3,0.2-0.4c0-0.1,0.1-0.3,0.1-0.4
	c0.6-0.1,1.4,0,2.3,0.4c1.7,0.7,2.3,1.7,2.3,1.9C88.2,23.1,87.1,23.4,85.4,22.7z"/>
</svg>
