<?xml version="1.0" encoding="utf-8"?>
<!-- Generator: Adobe Illustrator 21.1.0, SVG Export Plug-In . SVG Version: 6.00 Build 0)  -->
<svg version="1.1" id="Calque_1" xmlns="http://www.w3.org/2000/svg" xmlns:xlink="http://www.w3.org/1999/xlink" x="0px" y="0px"
	 viewBox="0 0 100 125" style="enable-background:new 0 0 100 125;" xml:space="preserve">
<style type="text/css">
	.st0{fill:#FFBBEF;}
</style>
<circle class="st0" cx="19.8" cy="82" r="1.2"/>
<circle class="st0" cx="19.8" cy="60.2" r="1.2"/>
<circle class="st0" cx="80.4" cy="60.2" r="1.2"/>
<circle class="st0" cx="80.4" cy="82" r="1.2"/>
<path class="st0" d="M16.3,27.6c-0.8,0.5-1.5,1-2.1,1.6c-0.8,1-1.1,2-0.7,2.9c0.4,1,1.5,1.5,2.9,1.5c0.7,0,1.4-0.1,2.2-0.4
	c-0.4,1.2-0.6,2.3-0.5,3.4c0.1,1.4,0.7,2.4,1.7,2.7c0.3,0.1,0.5,0.2,0.8,0.2c0.7,0,1.5-0.3,2.3-1c0.3-0.3,0.6-0.6,0.8-0.9v6.7
	c-2.5-2.2-6.7-1.6-6.8-1.5c-0.4,0.1-0.8,0.4-0.8,0.8c0,0.2-0.7,4.6,1.7,7c1.5,1.5,3.8,1.8,5.4,1.8c0.2,0,0.4,0,0.6,0V55h-9.3
	c-0.6,0-1,0.4-1,1v8.5c0,0.6,0.4,1,1,1h2v11.2h-2c-0.6,0-1,0.4-1,1v8.5c0,0.6,0.4,1,1,1H86c0.6,0,1-0.4,1-1v-8.5c0-0.6-0.4-1-1-1
	h-1.9V65.5H86c0.6,0,1-0.4,1-1V56c0-0.6-0.4-1-1-1h-8.7v-2.7c0.2,0,0.5,0,0.8,0c1.6,0,3.8-0.3,5.4-1.8c2.4-2.4,1.7-6.8,1.7-7
	c-0.1-0.4-0.4-0.8-0.8-0.8c-0.2,0-4.6-0.7-7,1.7c0,0,0,0,0,0.1V37c0.2,0.3,0.5,0.5,0.7,0.7c0.7,0.6,1.4,0.9,2,0.9
	c0.3,0,0.6-0.1,0.8-0.2c0.9-0.4,1.4-1.3,1.5-2.6c0-0.8-0.1-1.7-0.4-2.6c1,0.3,2,0.5,2.9,0.5c0.2,0,0.3,0,0.5,0
	c1.4-0.1,2.4-0.7,2.7-1.7c0.4-1,0.1-2-0.9-3.1c-0.7-0.8-1.7-1.4-2.8-2c2.2-1.2,3.4-3,2.8-4.5c-0.4-0.9-1.3-1.4-2.6-1.5
	c-0.8,0-1.7,0.1-2.5,0.4c0.4-1.2,0.6-2.4,0.5-3.4c-0.1-1.4-0.7-2.4-1.7-2.7c-1.7-0.7-3.8,0.9-5.1,3.7c-0.5-0.8-1-1.6-1.6-2.1
	c-1-0.8-2-1.1-2.9-0.7c-1.5,0.6-1.9,2.8-1.1,5.2c-2.9-1-5.4-0.6-6.1,1.1c-0.4,0.9-0.1,2,0.9,3.1c0.7,0.8,1.7,1.4,2.8,1.9
	c-2.2,1.2-3.4,3.1-2.8,4.5c0.4,1,1.5,1.5,2.9,1.5c0.7,0,1.4-0.1,2.2-0.4c-0.4,1.2-0.6,2.3-0.5,3.4c0.1,1.4,0.7,2.4,1.7,2.7
	c0.3,0.1,0.5,0.2,0.8,0.2c0.7,0,1.5-0.3,2.3-1c0.3-0.3,0.6-0.6,0.8-0.9V44c-2.5-2-6.4-1.3-6.6-1.3c-0.4,0.1-0.8,0.4-0.8,0.8
	c0,0.2-0.7,4.6,1.7,7c1.5,1.5,3.8,1.8,5.4,1.8c0.1,0,0.2,0,0.4,0V55H51.5v-2.7c0.2,0,0.5,0,0.7,0c1.6,0,3.8-0.3,5.4-1.8
	c2.4-2.4,1.7-6.8,1.7-7c-0.1-0.4-0.4-0.8-0.8-0.8c-0.2,0-4.5-0.7-7,1.6V37c0.2,0.3,0.5,0.5,0.7,0.7c0.7,0.6,1.4,0.9,2,0.9
	c0.3,0,0.6-0.1,0.8-0.2c0.9-0.4,1.4-1.3,1.5-2.6c0-0.8-0.1-1.7-0.4-2.6c1,0.4,2,0.5,2.9,0.5c1.6,0,2.8-0.6,3.3-1.7
	c0.7-1.7-0.9-3.8-3.7-5c0.8-0.5,1.6-1,2.1-1.6c0.8-1,1.1-2,0.7-2.9c-0.4-0.9-1.3-1.4-2.6-1.5c-0.8,0-1.7,0.1-2.5,0.4
	c0.4-1.2,0.6-2.4,0.5-3.4c-0.1-1.4-0.7-2.4-1.7-2.7c-1.7-0.7-3.8,0.9-5.1,3.7c-0.5-0.8-1-1.6-1.6-2.1c-1-0.8-2-1.1-2.9-0.7
	c-1.5,0.6-1.9,2.8-1.1,5.2C43.2,21,42,20.8,41,20.9c-1.4,0.1-2.4,0.7-2.7,1.6c-0.4,0.9-0.1,2,0.9,3.1c0.7,0.7,1.7,1.4,2.8,1.9
	c-0.8,0.5-1.5,1-2.1,1.6c-0.8,1-1.1,2-0.7,2.9c0.4,0.9,1.3,1.4,2.6,1.5c0.1,0,0.2,0,0.3,0c0.7,0,1.5-0.1,2.2-0.4
	c-1,2.9-0.5,5.4,1.2,6.1c0.3,0.1,0.5,0.2,0.8,0.2c0.7,0,1.5-0.3,2.3-1c0.3-0.3,0.6-0.6,0.8-0.9v6.6c-2.5-2.1-6.5-1.5-6.7-1.4
	c-0.4,0.1-0.8,0.4-0.8,0.8c0,0.2-0.7,4.6,1.7,7c1.5,1.5,3.8,1.8,5.4,1.8c0.2,0,0.3,0,0.5,0V55H25.7v-2.7c0.2,0,0.4,0,0.6,0
	c1.6,0,3.8-0.3,5.4-1.8c2.4-2.4,1.7-6.8,1.7-7c-0.1-0.4-0.4-0.8-0.8-0.8c-0.2,0-4.4-0.7-6.8,1.5V37c0.2,0.3,0.5,0.5,0.7,0.7
	c0.7,0.6,1.4,0.9,2,0.9c0.3,0,0.6-0.1,0.8-0.2c0.9-0.4,1.4-1.3,1.5-2.6c0-0.8-0.1-1.7-0.4-2.6c1,0.3,2,0.5,2.9,0.5
	c0.2,0,0.4,0,0.5,0c1.4-0.1,2.4-0.7,2.7-1.7c0.4-1,0.1-2-0.9-3.1c-0.7-0.8-1.7-1.4-2.8-2c2.2-1.2,3.4-3,2.8-4.5
	c-0.4-0.9-1.3-1.4-2.6-1.5c-0.8,0-1.7,0.1-2.5,0.4c0.4-1.2,0.6-2.4,0.5-3.4c-0.1-1.4-0.7-2.4-1.7-2.7c-1.7-0.7-3.8,0.9-5.1,3.7
	c-0.5-0.8-1-1.6-1.6-2.1c-1-0.8-2-1.1-2.9-0.7c-1.5,0.6-1.9,2.8-1.1,5.2c-2.9-1-5.4-0.6-6.1,1.1c-0.4,0.9-0.1,2,0.9,3.1
	C14.2,26.4,15.1,27,16.3,27.6z M78.8,45.7c1.2-1.2,3.4-1.3,4.5-1.2c0.1,1.1,0,3.3-1.2,4.5s-3.4,1.3-4.5,1.2
	C77.5,49.1,77.6,47,78.8,45.7z M52.9,45.7c1.2-1.2,3.4-1.3,4.5-1.2c0.1,1.1,0,3.3-1.2,4.5s-3.4,1.3-4.5,1.2
	C51.6,49.1,51.7,47,52.9,45.7z M26.9,45.7c1.2-1.2,3.4-1.3,4.5-1.2c0.1,1.1,0,3.3-1.2,4.5s-3.4,1.3-4.5,1.2
	C25.7,49.1,25.7,47,26.9,45.7z M18.7,31c-1.9,0.8-3.3,0.5-3.4,0.3c0-0.1,0-0.4,0.4-0.8c0.5-0.6,1.2-1.1,2.1-1.5s1.7-0.5,2.3-0.5
	c0.2,0,0.4,0,0.5,0c0,0.2,0.1,0.3,0.1,0.5c0,0.1,0.1,0.2,0.2,0.3C20.7,29.8,19.9,30.5,18.7,31z M23.1,34.5c-0.4,1-1,1.9-1.6,2.5
	c-0.5,0.4-0.9,0.5-1,0.5c-0.2-0.1-0.4-0.4-0.4-1c-0.1-0.8,0.1-1.9,0.5-2.9c0.5-1.3,1.2-2.2,1.8-2.6c0.2,0.1,0.4,0.2,0.6,0.3
	c0.2,0.1,0.4,0.1,0.5,0.2C23.7,32,23.7,33.2,23.1,34.5z M23.7,50.3c-1.1,0.1-3.3,0-4.5-1.2s-1.3-3.4-1.2-4.5c1.1-0.1,3.3,0,4.5,1.2
	c1.1,1.1,1.2,2.8,1.2,4l0,0C23.7,50,23.7,50.1,23.7,50.3z M85,78.7v6.5H15.4v-6.5H85z M76.8,71l5.3-5v10L76.8,71z M80,76.7h-9.2
	l4.6-4.4L80,76.7z M75.4,69.6L71,65.5h8.7L75.4,69.6z M73.9,71l-4.8,4.5L64.4,71l4.8-4.5L73.9,71z M67.5,76.7h-9.2l4.6-4.4
	L67.5,76.7z M62.9,69.6l-4.4-4.1h8.7L62.9,69.6z M61.4,71l-4.8,4.5L51.9,71l4.8-4.5L61.4,71z M55.1,76.7h-9.2l4.6-4.4L55.1,76.7z
	 M50.5,69.6l-4.4-4.1h8.7L50.5,69.6z M49,71l-4.8,4.5L39.5,71l4.8-4.5L49,71z M42.6,76.7h-9.2l4.6-4.4L42.6,76.7z M38,69.6l-4.4-4.1
	h8.7L38,69.6z M36.6,71l-4.8,4.5L27,71l4.8-4.5L36.6,71z M30.2,76.7H21l4.6-4.4L30.2,76.7z M25.6,69.6l-4.4-4.1h8.7L25.6,69.6z
	 M24.1,71l-5.7,5.4V65.6L24.1,71z M80.2,36.6c-0.1,0-0.4,0-0.8-0.4c-0.6-0.5-1.1-1.2-1.5-2.1c-0.5-1.2-0.6-2.3-0.5-2.9
	c0.3-0.1,0.5-0.2,0.7-0.3c0.5,0.3,1.2,1.1,1.8,2.3c0.4,0.9,0.6,1.8,0.5,2.5C80.4,36.3,80.2,36.6,80.2,36.6z M85.8,30.4
	c0.4,0.5,0.5,0.9,0.5,1c-0.1,0.2-0.4,0.4-1,0.4c-0.8,0.1-1.9-0.1-2.9-0.5c-1.3-0.5-2.2-1.2-2.6-1.8c0.1-0.2,0.2-0.4,0.3-0.6
	c0.1-0.2,0.1-0.4,0.2-0.6c0.7-0.1,1.9,0,3.2,0.5C84.4,29.2,85.3,29.7,85.8,30.4z M82.1,23.7c0.9-0.4,1.8-0.6,2.5-0.5
	c0.6,0,0.8,0.2,0.8,0.2c0.1,0.2-0.6,1.4-2.5,2.2c-1.2,0.5-2.2,0.6-2.8,0.5c-0.1-0.3-0.2-0.5-0.3-0.7C80.1,24.8,80.9,24.2,82.1,23.7z
	 M77.7,20.2c0.8-2.1,2.1-3,2.5-3h0.1c0.2,0.1,0.4,0.4,0.4,1c0.1,0.8-0.1,1.9-0.5,2.9c-0.5,1.3-1.3,2.2-1.9,2.7
	c-0.2-0.1-0.4-0.2-0.6-0.3c-0.2-0.1-0.4-0.1-0.6-0.2C77,22.7,77.1,21.5,77.7,20.2z M72.2,18.1C72.2,18.1,72.3,18.1,72.2,18.1
	c0.2,0,0.4,0.1,0.8,0.4c0.6,0.5,1.1,1.2,1.5,2.1c0.5,1.2,0.6,2.3,0.5,2.9c-0.1,0-0.2,0.1-0.4,0.1c-0.1,0.1-0.2,0.1-0.4,0.2
	c-0.5-0.3-1.2-1.1-1.8-2.3C71.7,19.5,72,18.2,72.2,18.1z M66.6,24.3c-0.5-0.5-0.5-0.9-0.5-1c0.1-0.2,0.6-0.4,1.4-0.4
	c0.7,0,1.5,0.1,2.6,0.5c1.3,0.5,2.2,1.3,2.7,1.8c-0.1,0.2-0.2,0.3-0.3,0.5c-0.1,0.2-0.1,0.4-0.2,0.5c-0.7,0.1-1.9,0-3.2-0.5
	C68.1,25.5,67.2,24.9,66.6,24.3z M70.4,31c-1.9,0.8-3.3,0.5-3.4,0.3c-0.1-0.3,0.6-1.4,2.5-2.3c0.9-0.4,1.7-0.5,2.3-0.5
	c0.2,0,0.4,0,0.5,0c0.1,0.3,0.2,0.5,0.3,0.8C72.3,29.8,71.5,30.5,70.4,31z M74.8,34.5c-0.4,1-1,1.9-1.6,2.5c-0.5,0.4-0.9,0.5-1,0.5
	c-0.2-0.1-0.4-0.4-0.4-1c-0.1-0.8,0.1-1.9,0.5-2.9c0.5-1.3,1.2-2.2,1.8-2.6c0.2,0.1,0.4,0.2,0.6,0.3c0.2,0.1,0.4,0.1,0.5,0.2
	C75.4,32,75.3,33.2,74.8,34.5z M74.5,26.7c0.2-0.5,0.5-0.8,1-1c0.2-0.1,0.5-0.2,0.7-0.2s0.5,0,0.7,0.1l0,0c0.5,0.2,0.8,0.5,1,1
	s0.2,1,0,1.4c-0.4,1-1.5,1.4-2.4,1.1C74.6,28.7,74.1,27.6,74.5,26.7z M71,49.1c-1.2-1.2-1.3-3.4-1.2-4.5c1.1-0.1,3.3,0,4.5,1.2
	c0.5,0.5,0.8,1.2,1,1.9v2.6C74.2,50.3,72.2,50.2,71,49.1z M54.3,36.6c-0.1,0-0.4,0-0.8-0.4c-0.6-0.5-1.1-1.2-1.5-2.1
	c-0.5-1.2-0.6-2.3-0.5-2.9c0.3-0.1,0.5-0.2,0.7-0.3c0.5,0.3,1.2,1.1,1.8,2.3c0.4,0.9,0.6,1.8,0.5,2.5C54.6,36.3,54.4,36.6,54.3,36.6
	z M60.5,31.4c-0.2,0.4-1.8,0.7-3.9-0.1c-1.3-0.5-2.2-1.2-2.6-1.8c0.1-0.2,0.2-0.4,0.3-0.6s0.1-0.4,0.2-0.6c0.7-0.1,1.9,0,3.2,0.5
	C59.8,29.6,60.6,31,60.5,31.4z M56.3,23.7c0.9-0.4,1.8-0.6,2.5-0.5c0.6,0,0.8,0.2,0.8,0.2c0,0.1,0,0.3-0.4,0.8
	c-0.5,0.5-1.2,1.1-2.1,1.5c-1.2,0.5-2.2,0.6-2.8,0.5c0-0.1-0.1-0.3-0.1-0.4c-0.1-0.1-0.1-0.2-0.2-0.4C54.3,24.8,55.1,24.2,56.3,23.7
	z M51.8,20.2c0.8-2,2-3,2.5-3h0.1c0.2,0.1,0.4,0.4,0.4,1c0.1,0.8-0.1,1.9-0.5,2.9c-0.5,1.3-1.3,2.2-1.9,2.7
	c-0.2-0.1-0.4-0.2-0.6-0.3c-0.2-0.1-0.4-0.1-0.6-0.2C51.2,22.7,51.3,21.5,51.8,20.2z M46.4,18.1L46.4,18.1c0.2,0,0.4,0.1,0.8,0.4
	c0.6,0.5,1.1,1.2,1.5,2.1c0.5,1.2,0.6,2.3,0.5,2.9c-0.1,0-0.2,0.1-0.4,0.1c-0.1,0.1-0.2,0.1-0.4,0.2c-0.5-0.3-1.2-1.1-1.8-2.3
	C45.8,19.5,46.1,18.2,46.4,18.1z M40.8,24.3c-0.5-0.5-0.5-0.9-0.5-1s0.4-0.3,1-0.4c0.1,0,0.2,0,0.3,0c0.8,0,1.7,0.2,2.6,0.5
	c1.3,0.5,2.2,1.3,2.7,1.8c-0.1,0.2-0.2,0.3-0.3,0.5s-0.1,0.4-0.2,0.5c-0.7,0.1-1.9,0-3.2-0.5C42.2,25.5,41.3,24.9,40.8,24.3z
	 M44.5,31c-0.9,0.4-1.8,0.6-2.5,0.5c-0.6,0-0.8-0.2-0.9-0.3c0-0.1,0-0.4,0.4-0.8c0.5-0.6,1.2-1.1,2.1-1.5c0.9-0.4,1.7-0.5,2.3-0.5
	c0.2,0,0.4,0,0.5,0c0.1,0.3,0.2,0.5,0.3,0.8C46.5,29.8,45.7,30.5,44.5,31z M49,34.5c-0.4,1-1,1.9-1.6,2.5c-0.5,0.4-0.9,0.5-1,0.5
	c-0.4-0.1-0.8-1.7,0.1-3.9c0.5-1.3,1.2-2.2,1.8-2.6c0.2,0.1,0.4,0.2,0.6,0.3c0.2,0.1,0.4,0.1,0.5,0.2C49.6,32,49.5,33.2,49,34.5z
	 M48.7,26.7c0.2-0.5,0.5-0.8,1-1c0.2-0.1,0.5-0.2,0.7-0.2s0.5,0,0.7,0.1l0,0c0.5,0.2,0.8,0.5,1,1s0.2,1,0,1.4c-0.2,0.5-0.5,0.8-1,1
	s-1,0.2-1.4,0C48.8,28.7,48.3,27.6,48.7,26.7z M45.1,49.1c-1.2-1.2-1.3-3.4-1.2-4.5c1.1-0.1,3.3,0,4.5,1.2c0.6,0.6,1,1.6,1.1,2.4
	v2.1C48.4,50.3,46.3,50.2,45.1,49.1z M85,57v6.5H15.4V57H85z M28.5,36.6c-0.1,0-0.4,0-0.8-0.4c-0.6-0.5-1.1-1.2-1.5-2.1
	c-0.5-1.2-0.6-2.3-0.5-2.9c0.3-0.1,0.5-0.2,0.7-0.3c0.5,0.3,1.2,1.1,1.8,2.3c0.4,0.9,0.6,1.8,0.5,2.5C28.7,36.3,28.6,36.6,28.5,36.6
	z M34.2,30.4c0.4,0.5,0.5,0.9,0.5,1c-0.1,0.2-0.4,0.4-1,0.4c-0.8,0.1-1.9-0.1-2.9-0.5c-1.3-0.5-2.2-1.2-2.6-1.8
	c0.1-0.2,0.2-0.4,0.3-0.6c0.1-0.2,0.1-0.4,0.2-0.6c0.7-0.1,1.9,0,3.2,0.5C32.7,29.2,33.6,29.7,34.2,30.4z M30.4,23.7
	c0.9-0.4,1.8-0.6,2.5-0.5c0.6,0,0.8,0.2,0.8,0.2c0.1,0.2-0.6,1.4-2.5,2.2c-1.2,0.5-2.2,0.6-2.8,0.5c-0.1-0.3-0.2-0.5-0.3-0.7
	C28.5,24.8,29.3,24.2,30.4,23.7z M26,20.2c0.8-2.1,2.1-3,2.5-3h0.1c0.2,0.1,0.4,0.4,0.4,1c0.1,0.8-0.1,1.9-0.5,2.9
	c-0.5,1.3-1.3,2.2-1.9,2.7c-0.2-0.1-0.4-0.2-0.6-0.3c-0.2-0.1-0.4-0.1-0.6-0.2C25.4,22.7,25.5,21.5,26,20.2z M24.6,25.5
	c0.2,0,0.5,0,0.7,0.1l0,0c1,0.4,1.4,1.5,1.1,2.4c-0.4,1-1.5,1.4-2.4,1.1c-0.5-0.2-0.8-0.5-1-1s-0.2-1,0-1.4c0.2-0.5,0.5-0.8,1-1
	C24.1,25.5,24.3,25.5,24.6,25.5z M20.6,18.1L20.6,18.1c0.2,0,0.4,0.1,0.8,0.4c0.6,0.5,1.1,1.2,1.5,2.1c0.5,1.2,0.6,2.3,0.5,2.9
	c-0.1,0-0.2,0.1-0.4,0.1c-0.1,0.1-0.2,0.1-0.4,0.2c-0.5-0.3-1.2-1.1-1.8-2.3C20,19.5,20.3,18.2,20.6,18.1z M14.5,23.3
	c0.1-0.2,0.6-0.4,1.4-0.4c0.7,0,1.5,0.1,2.6,0.5c1.3,0.5,2.2,1.3,2.7,1.8c-0.1,0.2-0.2,0.3-0.3,0.5c-0.1,0.2-0.1,0.4-0.2,0.5
	c-0.7,0.1-1.9,0-3.2-0.5c-1-0.4-1.9-1-2.5-1.6C14.5,23.8,14.4,23.4,14.5,23.3z"/>
</svg>
