<?xml version="1.0" encoding="utf-8"?>
<!-- Generator: Adobe Illustrator 21.1.0, SVG Export Plug-In . SVG Version: 6.00 Build 0)  -->
<svg version="1.1" id="Calque_1" xmlns="http://www.w3.org/2000/svg" xmlns:xlink="http://www.w3.org/1999/xlink" x="0px" y="0px"
	 viewBox="0 0 100 125" style="enable-background:new 0 0 100 125;" xml:space="preserve">
<style type="text/css">
	.st0{fill:#FFBBEF;}
</style>
<circle class="st0" cx="19.8" cy="51.9" r="1.2"/>
<circle class="st0" cx="19.8" cy="80.6" r="1.2"/>
<circle class="st0" cx="80.4" cy="51.9" r="1.2"/>
<circle class="st0" cx="80.4" cy="80.6" r="1.2"/>
<path class="st0" d="M15.6,26.2c-2.2,1.2-3.4,3.1-2.8,4.5c0.4,1,1.5,1.5,2.9,1.5c0.7,0,1.4-0.1,2.2-0.4c-1,2.9-0.5,5.4,1.2,6.1
	C19.4,38,19.7,38,20,38c1,0,2.2-0.7,3.1-1.9v10.5h-8.6c-0.6,0-1,0.4-1,1v8.5c0,0.6,0.4,1,1,1h2v18.2h-2c-0.6,0-1,0.4-1,1v8.5
	c0,0.6,0.4,1,1,1h71.6c0.6,0,1-0.4,1-1v-8.5c0-0.6-0.4-1-1-1h-1.9V57.1h1.9c0.6,0,1-0.4,1-1v-8.5c0-0.6-0.4-1-1-1h-9.3V35.7
	c0.9,1,1.9,1.6,2.8,1.6c0.3,0,0.6-0.1,0.8-0.2c1.5-0.6,1.9-2.8,1.1-5.2c1,0.4,2,0.5,2.9,0.5c1.6,0,2.8-0.6,3.3-1.7
	c0.7-1.7-0.9-3.8-3.7-5c0.8-0.5,1.6-1,2.1-1.6c0.8-1,1.1-2,0.7-2.9s-1.3-1.4-2.6-1.5c-0.8,0-1.7,0.1-2.6,0.4c1-2.9,0.6-5.5-1.1-6.1
	c-1.7-0.7-3.8,0.9-5.1,3.7c-1.2-2.2-3.1-3.4-4.5-2.8c-1.5,0.6-1.9,2.8-1.1,5.2c-2.9-1-5.4-0.6-6.1,1.1c-0.7,1.7,0.9,3.8,3.7,5
	c-2.2,1.2-3.4,3-2.7,4.5c0.4,1,1.5,1.5,2.9,1.5c0.7,0,1.4-0.1,2.2-0.4c-1,2.9-0.5,5.4,1.2,6.1c0.3,0.1,0.5,0.2,0.8,0.2
	c1,0,2.2-0.7,3.1-1.9v10.5h-24v-11c0.9,1,1.9,1.6,2.8,1.6c0.3,0,0.6-0.1,0.8-0.2c1.5-0.6,1.9-2.8,1.1-5.2c1,0.4,2,0.5,2.9,0.5
	c1.6,0,2.8-0.6,3.3-1.7c0.7-1.7-0.9-3.8-3.7-5c2.2-1.2,3.4-3,2.8-4.5c-0.4-0.9-1.3-1.4-2.6-1.5c-0.8,0-1.7,0.1-2.6,0.4
	c1-2.9,0.6-5.5-1.1-6.1c-1.7-0.7-3.8,0.9-5.1,3.7c-1.2-2.2-3.1-3.4-4.5-2.8c-1.5,0.6-1.9,2.8-1.1,5.2c-2.9-1-5.4-0.6-6.1,1.1
	c-0.4,0.9-0.1,2,0.9,3.1c0.7,0.8,1.7,1.4,2.8,1.9c-2.2,1.2-3.4,3.1-2.8,4.5c0.4,0.9,1.3,1.4,2.6,1.5c0.1,0,0.2,0,0.3,0
	c0.7,0,1.5-0.1,2.2-0.4c-1,2.9-0.5,5.4,1.2,6.1c0.3,0.1,0.5,0.2,0.8,0.2c1,0,2.2-0.7,3.1-1.9v10.5H25.1v-11c0.9,1,1.9,1.6,2.8,1.6
	c0.3,0,0.6-0.1,0.8-0.2c1.5-0.6,1.9-2.8,1.1-5.2c1,0.4,2,0.5,2.9,0.5c1.6,0,2.8-0.6,3.3-1.7c0.7-1.7-0.9-3.8-3.7-5
	c2.2-1.2,3.4-3,2.8-4.5c-0.4-0.9-1.3-1.4-2.6-1.5c-0.8,0-1.7,0.1-2.6,0.4c1-2.9,0.6-5.5-1.1-6.1c-1.7-0.7-3.8,0.9-5.1,3.7
	c-1.2-2.2-3.1-3.4-4.5-2.8c-1.5,0.6-1.9,2.8-1.1,5.2c-2.9-1-5.4-0.6-6.1,1.1c-0.4,0.9-0.1,2,0.9,3.1C13.5,25,14.5,25.7,15.6,26.2z
	 M18.1,29.6c-1.9,0.8-3.3,0.5-3.4,0.3c-0.1-0.3,0.6-1.4,2.5-2.3c0.9-0.4,1.7-0.5,2.3-0.5c0.2,0,0.4,0,0.5,0c0.1,0.3,0.2,0.5,0.3,0.8
	C20,28.4,19.2,29.1,18.1,29.6z M22.5,33.1c-0.9,2.2-2.3,3.1-2.6,3c-0.4-0.2-0.7-1.8,0.1-3.9c0.5-1.3,1.2-2.2,1.8-2.6
	c0.2,0.1,0.4,0.2,0.6,0.3c0.2,0.1,0.4,0.1,0.5,0.2C23.1,30.6,23,31.8,22.5,33.1z M85.1,77.4v6.5H15.4v-6.5H85.1z M18.4,75.4V57.1
	h63.8v18.2L18.4,75.4L18.4,75.4z M79.5,35.3c-0.3,0.1-1.4-0.6-2.3-2.5c-0.5-1.2-0.6-2.3-0.5-2.9c0.3-0.1,0.5-0.2,0.7-0.3
	c0.5,0.3,1.2,1.1,1.8,2.3C80.1,33.8,79.8,35.1,79.5,35.3z M85.7,30c-0.1,0.4-1.7,0.8-3.9-0.1c-1.3-0.5-2.2-1.2-2.6-1.8
	c0.1-0.2,0.2-0.4,0.3-0.6c0.1-0.2,0.1-0.4,0.2-0.6c0.7-0.1,1.9,0,3.2,0.5C84.8,28.2,85.8,29.6,85.7,30z M81.4,22.3
	c0.9-0.4,1.8-0.6,2.5-0.5c0.6,0,0.8,0.2,0.8,0.2c0,0.1,0,0.3-0.4,0.8c-0.5,0.5-1.2,1.1-2.1,1.5c-1.2,0.5-2.2,0.6-2.8,0.5
	c-0.1-0.3-0.2-0.5-0.3-0.7C79.5,23.5,80.3,22.8,81.4,22.3z M77,18.8c0.8-2.1,2.1-3,2.5-3h0.1c0.4,0.2,0.7,1.8-0.1,3.9
	c-0.5,1.3-1.3,2.2-1.9,2.7c-0.2-0.1-0.4-0.2-0.6-0.3c-0.2-0.1-0.4-0.1-0.6-0.2C76.4,21.3,76.5,20.1,77,18.8z M71.6,16.7L71.6,16.7
	c0.4,0,1.5,0.7,2.3,2.5c0.5,1.2,0.6,2.3,0.5,2.9c-0.3,0.1-0.5,0.2-0.7,0.3c-0.5-0.3-1.2-1.1-1.8-2.3C71,18.2,71.3,16.8,71.6,16.7z
	 M65.5,21.9c0.1-0.2,0.6-0.4,1.4-0.4c0.7,0,1.5,0.1,2.6,0.5c1.3,0.5,2.2,1.3,2.7,1.9c-0.1,0.2-0.2,0.3-0.3,0.5
	c-0.1,0.2-0.1,0.4-0.2,0.5c-0.7,0.1-1.9,0-3.2-0.5C66.2,23.6,65.3,22.3,65.5,21.9z M69.7,29.6c-1.9,0.8-3.3,0.5-3.4,0.3
	s0.6-1.4,2.5-2.3c0.9-0.4,1.7-0.5,2.3-0.5c0.2,0,0.4,0,0.5,0c0,0.2,0.1,0.3,0.1,0.5c0,0.1,0.1,0.2,0.2,0.3
	C71.7,28.4,70.9,29.1,69.7,29.6z M74.2,33.1c-0.9,2.2-2.3,3.1-2.6,3c-0.4-0.2-0.7-1.8,0.1-3.9c0.5-1.3,1.2-2.2,1.8-2.6
	c0.2,0.1,0.4,0.2,0.6,0.3c0.2,0.1,0.4,0.1,0.5,0.2C74.8,30.6,74.7,31.8,74.2,33.1z M73.9,26.7c-0.2-0.5-0.2-1,0-1.4
	c0.3-0.7,1-1.2,1.7-1.2c0.2,0,0.5,0,0.7,0.1c0.5,0.2,0.8,0.5,1,1s0.2,1,0,1.4c-0.4,1-1.5,1.4-2.4,1.1C74.4,27.5,74.1,27.2,73.9,26.7
	z M53.7,35.3c-0.3,0.1-1.4-0.6-2.3-2.5c-0.5-1.2-0.6-2.3-0.5-2.9c0.3-0.1,0.5-0.2,0.7-0.3c0.5,0.3,1.2,1.1,1.8,2.3
	C54.3,33.8,53.9,35.1,53.7,35.3z M59.8,30c-0.1,0.4-1.7,0.8-3.9-0.1c-1.3-0.5-2.2-1.2-2.6-1.8c0.1-0.2,0.2-0.4,0.3-0.6
	s0.1-0.4,0.2-0.6c0.7-0.1,1.9,0,3.2,0.5C59,28.2,60,29.6,59.8,30z M55.6,22.3c0.9-0.4,1.8-0.6,2.5-0.5c0.6,0,0.8,0.2,0.8,0.2
	c0.1,0.2-0.6,1.4-2.5,2.2c-1.2,0.5-2.2,0.6-2.8,0.5c0-0.1-0.1-0.3-0.1-0.4c-0.1-0.1-0.1-0.2-0.2-0.4C53.7,23.5,54.5,22.8,55.6,22.3z
	 M51.2,18.8c0.8-2.1,2.1-3,2.5-3h0.1c0.4,0.1,0.8,1.7-0.1,3.9c-0.5,1.3-1.3,2.2-1.9,2.7c-0.2-0.1-0.4-0.2-0.6-0.3
	C51,22,50.8,22,50.6,21.9C50.6,21.3,50.7,20.1,51.2,18.8z M45.8,16.7L45.8,16.7c0.4,0,1.5,0.7,2.3,2.5c0.5,1.2,0.6,2.3,0.5,2.9
	c-0.3,0.1-0.5,0.2-0.7,0.3c-0.5-0.3-1.2-1.1-1.8-2.3C45.2,18.2,45.5,16.8,45.8,16.7z M40.1,22.9c-0.5-0.5-0.5-0.9-0.5-1
	c0.1-0.2,0.6-0.4,1.4-0.4c0.7,0,1.5,0.1,2.6,0.5c1.3,0.5,2.2,1.3,2.7,1.9c-0.1,0.2-0.2,0.3-0.3,0.5s-0.1,0.4-0.2,0.5
	c-0.7,0.1-1.9,0-3.2-0.5C41.6,24.1,40.7,23.5,40.1,22.9z M43.9,29.6c-0.9,0.4-1.8,0.6-2.5,0.5c-0.6,0-0.8-0.2-0.9-0.3
	c-0.1-0.3,0.6-1.4,2.5-2.3c0.9-0.4,1.7-0.5,2.3-0.5c0.2,0,0.4,0,0.5,0c0.1,0.3,0.2,0.5,0.3,0.8C45.9,28.4,45.1,29.1,43.9,29.6z
	 M48.3,33.1c-0.9,2.2-2.3,3.1-2.6,3c-0.4-0.1-0.8-1.7,0.1-3.9c0.5-1.3,1.2-2.2,1.8-2.6c0.2,0.1,0.4,0.2,0.6,0.3
	c0.2,0.1,0.4,0.1,0.5,0.2C48.9,30.6,48.8,31.8,48.3,33.1z M48,25.3c0.3-0.7,1-1.2,1.7-1.2c0.2,0,0.5,0,0.7,0.1c0.5,0.2,0.8,0.5,1,1
	s0.2,1,0,1.4c-0.4,1-1.5,1.4-2.4,1.1C48.1,27.3,47.6,26.2,48,25.3z M85.1,48.6v6.5H15.4v-6.5H85.1z M27.9,35.3
	c-0.3,0.1-1.4-0.6-2.3-2.5c-0.5-1.2-0.6-2.3-0.5-2.9c0.3-0.1,0.5-0.2,0.7-0.3c0.5,0.3,1.2,1.1,1.8,2.3
	C28.4,33.8,28.1,35.1,27.9,35.3z M34,30c-0.1,0.4-1.7,0.8-3.9-0.1c-1.3-0.5-2.2-1.2-2.6-1.8c0.1-0.2,0.2-0.4,0.3-0.6
	c0.1-0.2,0.1-0.4,0.2-0.6c0.7-0.1,1.9,0,3.2,0.5C33.2,28.2,34.2,29.6,34,30z M29.8,22.3c0.9-0.4,1.8-0.6,2.5-0.5
	c0.6,0,0.8,0.2,0.8,0.2c0.1,0.2-0.6,1.4-2.5,2.2c-1.2,0.5-2.2,0.6-2.8,0.5c-0.1-0.3-0.2-0.5-0.3-0.7C27.8,23.5,28.6,22.8,29.8,22.3z
	 M25.4,18.8c0.8-2.1,2.1-3,2.5-3H28c0.4,0.2,0.7,1.8-0.1,3.9c-0.5,1.3-1.3,2.2-1.9,2.7c-0.2-0.1-0.4-0.2-0.6-0.3
	C25.2,22,25,22,24.8,21.9C24.7,21.3,24.8,20.1,25.4,18.8z M23.9,24.1c0.2,0,0.5,0,0.7,0.1c1,0.4,1.4,1.5,1.1,2.4
	c-0.4,1-1.5,1.4-2.4,1.1c-1-0.4-1.4-1.5-1.1-2.4c0.2-0.5,0.5-0.8,1-1C23.4,24.1,23.7,24.1,23.9,24.1z M19.9,16.7
	C19.9,16.7,20,16.7,19.9,16.7c0.4,0,1.5,0.7,2.3,2.5c0.5,1.2,0.6,2.3,0.5,2.9c-0.3,0.1-0.5,0.2-0.7,0.3c-0.5-0.3-1.2-1.1-1.8-2.3
	C19.4,18.2,19.7,16.8,19.9,16.7z M13.8,21.9c0.1-0.2,0.6-0.4,1.4-0.4c0.7,0,1.5,0.1,2.6,0.5c1.3,0.5,2.2,1.3,2.7,1.9
	c-0.1,0.2-0.2,0.3-0.3,0.5C20.1,24.6,20,24.8,20,25c-0.7,0.1-1.9,0-3.2-0.5c-1-0.4-1.9-1-2.5-1.6C13.9,22.4,13.8,22,13.8,21.9z"/>
</svg>
