<?xml version="1.0" encoding="utf-8"?>
<!-- Generator: Adobe Illustrator 21.1.0, SVG Export Plug-In . SVG Version: 6.00 Build 0)  -->
<svg version="1.1" id="Calque_1" xmlns="http://www.w3.org/2000/svg" xmlns:xlink="http://www.w3.org/1999/xlink" x="0px" y="0px"
	 viewBox="0 0 100 125" style="enable-background:new 0 0 100 125;" xml:space="preserve">
<style type="text/css">
	.st0{fill:#FFBBEF;}
</style>
<path class="st0" d="M86,47.3H73.6c1.2-1.7,2-3.7,2.5-5.9c0.1,0,0.2,0,0.3,0c1.8,0,3.7-0.5,5.4-1.5c4.4-2.5,6.3-7.3,4.4-10.7
	c-1-1.7-2.7-2.7-4.9-3c-2.1-0.2-4.4,0.3-6.5,1.5c-0.2,0.1-0.3,0.2-0.5,0.3c-1.5-2.6-3.6-4.6-6.1-5.5c-0.1-0.2-0.1-0.4-0.2-0.5
	c2.4-2.3,2.9-5.7,1.1-7.7c-1.8-2.1-5.4-1.9-8,0.3c-2.5-1.1-5-1.2-7.2,0c-4.4,2.3-5.5,8.9-2.5,14.6c0.7,1.4,1.6,2.6,2.6,3.6
	c-0.1,0.6-0.2,1.2-0.3,1.9c-1.4,0.2-2.8,0.8-3.7,1.7c-1.2,1.1-1.8,2.4-1.7,3.8c0.2,2.6,2.9,4.5,6.2,4.5c0.2,0,0.4,0,0.7,0
	c0.4,0.9,0.9,1.8,1.4,2.6h-12V34.4c0-4.3-3.5-7.8-7.8-7.8c-0.4,0-0.7,0-1.1,0.1v-4.3c0-4.3-3.5-7.8-7.8-7.8s-7.8,3.5-7.8,7.8v24.8
	h-5.8c-0.6,0-1,0.4-1,1v8.5c0,0.6,0.4,1,1,1h2V76h-2c-0.6,0-1,0.4-1,1v8.5c0,0.6,0.4,1,1,1H86c0.6,0,1-0.4,1-1V77c0-0.6-0.4-1-1-1
	h-1.9V57.8H86c0.6,0,1-0.4,1-1v-8.5C87,47.7,86.5,47.3,86,47.3z M75.7,29.4c1.7-1,3.6-1.4,5.2-1.2c1.6,0.2,2.8,0.9,3.4,2
	c1.4,2.4-0.2,6-3.6,7.9c-1.4,0.8-2.9,1.2-4.4,1.2c0.1-0.8,0.1-1.5,0.1-2.3c0-2.6-0.5-5.1-1.4-7.3C75.3,29.7,75.5,29.5,75.7,29.4z
	 M67.6,15.6c0.9,1.1,0.6,3-0.6,4.5c-1.1-1.8-2.4-3.3-4-4.4C64.6,14.6,66.6,14.6,67.6,15.6z M50.3,40c-0.1-0.8,0.3-1.5,1-2.2
	c0.6-0.5,1.4-0.9,2.3-1.1c0,0.1,0,0.2,0,0.4c0,1.9,0.3,3.8,0.8,5.6C52.2,42.7,50.4,41.5,50.3,40z M54.7,30.6
	c-0.6-0.7-1.1-1.5-1.5-2.3c-2.5-4.8-1.8-10.1,1.7-11.9c1.6-0.8,3.6-0.8,5.6,0.2c2.1,1,3.9,2.9,5.2,5.3c0,0.1,0.1,0.1,0.1,0.2
	c-0.2,0-0.4,0-0.7,0C60.5,22,56.5,25.5,54.7,30.6z M55.5,37.1c0-7.2,4.3-13.1,9.5-13.1s9.5,5.9,9.5,13.1c0,3.4-1,6.7-2.7,9.1
	c-0.2,0.3-0.2,0.7-0.1,1H58.3c0.2-0.3,0.2-0.7-0.1-1C56.5,43.8,55.5,40.5,55.5,37.1z M36.8,28.6c3.2,0,5.8,2.6,5.8,5.8v12.9H31V34.4
	C31,31.2,33.6,28.6,36.8,28.6z M22.1,22.5c0-3.2,2.6-5.8,5.8-5.8s5.8,2.6,5.8,5.8v4.8c-2.8,1.2-4.7,3.9-4.7,7.1v12.9h-6.9V22.5z
	 M85,78v6.5H15.3V78H85z M18.3,76V57.8h63.8V76H18.3z M85,55.8H15.3v-6.5H85V55.8z"/>
<circle class="st0" cx="19.7" cy="52.5" r="1.2"/>
<circle class="st0" cx="19.7" cy="81.3" r="1.2"/>
<circle class="st0" cx="80.3" cy="52.5" r="1.2"/>
<circle class="st0" cx="80.3" cy="81.3" r="1.2"/>
<circle class="st0" cx="63.7" cy="37" r="1.1"/>
<circle class="st0" cx="67.6" cy="43" r="1.1"/>
<circle class="st0" cx="63.9" cy="31.7" r="0.8"/>
<circle class="st0" cx="70.3" cy="30.9" r="0.8"/>
<circle class="st0" cx="61.1" cy="28.3" r="0.8"/>
<circle class="st0" cx="61.9" cy="20" r="0.8"/>
<circle class="st0" cx="54.5" cy="26.3" r="0.8"/>
<circle class="st0" cx="66.3" cy="16.9" r="0.8"/>
<circle class="st0" cx="52.2" cy="39.9" r="0.8"/>
<circle class="st0" cx="79.5" cy="36.7" r="0.8"/>
<circle class="st0" cx="77.4" cy="30.9" r="0.8"/>
<circle class="st0" cx="71.2" cy="40.4" r="0.8"/>
<circle class="st0" cx="57.4" cy="40.4" r="0.8"/>
<circle class="st0" cx="55.7" cy="23" r="1.1"/>
<circle class="st0" cx="56.8" cy="18.9" r="1.1"/>
<circle class="st0" cx="81.7" cy="32.1" r="1.1"/>
<circle class="st0" cx="66.3" cy="28.3" r="1.1"/>
<circle class="st0" cx="69.8" cy="35.9" r="1.1"/>
<circle class="st0" cx="58.5" cy="35.6" r="1.1"/>
<circle class="st0" cx="61.6" cy="42.6" r="1.1"/>
<circle class="st0" cx="26.6" cy="23.4" r="1.1"/>
<circle class="st0" cx="24.2" cy="44.7" r="1.1"/>
<circle class="st0" cx="33.7" cy="34.2" r="0.8"/>
<circle class="st0" cx="25.7" cy="19.3" r="0.8"/>
<circle class="st0" cx="30" cy="20.7" r="0.8"/>
<circle class="st0" cx="27.5" cy="33.4" r="0.8"/>
<circle class="st0" cx="24" cy="35.8" r="0.8"/>
<circle class="st0" cx="27" cy="42.6" r="0.8"/>
<circle class="st0" cx="31.5" cy="25.2" r="0.8"/>
<circle class="st0" cx="23.6" cy="40.4" r="0.8"/>
<circle class="st0" cx="24.2" cy="26.8" r="0.8"/>
<circle class="st0" cx="36.4" cy="30.9" r="0.8"/>
<circle class="st0" cx="32.3" cy="42.8" r="0.8"/>
<circle class="st0" cx="40" cy="42.6" r="0.8"/>
<circle class="st0" cx="39.4" cy="33.1" r="1.1"/>
<circle class="st0" cx="27" cy="38.2" r="1.1"/>
<circle class="st0" cx="24.2" cy="30.9" r="1.1"/>
<circle class="st0" cx="28.5" cy="27.6" r="1.1"/>
<circle class="st0" cx="38.9" cy="38" r="1.1"/>
<circle class="st0" cx="33.7" cy="39" r="1.1"/>
<circle class="st0" cx="35.9" cy="44.7" r="1.1"/>
</svg>
