<?xml version="1.0" encoding="utf-8"?>
<!-- Generator: Adobe Illustrator 21.1.0, SVG Export Plug-In . SVG Version: 6.00 Build 0)  -->
<svg version="1.1" id="Calque_1" xmlns="http://www.w3.org/2000/svg" xmlns:xlink="http://www.w3.org/1999/xlink" x="0px" y="0px"
	 viewBox="0 0 100 125" style="enable-background:new 0 0 100 125;" xml:space="preserve">
<style type="text/css">
	.st0{fill:#FFBBEF;}
</style>
<circle class="st0" cx="20.8" cy="51.9" r="1.2"/>
<circle class="st0" cx="20.8" cy="80.6" r="1.2"/>
<circle class="st0" cx="81.4" cy="51.9" r="1.2"/>
<circle class="st0" cx="81.4" cy="80.6" r="1.2"/>
<path class="st0" d="M16.9,26.2c-2.2,1.2-3.4,3.1-2.8,4.5c0.4,1,1.5,1.5,2.9,1.5c0.7,0,1.4-0.1,2.2-0.4c-1,2.9-0.5,5.4,1.2,6.1
	c0.3,0.1,0.5,0.2,0.8,0.2c1,0,2.2-0.7,3.1-1.9v10.5h-8.9c-0.6,0-1,0.4-1,1v8.5c0,0.6,0.4,1,1,1h2v18.2h-2c-0.6,0-1,0.4-1,1v8.5
	c0,0.6,0.4,1,1,1H87c0.6,0,1-0.4,1-1v-8.5c0-0.6-0.4-1-1-1h-1.9V57.1H87c0.6,0,1-0.4,1-1v-8.5c0-0.6-0.4-1-1-1h-9V35.7
	c0.9,1,1.9,1.6,2.8,1.6c0.3,0,0.6-0.1,0.8-0.2c1.5-0.6,1.9-2.8,1.1-5.2c1,0.4,2,0.5,2.9,0.5c1.6,0,2.8-0.6,3.3-1.7
	c0.7-1.7-0.9-3.8-3.7-5c0.8-0.5,1.6-1,2.1-1.6c0.8-1,1.1-2,0.7-2.9s-1.3-1.4-2.6-1.5c-0.8,0-1.7,0.1-2.6,0.4c1-2.9,0.6-5.5-1.1-6.1
	c-1.7-0.7-3.8,0.9-5.1,3.7c-1.2-2.2-3.1-3.4-4.5-2.8c-1.5,0.6-1.9,2.8-1.1,5.2c-1.2-0.4-2.3-0.6-3.4-0.5c-1.4,0.1-2.4,0.7-2.7,1.6
	c-0.4,0.9-0.1,2,0.9,3.1c0.7,0.8,1.7,1.4,2.8,1.9c-2.2,1.2-3.4,3.1-2.8,4.5c0.4,1,1.5,1.5,2.9,1.5c0.7,0,1.4-0.1,2.2-0.4
	c-1,2.9-0.5,5.4,1.2,6.1c0.3,0.1,0.5,0.2,0.8,0.2c1,0,2.2-0.7,3.1-1.9v10.5H52.1v-11c0.9,1,1.9,1.6,2.8,1.6c0.3,0,0.6-0.1,0.8-0.2
	c1.5-0.6,1.9-2.8,1.1-5.2c1,0.4,2,0.5,2.9,0.5c1.6,0,2.8-0.6,3.3-1.7c0.7-1.7-0.9-3.8-3.7-5c2.2-1.2,3.4-3,2.8-4.5
	c-0.4-0.9-1.3-1.4-2.6-1.5c-0.8,0-1.7,0.1-2.6,0.4c1-2.9,0.6-5.5-1.1-6.1c-1.7-0.7-3.8,0.9-5.1,3.7c-1.2-2.2-3.1-3.4-4.5-2.8
	c-1.5,0.6-1.9,2.8-1.1,5.2c-2.9-1-5.4-0.6-6.1,1.1c-0.4,0.9-0.1,2,0.9,3.1c0.7,0.8,1.7,1.4,2.8,1.9c-2.2,1.2-3.4,3.1-2.8,4.5
	c0.4,1,1.5,1.5,2.9,1.5c0.7,0,1.4-0.1,2.2-0.4c-1,2.9-0.5,5.4,1.2,6.1C46.5,38,46.8,38,47,38c1,0,2.2-0.7,3.1-1.9v10.5H26.3V35.7
	c0.9,1,1.9,1.6,2.8,1.6c0.3,0,0.6-0.1,0.8-0.2c1.5-0.6,1.9-2.8,1.1-5.2c1,0.4,2,0.5,2.9,0.5c1.6,0,2.8-0.6,3.3-1.7
	c0.7-1.7-0.9-3.8-3.7-5c2.2-1.2,3.4-3,2.8-4.5c-0.4-0.9-1.3-1.4-2.6-1.5c-0.8,0-1.7,0.1-2.6,0.4c1-2.9,0.6-5.5-1.1-6.1
	c-1.7-0.7-3.8,0.9-5.1,3.7c-1.2-2.2-3.1-3.4-4.5-2.8c-1.5,0.6-1.9,2.8-1.1,5.2c-2.9-1-5.4-0.6-6.1,1.1c-0.4,0.9-0.1,2,0.9,3.1
	C14.8,25,15.8,25.7,16.9,26.2z M19.3,29.6c-1.9,0.8-3.3,0.5-3.4,0.3c-0.1-0.3,0.6-1.4,2.5-2.3c0.9-0.4,1.7-0.5,2.3-0.5
	c0.2,0,0.4,0,0.5,0c0.1,0.3,0.2,0.5,0.3,0.8C21.3,28.4,20.5,29.1,19.3,29.6z M23.7,33.1c-0.9,2.2-2.3,3.1-2.6,3
	c-0.4-0.2-0.7-1.8,0.1-3.9c0.5-1.3,1.2-2.2,1.8-2.6c0.2,0.1,0.4,0.2,0.6,0.3c0.2,0.1,0.4,0.1,0.5,0.2C24.4,30.6,24.3,31.8,23.7,33.1
	z M86,77.4v6.5H16.4v-6.5H86z M24.7,72l5.3-4.6l5.6,4.9l-3.5,3l0,0h-3.4L24.7,72z M25.6,75.4h-4.7l2.3-2L25.6,75.4z M31.5,66.1
	l5.6-4.9l5.6,4.9L37.1,71L31.5,66.1z M37.1,73.6l2,1.7h-4L37.1,73.6z M38.7,72.3l5.6-4.9l5.6,4.9l-3.5,3l0,0h-4.1l0,0L38.7,72.3z
	 M45.8,66.1l5.6-4.9l5.6,4.9L51.4,71L45.8,66.1z M51.4,73.6l2,1.7h-4L51.4,73.6z M52.9,72.3l5.6-4.9l5.6,4.9l-3.5,3l0,0h-4.1l0,0
	L52.9,72.3z M60,66.1l5.6-4.9l5.6,4.9L65.6,71L60,66.1z M65.6,73.6l2,1.7h-4L65.6,73.6z M67.2,72.3l5.6-4.9l5.2,4.5l-4,3.4l0,0h-3.3
	l0,0L67.2,72.3z M79.5,73.3l2.4,2.1H77L79.5,73.3z M81,71.9l2.1-1.8v3.7L81,71.9z M79.5,70.6l-5.2-4.5l5.4-4.6l3.5,3v3L79.5,70.6z
	 M81.2,60.1l1.9-1.7v3.3L81.2,60.1z M79.6,58.8l-2-1.7h4L79.6,58.8z M78.1,60.2l-5.3,4.6l-5.6-4.9l3.2-2.8l0,0h4.2L78.1,60.2z
	 M65.6,58.6l-1.7-1.5h3.4L65.6,58.6z M64.1,59.9l-5.6,4.9l-5.6-4.9l3.2-2.8l0,0h4.8l0,0L64.1,59.9z M51.4,58.6l-1.7-1.5h3.4
	L51.4,58.6z M49.9,59.9l-5.6,4.9l-5.6-4.9l3.2-2.8l0,0h4.8l0,0L49.9,59.9z M37.1,58.6l-1.7-1.5h3.4L37.1,58.6z M35.6,59.9L30,64.8
	l-4.8-4.2l3.9-3.5h3.3l0,0L35.6,59.9z M23.6,59.3l-2.5-2.1H26L23.6,59.3z M22.1,60.6l-2.8,2.5v-4.9L22.1,60.6z M19.5,65.7l4.2-3.8
	l4.8,4.2l-5.3,4.6l-3.8-3.2l0,0L19.5,65.7C19.4,65.7,19.4,65.7,19.5,65.7z M21.7,72l-2.3,2v-3.9L21.7,72z M80.8,35.3
	c-0.3,0.1-1.4-0.6-2.3-2.5c-0.5-1.2-0.6-2.3-0.5-2.9c0.2,0,0.3-0.1,0.4-0.1s0.2-0.1,0.3-0.1c0.5,0.3,1.2,1.1,1.8,2.3
	C81.3,33.8,81,35.1,80.8,35.3z M86.9,30c-0.1,0.4-1.7,0.8-3.9-0.1c-1.3-0.5-2.2-1.2-2.6-1.8c0.1-0.2,0.2-0.4,0.3-0.6
	c0.1-0.2,0.1-0.4,0.2-0.6c0.7-0.1,1.9,0,3.2,0.5C86.1,28.2,87.1,29.6,86.9,30z M82.7,22.3c0.9-0.4,1.8-0.6,2.5-0.5
	c0.6,0,0.8,0.2,0.8,0.2c0,0.1,0,0.3-0.4,0.8c-0.5,0.5-1.2,1.1-2.1,1.5c-1.2,0.5-2.2,0.6-2.8,0.5c-0.1-0.3-0.2-0.5-0.3-0.7
	C80.8,23.5,81.5,22.8,82.7,22.3z M78.3,18.8c0.8-2.1,2.1-3,2.5-3h0.1c0.4,0.2,0.7,1.8-0.1,3.9c-0.5,1.3-1.3,2.2-1.9,2.7
	c-0.2-0.1-0.4-0.2-0.6-0.3c-0.2-0.1-0.4-0.1-0.6-0.2C77.7,21.3,77.7,20.1,78.3,18.8z M72.8,16.7C72.9,16.7,72.9,16.7,72.8,16.7
	c0.4,0,1.5,0.7,2.3,2.5c0.5,1.2,0.6,2.3,0.5,2.9c-0.3,0.1-0.5,0.2-0.7,0.3c-0.5-0.3-1.2-1.1-1.8-2.3C72.3,18.2,72.6,16.8,72.8,16.7z
	 M67.2,22.9c-0.5-0.5-0.5-0.9-0.5-1s0.4-0.3,1-0.4c0.1,0,0.2,0,0.3,0c0.8,0,1.7,0.2,2.6,0.5c1.3,0.5,2.2,1.3,2.7,1.9
	c-0.1,0.2-0.2,0.3-0.3,0.5c-0.1,0.2-0.1,0.4-0.2,0.5c-0.7,0.1-1.9,0-3.2-0.5C68.7,24.1,67.8,23.5,67.2,22.9z M71,29.6
	c-1.9,0.8-3.3,0.5-3.4,0.3s0.6-1.4,2.5-2.3c0.9-0.4,1.7-0.5,2.3-0.5c0.2,0,0.4,0,0.5,0c0,0.2,0.1,0.3,0.1,0.5c0,0.1,0.1,0.2,0.2,0.3
	C72.9,28.4,72.2,29.1,71,29.6z M75.4,33.1c-0.9,2.2-2.3,3.1-2.6,3c-0.4-0.2-0.7-1.8,0.1-3.9c0.5-1.3,1.2-2.2,1.8-2.6
	c0.2,0.1,0.4,0.2,0.6,0.3c0.2,0.1,0.4,0.1,0.5,0.2C76,30.6,75.9,31.8,75.4,33.1z M75.1,26.7c-0.2-0.5-0.2-1,0-1.4
	c0.3-0.7,1-1.2,1.7-1.2c0.2,0,0.5,0,0.7,0.1c0.5,0.2,0.8,0.5,1,1s0.2,1,0,1.4c-0.2,0.5-0.5,0.8-1,1s-1,0.2-1.4,0
	C75.7,27.5,75.3,27.2,75.1,26.7z M54.9,35.3c-0.3,0.1-1.4-0.6-2.3-2.5c-0.5-1.2-0.6-2.3-0.5-2.9c0.3-0.1,0.5-0.2,0.7-0.3
	c0.5,0.3,1.2,1.1,1.8,2.3C55.5,33.8,55.2,35.1,54.9,35.3z M61.1,30c-0.1,0.4-1.7,0.8-3.9-0.1c-1.3-0.5-2.2-1.2-2.6-1.8
	c0.1-0.2,0.2-0.4,0.3-0.6s0.1-0.4,0.2-0.6c0.7-0.1,1.9,0,3.2,0.5C60.2,28.2,61.3,29.6,61.1,30z M56.9,22.3c0.9-0.4,1.8-0.6,2.5-0.5
	c0.6,0,0.8,0.2,0.8,0.2c0.1,0.2-0.6,1.4-2.5,2.2c-1.2,0.5-2.2,0.6-2.8,0.5c0-0.1-0.1-0.3-0.1-0.4c-0.1-0.1-0.1-0.2-0.2-0.4
	C54.9,23.5,55.7,22.8,56.9,22.3z M52.4,18.8c0.8-2.1,2.1-3,2.5-3H55c0.4,0.1,0.8,1.7-0.1,3.9c-0.5,1.3-1.3,2.2-1.9,2.7
	c-0.2-0.1-0.4-0.2-0.6-0.3C52.2,22,52,22,51.8,21.9C51.8,21.3,51.9,20.1,52.4,18.8z M47,16.7L47,16.7c0.4,0,1.5,0.7,2.3,2.5
	c0.5,1.2,0.6,2.3,0.5,2.9c-0.3,0.1-0.5,0.2-0.7,0.3c-0.5-0.3-1.2-1.1-1.8-2.3C46.4,18.2,46.8,16.8,47,16.7z M41.4,22.9
	c-0.5-0.5-0.5-0.9-0.5-1c0.1-0.2,0.6-0.4,1.4-0.4c0.7,0,1.5,0.1,2.6,0.5c1.3,0.5,2.2,1.3,2.7,1.9c-0.1,0.2-0.2,0.3-0.3,0.5
	s-0.1,0.4-0.2,0.5c-0.7,0.1-1.9,0-3.2-0.5C42.9,24.1,42,23.5,41.4,22.9z M45.2,29.6c-1.9,0.8-3.3,0.5-3.4,0.3
	c-0.1-0.3,0.6-1.4,2.5-2.3c0.9-0.4,1.7-0.5,2.3-0.5c0.2,0,0.4,0,0.5,0c0.1,0.3,0.2,0.5,0.3,0.8C47.1,28.4,46.3,29.1,45.2,29.6z
	 M49.6,33.1c-0.9,2.2-2.3,3.1-2.6,3c-0.4-0.1-0.8-1.7,0.1-3.9c0.5-1.3,1.2-2.2,1.8-2.6c0.2,0.1,0.4,0.2,0.6,0.3
	c0.2,0.1,0.4,0.1,0.5,0.2C50.2,30.6,50.1,31.8,49.6,33.1z M49.3,25.3c0.3-0.7,1-1.2,1.7-1.2c0.2,0,0.5,0,0.7,0.1
	c0.5,0.2,0.8,0.5,1,1s0.2,1,0,1.4c-0.4,1-1.5,1.4-2.4,1.1C49.4,27.3,48.9,26.2,49.3,25.3z M86,48.6v6.5H16.4v-6.5H86z M29.1,35.3
	c-0.3,0.1-1.4-0.6-2.3-2.5c-0.5-1.2-0.6-2.3-0.5-2.9c0.3-0.1,0.5-0.2,0.7-0.3c0.5,0.3,1.2,1.1,1.8,2.3
	C29.7,33.8,29.4,35.1,29.1,35.3z M35.3,30c-0.1,0.4-1.7,0.8-3.9-0.1c-1.3-0.5-2.2-1.2-2.6-1.8c0.1-0.2,0.2-0.4,0.3-0.6
	c0.1-0.2,0.1-0.4,0.2-0.6c0.7-0.1,1.9,0,3.2,0.5C34.4,28.2,35.4,29.6,35.3,30z M31,22.3c0.9-0.4,1.8-0.6,2.5-0.5
	c0.6,0,0.8,0.2,0.8,0.2c0.1,0.2-0.6,1.4-2.5,2.2c-1.2,0.5-2.2,0.6-2.8,0.5c-0.1-0.3-0.2-0.5-0.3-0.7C29.1,23.5,29.9,22.8,31,22.3z
	 M26.6,18.8c0.8-2.1,2.1-3,2.5-3h0.1c0.4,0.2,0.7,1.8-0.1,3.9c-0.5,1.3-1.3,2.2-1.9,2.7c-0.2-0.1-0.4-0.2-0.6-0.3
	C26.4,22,26.2,22,26,21.9C26,21.3,26.1,20.1,26.6,18.8z M25.2,24.1c0.2,0,0.5,0,0.7,0.1c0.5,0.2,0.8,0.5,1,1s0.2,1,0,1.4
	c-0.4,1-1.5,1.4-2.4,1.1c-1-0.4-1.4-1.5-1.1-2.4C23.7,24.5,24.4,24.1,25.2,24.1z M21.2,16.7L21.2,16.7c0.4,0,1.5,0.7,2.3,2.5
	c0.5,1.2,0.6,2.3,0.5,2.9c-0.3,0.1-0.5,0.2-0.7,0.3c-0.5-0.3-1.2-1.1-1.8-2.3C20.6,18.2,20.9,16.8,21.2,16.7z M15.1,21.9
	c0.1-0.2,0.6-0.4,1.4-0.4c0.7,0,1.5,0.1,2.6,0.5c1.3,0.5,2.2,1.3,2.7,1.9c-0.1,0.2-0.2,0.3-0.3,0.5c-0.1,0.2-0.1,0.4-0.2,0.5
	c-0.7,0.1-1.9,0-3.2-0.5c-1-0.4-1.9-1-2.5-1.6C15.1,22.4,15,22,15.1,21.9z"/>
</svg>
