<?xml version="1.0" encoding="utf-8"?>
<!-- Generator: Adobe Illustrator 21.1.0, SVG Export Plug-In . SVG Version: 6.00 Build 0)  -->
<svg version="1.1" id="Calque_1" xmlns="http://www.w3.org/2000/svg" xmlns:xlink="http://www.w3.org/1999/xlink" x="0px" y="0px"
	 viewBox="0 0 100 125" style="enable-background:new 0 0 100 125;" xml:space="preserve">
<style type="text/css">
	.st0{fill:#FFBBEF;}
</style>
<circle class="st0" cx="19.2" cy="52.1" r="1.2"/>
<circle class="st0" cx="19.2" cy="66.5" r="1.2"/>
<circle class="st0" cx="19.2" cy="80.9" r="1.2"/>
<circle class="st0" cx="79.8" cy="52.1" r="1.2"/>
<circle class="st0" cx="79.8" cy="66.5" r="1.2"/>
<circle class="st0" cx="79.8" cy="80.9" r="1.2"/>
<path class="st0" d="M15.5,26.2c-0.8,0.5-1.5,1-2.1,1.6c-0.8,1-1.1,2-0.7,2.9c0.4,0.9,1.3,1.4,2.6,1.5c0.1,0,0.2,0,0.3,0
	c0.7,0,1.5-0.1,2.2-0.4c-1,2.9-0.5,5.4,1.2,6.1c0.3,0.1,0.5,0.2,0.8,0.2c1,0,2.2-0.7,3.1-1.9v10.7h-9.1c-0.6,0-1,0.4-1,1v8.5
	c0,0.6,0.4,1,1,1h2v3.9h-2c-0.6,0-1,0.4-1,1v8.5c0,0.6,0.4,1,1,1h2v3.9h-2c-0.6,0-1,0.4-1,1v8.5c0,0.6,0.4,1,1,1h71.6
	c0.6,0,1-0.4,1-1v-8.5c0-0.6-0.4-1-1-1h-1.9v-3.9h1.9c0.6,0,1-0.4,1-1v-8.5c0-0.6-0.4-1-1-1h-1.9v-3.9h1.9c0.6,0,1-0.4,1-1v-8.5
	c0-0.6-0.4-1-1-1h-8.9V35.7c0.9,1,1.9,1.6,2.8,1.6c0.3,0,0.6-0.1,0.8-0.2c1.5-0.6,1.9-2.8,1.1-5.2c1,0.4,2,0.5,2.9,0.5
	c1.6,0,2.8-0.6,3.3-1.7c0.7-1.7-0.9-3.8-3.7-5c2.2-1.2,3.4-3,2.8-4.5c-0.4-0.9-1.3-1.4-2.6-1.5c-0.8,0-1.7,0.1-2.6,0.4
	c1-2.9,0.6-5.5-1.1-6.1c-1.7-0.7-3.8,0.9-5.1,3.7c-1.2-2.2-3.1-3.4-4.5-2.8c-1.5,0.6-1.9,2.8-1.1,5.2c-2.9-1-5.4-0.6-6.1,1.1
	c-0.4,0.9-0.1,2,0.9,3.1c0.7,0.8,1.7,1.4,2.8,1.9c-2.2,1.2-3.4,3.1-2.8,4.5c0.4,0.9,1.3,1.4,2.6,1.5c0.1,0,0.2,0,0.3,0
	c0.7,0,1.5-0.1,2.2-0.4c-1,2.9-0.5,5.4,1.2,6.1c0.3,0.1,0.5,0.2,0.8,0.2c1,0,2.2-0.7,3.1-1.9v10.7H50.8V35.7c0.9,1,1.9,1.6,2.8,1.6
	c0.3,0,0.6-0.1,0.8-0.2c1.5-0.6,1.9-2.8,1.1-5.2c1,0.4,2,0.5,2.9,0.5c1.6,0,2.8-0.6,3.3-1.7c0.7-1.7-0.9-3.8-3.7-5
	c2.2-1.2,3.4-3,2.8-4.5c-0.4-0.9-1.3-1.4-2.6-1.5c-0.8,0-1.7,0.1-2.6,0.4c1-2.9,0.6-5.5-1.1-6.1c-1.7-0.7-3.8,0.9-5.1,3.7
	c-1.2-2.2-3.1-3.4-4.5-2.8c-1.5,0.6-1.9,2.8-1.1,5.2c-2.9-1-5.4-0.6-6.1,1.1c-0.4,0.9-0.1,2,0.9,3.1c0.7,0.8,1.7,1.4,2.8,1.9
	c-2.2,1.2-3.4,3.1-2.8,4.5c0.4,1,1.5,1.5,2.9,1.5c0.7,0,1.4-0.1,2.2-0.4c-1,2.9-0.5,5.4,1.2,6.1c0.3,0.1,0.5,0.2,0.8,0.2
	c1,0,2.2-0.7,3.1-1.9v10.7H24.9V35.7c0.9,1,1.9,1.6,2.8,1.6c0.3,0,0.6-0.1,0.8-0.2c1.5-0.6,1.9-2.8,1.1-5.2c1,0.4,2,0.5,2.9,0.5
	c1.6,0,2.8-0.6,3.3-1.7c0.7-1.7-0.9-3.8-3.7-5c0.8-0.5,1.6-1,2.1-1.6c0.8-1,1.1-2,0.7-2.9c-0.4-0.9-1.3-1.4-2.6-1.5
	c-0.8,0-1.7,0.1-2.6,0.4c1-2.9,0.6-5.5-1.1-6.1c-1.7-0.7-3.8,0.9-5.1,3.7c-1.2-2.2-3.1-3.4-4.5-2.8c-1.5,0.6-1.9,2.8-1.1,5.2
	c-1.2-0.4-2.3-0.6-3.4-0.5c-1.4,0.1-2.4,0.7-2.7,1.6c-0.4,0.9-0.1,2,0.9,3.1C13.4,25,14.4,25.7,15.5,26.2z M18,29.6
	c-0.9,0.4-1.8,0.6-2.5,0.5c-0.6,0-0.8-0.2-0.9-0.3s0-0.4,0.4-0.8c0.5-0.6,1.2-1.1,2.1-1.5s1.7-0.5,2.3-0.5c0.2,0,0.4,0,0.5,0
	c0.1,0.3,0.2,0.5,0.3,0.8C19.9,28.4,19.1,29.1,18,29.6z M22.4,33.1c-0.9,2.2-2.3,3.1-2.6,3c-0.4-0.2-0.7-1.8,0.1-3.9
	c0.5-1.3,1.2-2.2,1.8-2.6c0.2,0.1,0.4,0.2,0.6,0.3c0.2,0.1,0.4,0.1,0.5,0.2C23,30.6,22.9,31.8,22.4,33.1z M84.5,77.6v6.5H14.9v-6.5
	H84.5z M17.8,75.6v-3.9h63.8v3.9H17.8z M84.5,63.2v6.5H14.9v-6.5C14.9,63.2,84.5,63.2,84.5,63.2z M17.8,61.2v-3.9h63.8v3.9H17.8z
	 M79.4,35.3c-0.3,0.1-1.4-0.6-2.3-2.5c-0.5-1.2-0.6-2.3-0.5-2.9c0.3-0.1,0.5-0.2,0.7-0.3c0.5,0.3,1.2,1.1,1.8,2.3
	C80,33.8,79.7,35.1,79.4,35.3z M85.6,30c-0.1,0.4-1.7,0.8-3.9-0.1c-1.3-0.5-2.2-1.2-2.6-1.8c0.1-0.2,0.2-0.4,0.3-0.6
	c0.1-0.2,0.1-0.4,0.2-0.6c0.7-0.1,1.9,0,3.2,0.5C84.7,28.2,85.7,29.6,85.6,30z M81.3,22.3c0.9-0.4,1.8-0.6,2.5-0.5
	c0.6,0,0.8,0.2,0.8,0.2c0.1,0.2-0.6,1.4-2.5,2.2c-1.2,0.5-2.2,0.6-2.8,0.5c-0.1-0.3-0.2-0.5-0.3-0.7C79.4,23.5,80.2,22.8,81.3,22.3z
	 M76.9,18.8c0.8-2.1,2.1-3,2.5-3h0.1c0.4,0.1,0.8,1.7-0.1,3.9c-0.5,1.3-1.3,2.2-1.9,2.7c-0.2-0.1-0.4-0.2-0.6-0.3
	c-0.2-0.1-0.4-0.1-0.6-0.2C76.3,21.3,76.4,20.1,76.9,18.8z M71.5,16.7L71.5,16.7c0.4,0,1.5,0.7,2.3,2.5c0.5,1.2,0.6,2.3,0.5,2.9
	c-0.3,0.1-0.5,0.2-0.7,0.3c-0.5-0.3-1.2-1.1-1.8-2.3C70.9,18.2,71.2,16.8,71.5,16.7z M65.9,22.9c-0.5-0.5-0.5-0.9-0.5-1
	c0.1-0.2,0.6-0.4,1.4-0.4c0.7,0,1.5,0.1,2.6,0.5c1.3,0.5,2.2,1.3,2.7,1.9c-0.1,0.2-0.2,0.3-0.3,0.5c-0.1,0.2-0.1,0.4-0.2,0.5
	c-0.7,0.1-1.9,0-3.2-0.5C67.3,24.1,66.4,23.5,65.9,22.9z M69.6,29.6c-0.9,0.4-1.8,0.6-2.5,0.5c-0.6,0-0.8-0.2-0.9-0.3
	c-0.1-0.3,0.6-1.4,2.5-2.3c0.9-0.4,1.7-0.5,2.3-0.5c0.2,0,0.4,0,0.5,0c0.1,0.3,0.2,0.5,0.3,0.8C71.6,28.4,70.8,29.1,69.6,29.6z
	 M74,33.1c-0.9,2.2-2.3,3.1-2.6,3c-0.4-0.1-0.8-1.7,0.1-3.9c0.5-1.3,1.2-2.2,1.8-2.6c0.2,0.1,0.4,0.2,0.6,0.3
	c0.2,0.1,0.4,0.1,0.5,0.2C74.6,30.6,74.5,31.8,74,33.1z M73.7,25.3c0.3-0.7,1-1.2,1.7-1.2c0.2,0,0.5,0,0.7,0.1c0.5,0.2,0.8,0.5,1,1
	s0.2,1,0,1.4c-0.4,1-1.5,1.4-2.4,1.1C73.8,27.3,73.4,26.2,73.7,25.3z M53.6,35.3c-0.3,0.1-1.4-0.6-2.3-2.5c-0.5-1.2-0.6-2.3-0.5-2.9
	c0.3-0.1,0.5-0.2,0.7-0.3c0.5,0.3,1.2,1.1,1.8,2.3C54.1,33.8,53.8,35.1,53.6,35.3z M59.7,30c-0.1,0.4-1.7,0.8-3.9-0.1
	c-1.3-0.5-2.2-1.2-2.6-1.8c0.1-0.2,0.2-0.4,0.3-0.6s0.1-0.4,0.2-0.6c0.7-0.1,1.9,0,3.2,0.5C58.9,28.2,59.9,29.6,59.7,30z M55.5,22.3
	c0.9-0.4,1.8-0.6,2.5-0.5c0.6,0,0.8,0.2,0.8,0.2c0.1,0.2-0.6,1.4-2.5,2.2c-1.2,0.5-2.2,0.6-2.8,0.5c-0.1-0.3-0.2-0.5-0.3-0.7
	C53.6,23.5,54.3,22.8,55.5,22.3z M51.1,18.8c0.8-2.1,2.1-3,2.5-3h0.1c0.4,0.2,0.7,1.8-0.1,3.9c-0.5,1.3-1.3,2.2-1.9,2.7
	c-0.2-0.1-0.4-0.2-0.6-0.3c-0.2-0.1-0.4-0.1-0.6-0.2C50.5,21.3,50.5,20.1,51.1,18.8z M45.6,16.7C45.7,16.7,45.7,16.7,45.6,16.7
	c0.4,0,1.5,0.7,2.3,2.5c0.5,1.2,0.6,2.3,0.5,2.9c-0.3,0.1-0.5,0.2-0.7,0.3c-0.5-0.3-1.2-1.1-1.8-2.3C45.1,18.2,45.4,16.8,45.6,16.7z
	 M40,22.9c-0.5-0.5-0.5-0.9-0.5-1c0.1-0.2,0.6-0.4,1.4-0.4c0.7,0,1.5,0.1,2.6,0.5c1.3,0.5,2.2,1.3,2.7,1.9c-0.1,0.2-0.2,0.3-0.3,0.5
	s-0.1,0.4-0.2,0.5c-0.7,0.1-1.9,0-3.2-0.5C41.5,24.1,40.6,23.5,40,22.9z M43.8,29.6c-1.9,0.8-3.3,0.5-3.4,0.3
	c-0.1-0.3,0.6-1.4,2.5-2.3c0.9-0.4,1.7-0.5,2.3-0.5c0.2,0,0.4,0,0.5,0c0.1,0.3,0.2,0.5,0.3,0.8C45.7,28.4,45,29.1,43.8,29.6z
	 M48.2,33.1c-0.9,2.2-2.3,3.1-2.6,3c-0.4-0.2-0.7-1.8,0.1-3.9c0.5-1.3,1.2-2.2,1.8-2.6c0.2,0.1,0.4,0.2,0.6,0.3
	c0.2,0.1,0.4,0.1,0.5,0.2C48.8,30.6,48.7,31.8,48.2,33.1z M47.9,25.3c0.2-0.5,0.5-0.8,1-1c0.2-0.1,0.5-0.2,0.7-0.2s0.5,0,0.7,0.1
	c1,0.4,1.4,1.5,1.1,2.4c-0.4,1-1.5,1.4-2.4,1.1C48,27.3,47.5,26.2,47.9,25.3z M84.5,48.9v6.5H14.9v-6.5H84.5z M27.7,35.3
	c-0.3,0.1-1.4-0.6-2.3-2.5c-0.5-1.2-0.6-2.3-0.5-2.9c0.2,0,0.3-0.1,0.4-0.1s0.2-0.1,0.3-0.1c0.5,0.3,1.2,1.1,1.8,2.3
	C28.3,33.8,28,35.1,27.7,35.3z M33.9,30c-0.1,0.4-1.7,0.8-3.9-0.1c-1.3-0.5-2.2-1.2-2.6-1.8c0.1-0.2,0.2-0.4,0.3-0.6
	c0.1-0.2,0.1-0.4,0.2-0.6c0.7-0.1,1.9,0,3.2,0.5C33,28.2,34.1,29.6,33.9,30z M29.7,22.3c0.9-0.4,1.8-0.6,2.5-0.5
	c0.6,0,0.8,0.2,0.8,0.2c0,0.1,0,0.3-0.4,0.8c-0.5,0.5-1.2,1.1-2.1,1.5c-1.2,0.5-2.2,0.6-2.8,0.5c-0.1-0.3-0.2-0.5-0.3-0.7
	C27.7,23.5,28.5,22.8,29.7,22.3z M25.2,18.8c0.8-2.1,2.1-3,2.5-3h0.1c0.4,0.2,0.7,1.8-0.1,3.9c-0.5,1.3-1.3,2.2-1.9,2.7
	c-0.2-0.1-0.4-0.2-0.6-0.3C25,22,24.8,22,24.6,21.9C24.6,21.3,24.7,20.1,25.2,18.8z M23.8,24.1c0.2,0,0.5,0,0.7,0.1
	c0.5,0.2,0.8,0.5,1,1s0.2,1,0,1.4c-0.2,0.5-0.5,0.8-1,1s-1,0.2-1.4,0c-1-0.4-1.4-1.5-1.1-2.4C22.4,24.5,23.1,24.1,23.8,24.1z
	 M19.8,16.7L19.8,16.7c0.4,0,1.5,0.7,2.3,2.5c0.5,1.2,0.6,2.3,0.5,2.9c-0.3,0.1-0.5,0.2-0.7,0.3c-0.5-0.3-1.2-1.1-1.8-2.3
	C19.2,18.2,19.6,16.8,19.8,16.7z M13.7,21.9c0-0.1,0.4-0.3,1-0.4c0.1,0,0.2,0,0.3,0c0.8,0,1.7,0.2,2.6,0.5c1.3,0.5,2.2,1.3,2.7,1.9
	c-0.1,0.2-0.2,0.3-0.3,0.5c-0.1,0.2-0.1,0.4-0.2,0.5c-0.7,0.1-1.9,0-3.2-0.5c-1-0.4-1.9-1-2.5-1.6C13.7,22.4,13.7,22,13.7,21.9z"/>
</svg>
