<?xml version="1.0" encoding="utf-8"?>
<!-- Generator: Adobe Illustrator 21.1.0, SVG Export Plug-In . SVG Version: 6.00 Build 0)  -->
<svg version="1.1" id="Calque_1" xmlns="http://www.w3.org/2000/svg" xmlns:xlink="http://www.w3.org/1999/xlink" x="0px" y="0px"
	 viewBox="0 0 100 125" style="enable-background:new 0 0 100 125;" xml:space="preserve">
<style type="text/css">
	.st0{fill:#FFBBEF;}
</style>
<circle class="st0" cx="19.4" cy="60.2" r="1.2"/>
<circle class="st0" cx="19.4" cy="82" r="1.2"/>
<circle class="st0" cx="80" cy="60.2" r="1.2"/>
<circle class="st0" cx="80" cy="82" r="1.2"/>
<path class="st0" d="M83.5,27.1c0.8-0.5,1.6-1,2.1-1.6c0.8-1,1.1-2,0.7-2.9s-1.3-1.4-2.6-1.5c-0.8,0-1.7,0.1-2.5,0.4
	c0.4-1.2,0.6-2.4,0.5-3.4c-0.1-1.4-0.7-2.4-1.7-2.7c-1.7-0.7-3.8,0.9-5.1,3.7c-0.5-0.8-1-1.6-1.6-2.1c-1-0.8-2-1.1-2.9-0.7
	c-1.5,0.6-1.9,2.8-1.1,5.2c-2.9-1-5.4-0.6-6.1,1.1c-0.4,0.9-0.1,2,0.9,3.1c0.7,0.7,1.7,1.4,2.8,1.9c-0.8,0.5-1.5,1-2.1,1.6
	c-0.8,1-1.1,2-0.7,2.9s1.3,1.4,2.6,1.5c0.1,0,0.2,0,0.3,0c0.7,0,1.5-0.1,2.2-0.4c-0.4,1.2-0.6,2.3-0.5,3.4c0.1,1.4,0.7,2.4,1.7,2.7
	c0.3,0.1,0.5,0.2,0.8,0.2c0.7,0,1.5-0.3,2.3-1c0.3-0.3,0.6-0.6,0.8-0.9V44c-2.5-2-6.4-1.3-6.6-1.3c-0.4,0.1-0.8,0.4-0.8,0.8
	c0,0.2-0.7,4.6,1.7,7c1.5,1.5,3.8,1.8,5.4,1.8c0.1,0,0.2,0,0.4,0V55h-18c0.1-0.1,0.2-0.1,0.2-0.2c2.4-2.4,1.7-6.8,1.7-7
	c-0.1-0.4-0.4-0.8-0.8-0.8c-0.2,0-4.5-0.7-7,1.6V43c0.2,0.3,0.5,0.5,0.7,0.7c0.7,0.6,1.4,0.9,2,0.9c0.3,0,0.6-0.1,0.8-0.2
	c0.9-0.4,1.4-1.3,1.5-2.6c0-0.8-0.1-1.7-0.4-2.6c1,0.3,2,0.5,2.9,0.5c0.2,0,0.4,0,0.5,0c1.4-0.1,2.4-0.7,2.7-1.7
	c0.4-1,0.1-2-0.9-3.1c-0.7-0.8-1.7-1.4-2.8-2c0.8-0.5,1.6-1,2.1-1.6c0.8-1,1.1-2,0.7-2.9c-0.4-0.9-1.3-1.4-2.6-1.5
	c-0.8,0-1.7,0.1-2.5,0.4c0.4-1.2,0.6-2.4,0.5-3.4c-0.1-1.4-0.7-2.4-1.7-2.7c-1.7-0.7-3.8,0.9-5.1,3.7c-0.5-0.8-1-1.6-1.6-2.1
	c-1-0.8-2-1.1-2.9-0.7c-1.5,0.6-1.9,2.8-1.1,5.2c-1.2-0.4-2.3-0.6-3.4-0.5c-1.4,0.1-2.4,0.7-2.7,1.6c-0.4,0.9-0.1,2,0.9,3.1
	c0.7,0.8,1.7,1.4,2.8,1.9c-2.2,1.2-3.4,3.1-2.8,4.5c0.4,1,1.5,1.5,2.9,1.5c0.7,0,1.4-0.1,2.2-0.4c-0.4,1.2-0.6,2.3-0.5,3.4
	c0.1,1.4,0.7,2.4,1.7,2.7c0.3,0.1,0.5,0.2,0.8,0.2c0.7,0,1.5-0.3,2.3-1c0.3-0.3,0.6-0.6,0.8-0.9v4.8c-2.5-2.1-6.5-1.5-6.7-1.4
	C41.4,47,41,47.3,41,47.7c0,0.2-0.7,4.6,1.7,7c0.1,0.1,0.2,0.1,0.2,0.2H24.7v-2.7c0.2,0,0.4,0,0.6,0c1.6,0,3.8-0.3,5.4-1.8
	c2.4-2.4,1.7-6.8,1.7-7c-0.1-0.4-0.4-0.8-0.8-0.8c-0.2,0-4.4-0.7-6.8,1.5V37c0.2,0.3,0.5,0.5,0.7,0.7c0.7,0.6,1.4,0.9,2,0.9
	c0.3,0,0.6-0.1,0.8-0.2c0.9-0.4,1.4-1.3,1.5-2.6c0-0.8-0.1-1.7-0.4-2.6c1,0.3,2,0.5,2.9,0.5c0.2,0,0.4,0,0.5,0
	c1.4-0.1,2.4-0.7,2.7-1.7c0.4-1,0.1-2-0.9-3.1c-0.7-0.8-1.7-1.4-2.8-2c2.2-1.2,3.4-3,2.8-4.5c-0.6-1.4-2.7-1.8-5.1-1.1
	c0.4-1.2,0.6-2.4,0.5-3.4c-0.1-1.4-0.7-2.4-1.7-2.7c-1.7-0.7-3.8,0.9-5.1,3.7c-0.5-0.8-1-1.6-1.6-2.1c-1-0.8-2-1.1-2.9-0.7
	c-1.5,0.6-1.9,2.8-1.1,5.2c-2.9-1-5.4-0.6-6.1,1.1c-0.7,1.7,0.9,3.8,3.6,5c-0.8,0.5-1.5,1-2,1.6c-0.8,1-1.1,2-0.7,2.9
	c0.4,1,1.5,1.5,2.9,1.5c0.7,0,1.4-0.1,2.2-0.4c-0.4,1.2-0.6,2.3-0.5,3.4c0.1,1.4,0.7,2.4,1.7,2.7c0.3,0.1,0.5,0.2,0.8,0.2
	c0.7,0,1.5-0.3,2.3-1c0.3-0.3,0.6-0.6,0.8-0.9v6.7c-2.5-2.2-6.7-1.6-6.8-1.5C15.4,42.7,15,43,15,43.4c0,0.2-0.7,4.6,1.7,7
	c1.5,1.5,3.8,1.8,5.4,1.8c0.2,0,0.4,0,0.6,0V55H14c-0.6,0-1,0.4-1,1v8.5c0,0.6,0.4,1,1,1h2v11.2h-2c-0.6,0-1,0.4-1,1v8.5
	c0,0.6,0.4,1,1,1h71.6c0.6,0,1-0.4,1-1v-8.5c0-0.6-0.4-1-1-1h-1.9V65.5h1.9c0.6,0,1-0.4,1-1V56c0-0.6-0.4-1-1-1h-9.3v-2.7
	c0.2,0,0.5,0,0.8,0c1.6,0,3.8-0.3,5.4-1.8c2.4-2.4,1.7-6.8,1.7-7c-0.1-0.4-0.4-0.8-0.8-0.8c-0.2,0-4.6-0.7-7,1.7c0,0,0,0,0,0.1V37
	c0.2,0.3,0.5,0.5,0.7,0.7c0.7,0.6,1.4,0.9,2,0.9c0.3,0,0.6-0.1,0.8-0.2c0.9-0.4,1.4-1.3,1.5-2.6c0-0.8-0.1-1.7-0.4-2.6
	c1,0.3,2,0.5,2.9,0.5c0.2,0,0.4,0,0.5,0c1.4-0.1,2.4-0.7,2.7-1.7c0.4-1,0.1-2-0.9-3.1C85.6,28.3,84.6,27.6,83.5,27.1z M25.9,45.7
	c1.2-1.2,3.4-1.3,4.5-1.2c0.1,1.1,0,3.3-1.2,4.5s-3.4,1.3-4.5,1.2C24.6,49.1,24.7,47,25.9,45.7z M22.6,50.3c-1.1,0.1-3.3,0-4.5-1.2
	s-1.3-3.4-1.2-4.5c1.1-0.1,3.3,0,4.5,1.2C22.7,47,22.7,49.1,22.6,50.3z M77.8,45.7c1.2-1.2,3.4-1.3,4.5-1.2c0.1,1.1,0,3.3-1.2,4.5
	s-3.4,1.3-4.5,1.2C76.5,49.1,76.6,47,77.8,45.7z M81.1,23.7c0.9-0.4,1.8-0.6,2.5-0.5c0.6,0,0.8,0.2,0.8,0.2s0,0.3-0.4,0.8
	c-0.5,0.5-1.2,1.1-2.1,1.5c-1.2,0.5-2.2,0.6-2.8,0.5c-0.1-0.3-0.2-0.5-0.3-0.7C79.1,24.8,79.9,24.2,81.1,23.7z M76.6,20.2
	c0.8-2.1,2.1-3,2.5-3h0.1c0.2,0.1,0.4,0.4,0.4,1c0.1,0.8-0.1,1.9-0.5,2.9c-0.5,1.3-1.3,2.2-1.9,2.7c-0.2-0.1-0.4-0.2-0.6-0.3
	c-0.2-0.1-0.4-0.1-0.6-0.2C76,22.7,76.1,21.5,76.6,20.2z M71.2,18.1L71.2,18.1c0.2,0,0.4,0.1,0.8,0.4c0.6,0.5,1.1,1.2,1.5,2.1
	c0.5,1.2,0.6,2.3,0.5,2.9c-0.1,0-0.2,0.1-0.4,0.1c-0.1,0.1-0.2,0.1-0.4,0.2c-0.5-0.3-1.2-1.1-1.8-2.3C70.6,19.5,70.9,18.2,71.2,18.1
	z M65.6,24.3c-0.5-0.5-0.5-0.9-0.5-1c0.1-0.2,0.6-0.4,1.4-0.4c0.7,0,1.5,0.1,2.6,0.5c1.3,0.5,2.2,1.3,2.7,1.8
	c-0.1,0.2-0.2,0.3-0.3,0.5c-0.1,0.2-0.1,0.4-0.2,0.5c-0.7,0.1-1.9,0-3.2-0.5C67,25.5,66.1,24.9,65.6,24.3z M69.3,31
	c-0.9,0.4-1.8,0.6-2.5,0.5c-0.6,0-0.8-0.2-0.9-0.3s0-0.4,0.4-0.8c0.5-0.6,1.2-1.1,2.1-1.5s1.7-0.5,2.3-0.5c0.2,0,0.4,0,0.5,0
	c0.1,0.3,0.2,0.5,0.3,0.8C71.3,29.8,70.5,30.5,69.3,31z M73.8,34.5c-0.4,1-1,1.9-1.6,2.5c-0.5,0.4-0.9,0.5-1,0.5
	c-0.2-0.1-0.4-0.4-0.4-1c-0.1-0.8,0.1-1.9,0.5-2.9c0.5-1.3,1.2-2.2,1.8-2.6c0.2,0.1,0.4,0.2,0.6,0.3c0.2,0.1,0.4,0.1,0.5,0.2
	C74.4,32,74.3,33.2,73.8,34.5z M70,49.1c-1.2-1.2-1.3-3.4-1.2-4.5c1.1-0.1,3.3,0,4.5,1.2c0.5,0.5,0.8,1.2,1,1.9v2.7
	C73.1,50.3,71.2,50.2,70,49.1z M51.8,50c1.2-1.2,3.4-1.3,4.5-1.2c0.1,1.1,0,3.3-1.2,4.5s-3.4,1.3-4.5,1.2
	C50.6,53.4,50.6,51.2,51.8,50z M53.3,42.6c-0.1,0-0.4,0-0.8-0.4c-0.6-0.5-1.1-1.2-1.5-2.1c-0.5-1.2-0.6-2.3-0.5-2.9
	c0.2,0,0.3-0.1,0.4-0.1c0.1,0,0.2-0.1,0.3-0.1c0.5,0.3,1.2,1.1,1.8,2.3c0.4,0.9,0.6,1.8,0.5,2.5C53.5,42.3,53.4,42.6,53.3,42.6z
	 M59,36.4c0.4,0.5,0.5,0.9,0.5,1c-0.1,0.2-0.4,0.4-1,0.4c-0.8,0.1-1.9-0.1-2.9-0.5c-1.3-0.5-2.2-1.2-2.6-1.8
	c0.1-0.2,0.2-0.4,0.3-0.6c0.1-0.2,0.1-0.4,0.2-0.6c0.7-0.1,1.9,0,3.2,0.5C57.5,35.2,58.4,35.7,59,36.4z M55.2,29.7
	c0.9-0.4,1.8-0.6,2.5-0.5c0.6,0,0.8,0.2,0.8,0.2s0,0.3-0.4,0.8c-0.5,0.5-1.2,1.1-2.1,1.5c-1.2,0.5-2.2,0.6-2.8,0.5
	c-0.1-0.3-0.2-0.5-0.3-0.7C53.3,30.8,54.1,30.2,55.2,29.7z M50.8,26.2c0.8-2.1,2.1-3,2.5-3h0.1c0.2,0.1,0.4,0.4,0.4,1
	c0.1,0.8-0.1,1.9-0.5,2.9c-0.5,1.3-1.3,2.2-1.9,2.7c-0.2-0.1-0.4-0.2-0.6-0.3c-0.2-0.1-0.4-0.1-0.6-0.2
	C50.2,28.7,50.3,27.5,50.8,26.2z M45.4,24.1L45.4,24.1c0.2,0,0.4,0.1,0.8,0.4c0.6,0.5,1.1,1.2,1.5,2.1c0.5,1.2,0.6,2.3,0.5,2.9
	c-0.1,0-0.2,0.1-0.4,0.1c-0.1,0.1-0.2,0.1-0.4,0.2c-0.5-0.3-1.2-1.1-1.8-2.3C44.8,25.5,45.1,24.2,45.4,24.1z M39.8,30.3
	c-0.5-0.5-0.5-0.9-0.5-1s0.4-0.3,1-0.4c0.1,0,0.2,0,0.3,0c0.8,0,1.7,0.2,2.6,0.5c1.3,0.5,2.2,1.3,2.7,1.8c-0.1,0.2-0.2,0.3-0.3,0.5
	s-0.1,0.4-0.2,0.5c-0.7,0.1-1.9,0-3.2-0.5C41.2,31.5,40.3,30.9,39.8,30.3z M43.5,37c-1.9,0.8-3.3,0.5-3.4,0.3
	C40,37,40.7,35.8,42.7,35c0.9-0.4,1.7-0.5,2.3-0.5c0.2,0,0.4,0,0.5,0c0,0.2,0.1,0.3,0.1,0.5c0,0.1,0.1,0.2,0.2,0.3
	C45.5,35.8,44.7,36.5,43.5,37z M47.9,40.5c-0.4,1-1,1.9-1.6,2.5c-0.5,0.4-0.9,0.5-1,0.5c-0.2-0.1-0.4-0.4-0.4-1
	c-0.1-0.8,0.1-1.9,0.5-2.9c0.5-1.3,1.2-2.2,1.8-2.6c0.2,0.1,0.4,0.2,0.6,0.3c0.2,0.1,0.4,0.1,0.5,0.2C48.5,38,48.4,39.2,47.9,40.5z
	 M47.7,34.1c-0.2-0.5-0.2-1,0-1.4c0.2-0.5,0.5-0.8,1-1c0.2-0.1,0.5-0.2,0.7-0.2s0.5,0,0.7,0.1l0,0c0.5,0.2,0.8,0.5,1,1s0.2,1,0,1.4
	c-0.2,0.5-0.5,0.8-1,1s-1,0.2-1.4,0C48.2,34.9,47.9,34.5,47.7,34.1z M42.9,48.8c1.1-0.1,3.3,0,4.5,1.2c0.6,0.6,1,1.6,1.1,2.4v2.1
	c-1.2,0.1-3.3,0-4.4-1.2C42.8,52.1,42.8,50,42.9,48.8z M27.5,36.6c-0.1,0-0.4,0-0.8-0.4c-0.6-0.5-1.1-1.2-1.5-2.1
	c-0.5-1.2-0.6-2.3-0.5-2.9c0.3-0.1,0.5-0.2,0.7-0.3c0.5,0.3,1.2,1.1,1.8,2.3c0.4,0.9,0.6,1.8,0.5,2.5C27.7,36.3,27.5,36.6,27.5,36.6
	z M33.1,30.4c0.4,0.5,0.5,0.9,0.5,1c-0.1,0.2-0.4,0.4-1,0.4c-0.8,0.1-1.9-0.1-2.9-0.5c-1.3-0.5-2.2-1.2-2.6-1.8
	c0.1-0.2,0.2-0.4,0.3-0.6c0.1-0.2,0.1-0.4,0.2-0.6c0.7-0.1,1.9,0,3.2,0.5C31.7,29.2,32.6,29.7,33.1,30.4z M29.4,23.7
	c1.9-0.8,3.2-0.5,3.4-0.3c0.1,0.2-0.6,1.4-2.5,2.2c-1.2,0.5-2.2,0.6-2.8,0.5c0-0.1-0.1-0.3-0.1-0.4c-0.1-0.1-0.1-0.2-0.2-0.4
	C27.5,24.8,28.2,24.2,29.4,23.7z M25,20.2c0.8-2.1,2.1-3,2.5-3h0.1c0.2,0.1,0.4,0.4,0.4,1c0.1,0.8-0.1,1.9-0.5,2.9
	c-0.5,1.3-1.3,2.2-1.9,2.7c-0.2-0.1-0.4-0.2-0.6-0.3c-0.2-0.1-0.4-0.1-0.6-0.2C24.4,22.7,24.4,21.5,25,20.2z M19.5,18.1
	C19.6,18.1,19.6,18.1,19.5,18.1c0.2,0,0.4,0.1,0.8,0.4c0.6,0.5,1.1,1.2,1.5,2.1c0.5,1.2,0.6,2.3,0.5,2.9c-0.1,0-0.2,0.1-0.4,0.1
	c-0.1,0.1-0.2,0.1-0.4,0.2c-0.5-0.3-1.2-1.1-1.8-2.3C19,19.5,19.3,18.2,19.5,18.1z M13.4,23.3c0.1-0.2,0.6-0.4,1.4-0.4
	c0.7,0,1.5,0.1,2.6,0.5c1.3,0.5,2.2,1.3,2.7,1.8c-0.1,0.2-0.2,0.3-0.3,0.5c-0.1,0.2-0.1,0.4-0.2,0.5c-0.7,0.1-1.9,0-3.2-0.5
	C14.2,25,13.3,23.7,13.4,23.3z M17.7,31c-1.9,0.8-3.3,0.5-3.4,0.3c0-0.1,0-0.4,0.4-0.8c0.5-0.6,1.2-1.1,2.1-1.5
	c0.9-0.4,1.7-0.5,2.3-0.5c0.2,0,0.4,0,0.5,0c0.1,0.3,0.2,0.5,0.3,0.8C19.6,29.8,18.9,30.5,17.7,31z M22.1,34.5c-0.4,1-1,1.9-1.6,2.5
	c-0.5,0.4-0.9,0.5-1,0.5c-0.2-0.1-0.4-0.4-0.4-1c-0.1-0.8,0.1-1.9,0.5-2.9c0.5-1.3,1.2-2.2,1.8-2.6c0.2,0.1,0.4,0.2,0.6,0.3
	c0.2,0.1,0.4,0.1,0.5,0.2C22.7,32,22.6,33.2,22.1,34.5z M21.8,26.7c0.2-0.5,0.5-0.8,1-1c0.2-0.1,0.5-0.2,0.7-0.2s0.5,0,0.7,0.1l0,0
	c0.5,0.2,0.8,0.5,1,1s0.2,1,0,1.4c-0.4,1-1.5,1.4-2.4,1.1C21.9,28.7,21.4,27.6,21.8,26.7z M84.7,78.7v6.5H15v-6.5H84.7z M18,76.7
	V65.5h63.8v11.2H18z M84.7,57v6.5H15V57H84.7z M76,29.1c-0.5,0.2-1,0.2-1.4,0c-1-0.4-1.4-1.5-1.1-2.4c0.2-0.5,0.5-0.8,1-1
	c0.2-0.1,0.5-0.2,0.7-0.2s0.5,0,0.7,0.1l0,0c0.5,0.2,0.8,0.5,1,1s0.2,1,0,1.4C76.8,28.5,76.4,28.9,76,29.1z M79.1,36.6
	c-0.1,0-0.4,0-0.8-0.4c-0.6-0.5-1.1-1.2-1.5-2.1c-0.5-1.2-0.6-2.3-0.5-2.9c0.2,0,0.3-0.1,0.4-0.1S76.9,31,77,31
	c0.5,0.3,1.2,1.1,1.8,2.3c0.4,0.9,0.6,1.8,0.5,2.5C79.4,36.3,79.2,36.6,79.1,36.6z M85.3,31.4c-0.1,0.2-0.4,0.4-1,0.4
	c-0.8,0.1-1.9-0.1-2.9-0.5c-1.3-0.5-2.2-1.2-2.6-1.8c0.1-0.2,0.2-0.4,0.3-0.6c0.1-0.2,0.1-0.4,0.2-0.6c0.7-0.1,1.9,0,3.2,0.5
	c1,0.4,1.9,1,2.5,1.6C85.2,30.8,85.3,31.2,85.3,31.4z"/>
</svg>
