<?xml version="1.0" encoding="utf-8"?>
<!-- Generator: Adobe Illustrator 21.1.0, SVG Export Plug-In . SVG Version: 6.00 Build 0)  -->
<svg version="1.1" id="Calque_1" xmlns="http://www.w3.org/2000/svg" xmlns:xlink="http://www.w3.org/1999/xlink" x="0px" y="0px"
	 viewBox="0 0 100 125" style="enable-background:new 0 0 100 125;" xml:space="preserve">
<style type="text/css">
	.st0{fill:#FFBBEF;}
</style>
<circle class="st0" cx="20.8" cy="82" r="1.2"/>
<circle class="st0" cx="20.8" cy="60.2" r="1.2"/>
<circle class="st0" cx="81.4" cy="60.2" r="1.2"/>
<circle class="st0" cx="81.4" cy="82" r="1.2"/>
<path class="st0" d="M85.5,27.1c0.8-0.5,1.6-1,2.1-1.6c0.8-1,1.1-2,0.7-2.9s-1.3-1.4-2.6-1.5c-0.8,0-1.7,0.1-2.5,0.4
	c0.4-1.2,0.6-2.4,0.5-3.4c-0.1-1.4-0.7-2.4-1.7-2.7c-1.7-0.7-3.8,0.9-5.1,3.7c-0.5-0.8-1-1.6-1.6-2.1c-1-0.8-2-1.1-2.9-0.7
	c-1.5,0.6-1.9,2.8-1.1,5.2c-2.9-1-5.4-0.6-6.1,1.1s0.9,3.8,3.7,5c-2.2,1.2-3.4,3-2.7,4.5c0.4,1,1.5,1.5,2.9,1.5
	c0.7,0,1.4-0.1,2.2-0.4c-0.4,1.2-0.6,2.3-0.5,3.4c0.1,1.4,0.7,2.4,1.7,2.7c0.3,0.1,0.5,0.2,0.8,0.2c0.7,0,1.5-0.3,2.3-1
	c0.3-0.3,0.6-0.6,0.8-0.9V44c-2.5-2-6.4-1.3-6.6-1.3c-0.4,0.1-0.8,0.4-0.8,0.8c0,0.2-0.7,4.6,1.7,7c1.5,1.5,3.8,1.8,5.4,1.8
	c0.1,0,0.2,0,0.4,0V55h-24v-2.7c0.2,0,0.5,0,0.7,0c1.6,0,3.8-0.3,5.4-1.8c2.4-2.4,1.7-6.8,1.7-7c-0.1-0.4-0.4-0.8-0.8-0.8
	c-0.2,0-4.5-0.7-7,1.6V37c0.2,0.3,0.5,0.5,0.7,0.7c0.7,0.6,1.4,0.9,2,0.9c0.3,0,0.6-0.1,0.8-0.2c0.9-0.4,1.4-1.3,1.5-2.6
	c0-0.8-0.1-1.7-0.4-2.6c1,0.3,2,0.5,2.9,0.5c0.2,0,0.4,0,0.5,0c1.4-0.1,2.4-0.7,2.7-1.7c0.4-1,0.1-2-0.9-3.1c-0.7-0.8-1.7-1.4-2.8-2
	c2.2-1.2,3.4-3,2.8-4.5c-0.6-1.4-2.7-1.8-5.1-1.1c0.4-1.2,0.6-2.4,0.5-3.4c-0.1-1.4-0.7-2.4-1.7-2.7c-1.7-0.7-3.8,0.9-5.1,3.7
	c-0.5-0.8-1-1.6-1.6-2.1c-1-0.8-2-1.1-2.9-0.7c-1.5,0.6-1.9,2.8-1.1,5.2c-2.9-1-5.4-0.6-6.1,1.1c-0.4,0.9-0.1,2,0.9,3.1
	c0.7,0.7,1.7,1.4,2.8,1.9c-0.8,0.5-1.5,1-2.1,1.6c-0.8,1-1.1,2-0.7,2.9c0.4,0.9,1.3,1.4,2.6,1.5c0.1,0,0.2,0,0.3,0
	c0.7,0,1.5-0.1,2.2-0.4c-0.4,1.2-0.6,2.3-0.5,3.4c0.1,1.4,0.7,2.4,1.7,2.7c0.3,0.1,0.5,0.2,0.8,0.2c0.7,0,1.5-0.3,2.3-1
	c0.3-0.3,0.6-0.6,0.8-0.9V44c-2.5-2.1-6.5-1.5-6.7-1.4c-0.4,0.1-0.8,0.4-0.8,0.8c0,0.2-0.7,4.6,1.7,7c1.5,1.5,3.8,1.8,5.4,1.8
	c0.2,0,0.3,0,0.5,0V55H26.7v-2.7c0.2,0,0.4,0,0.6,0c1.6,0,3.8-0.3,5.4-1.8c2.4-2.4,1.7-6.8,1.7-7c-0.1-0.4-0.4-0.8-0.8-0.8
	c-0.2,0-4.4-0.7-6.8,1.5V37c0.2,0.3,0.5,0.5,0.7,0.7c0.7,0.6,1.4,0.9,2,0.9c0.3,0,0.6-0.1,0.8-0.2c0.9-0.4,1.4-1.3,1.5-2.6
	c0-0.8-0.1-1.7-0.4-2.6c1,0.3,2,0.5,2.9,0.5c0.2,0,0.4,0,0.5,0c1.4-0.1,2.4-0.7,2.7-1.7c0.7-1.7-0.9-3.8-3.7-5
	c2.2-1.2,3.4-3,2.8-4.5c-0.6-1.4-2.7-1.8-5.1-1.1c0.4-1.2,0.6-2.4,0.5-3.4c-0.1-1.4-0.7-2.4-1.7-2.7c-1.7-0.7-3.8,0.9-5.1,3.7
	c-0.5-0.8-1-1.6-1.6-2.1c-1-0.8-2-1.1-2.9-0.7c-1.5,0.6-1.9,2.8-1.1,5.2c-2.9-1-5.4-0.6-6.1,1.1c-0.4,0.9-0.1,2,0.9,3.1
	c0.7,0.8,1.7,1.4,2.8,1.9c-2.2,1.2-3.4,3.1-2.8,4.5c0.4,0.9,1.3,1.4,2.6,1.5c0.1,0,0.2,0,0.3,0c0.7,0,1.5-0.1,2.2-0.4
	c-0.4,1.2-0.6,2.3-0.5,3.4c0.1,1.4,0.7,2.4,1.7,2.7c0.3,0.1,0.5,0.2,0.8,0.2c0.7,0,1.5-0.3,2.3-1c0.3-0.3,0.6-0.6,0.8-0.9v6.7
	c-2.5-2.2-6.7-1.6-6.8-1.5c-0.4,0.1-0.8,0.4-0.8,0.8c0,0.2-0.7,4.6,1.7,7c1.5,1.5,3.8,1.8,5.4,1.8c0.2,0,0.4,0,0.6,0V55h-9.3
	c-0.6,0-1,0.4-1,1v8.5c0,0.6,0.4,1,1,1h2v11.2h-2c-0.6,0-1,0.4-1,1v8.5c0,0.6,0.4,1,1,1H87c0.6,0,1-0.4,1-1v-8.5c0-0.6-0.4-1-1-1
	h-1.9V65.5H87c0.6,0,1-0.4,1-1V56c0-0.6-0.4-1-1-1h-8.7v-2.7c0.2,0,0.5,0,0.8,0c1.6,0,3.8-0.3,5.4-1.8c2.4-2.4,1.7-6.8,1.7-7
	c-0.1-0.4-0.4-0.8-0.8-0.8c-0.2,0-4.6-0.7-7,1.7c0,0,0,0,0,0.1V37c0.2,0.3,0.5,0.5,0.7,0.7c0.7,0.6,1.4,0.9,2,0.9
	c0.3,0,0.6-0.1,0.8-0.2c0.9-0.4,1.4-1.3,1.5-2.6c0-0.8-0.1-1.7-0.4-2.6c1,0.3,2,0.5,2.9,0.5c0.2,0,0.4,0,0.5,0
	c1.4-0.1,2.4-0.7,2.7-1.7c0.4-1,0.1-2-0.9-3.1C87.6,28.3,86.6,27.6,85.5,27.1z M53.9,45.7c1.2-1.2,3.4-1.3,4.5-1.2
	c0.1,1.1,0,3.3-1.2,4.5s-3.4,1.3-4.5,1.2C52.6,49.1,52.7,47,53.9,45.7z M27.9,45.7c1.2-1.2,3.4-1.3,4.5-1.2c0.1,1.1,0,3.3-1.2,4.5
	s-3.4,1.3-4.5,1.2C26.6,49.1,26.7,47,27.9,45.7z M24.7,50.3c-1.1,0.1-3.3,0-4.5-1.2s-1.3-3.4-1.2-4.5c1.1-0.1,3.3,0,4.5,1.2
	S24.7,49.1,24.7,50.3z M79.8,45.7c1.2-1.2,3.4-1.3,4.5-1.2c0.1,1.1,0,3.3-1.2,4.5s-3.4,1.3-4.5,1.2C78.5,49.1,78.6,47,79.8,45.7z
	 M83.1,23.7c0.9-0.4,1.8-0.6,2.5-0.5c0.6,0,0.8,0.2,0.8,0.2s0,0.3-0.4,0.8c-0.5,0.5-1.2,1.1-2.1,1.5c-1.2,0.5-2.2,0.6-2.8,0.5
	c-0.1-0.3-0.2-0.5-0.3-0.7C81.1,24.8,81.9,24.2,83.1,23.7z M78.7,20.2c0.8-2.1,2.1-3,2.5-3h0.1c0.2,0.1,0.4,0.4,0.4,1
	c0.1,0.8-0.1,1.9-0.5,2.9c-0.5,1.3-1.3,2.2-1.9,2.7c-0.2-0.1-0.4-0.2-0.6-0.3c-0.2-0.1-0.4-0.1-0.6-0.2C78,22.7,78.1,21.5,78.7,20.2
	z M73.2,18.1C73.2,18.1,73.3,18.1,73.2,18.1c0.2,0,0.4,0.1,0.8,0.4c0.6,0.5,1.1,1.2,1.5,2.1c0.5,1.2,0.6,2.3,0.5,2.9
	c-0.1,0-0.2,0.1-0.4,0.1c-0.1,0.1-0.2,0.1-0.4,0.2c-0.5-0.3-1.2-1.1-1.8-2.3C72.7,19.5,73,18.2,73.2,18.1z M67.1,23.3
	c0.1-0.2,0.6-0.4,1.4-0.4c0.7,0,1.5,0.1,2.6,0.5c1.3,0.5,2.2,1.3,2.7,1.8c-0.1,0.2-0.2,0.3-0.3,0.5c-0.1,0.2-0.1,0.4-0.2,0.5
	c-0.7,0.1-1.9,0-3.2-0.5C67.9,25,67,23.7,67.1,23.3z M71.4,31c-1.9,0.8-3.3,0.5-3.4,0.3c-0.1-0.3,0.6-1.4,2.5-2.3
	c0.9-0.4,1.7-0.5,2.3-0.5c0.2,0,0.4,0,0.5,0c0,0.2,0.1,0.3,0.1,0.5c0,0.1,0.1,0.2,0.2,0.3C73.3,29.8,72.5,30.5,71.4,31z M75.8,34.5
	c-0.4,1-1,1.9-1.6,2.5c-0.5,0.4-0.9,0.5-1,0.5c-0.2-0.1-0.4-0.4-0.4-1c-0.1-0.8,0.1-1.9,0.5-2.9c0.5-1.3,1.2-2.2,1.8-2.6
	c0.2,0.1,0.4,0.2,0.6,0.3c0.2,0.1,0.4,0.1,0.5,0.2C76.4,32,76.3,33.2,75.8,34.5z M72,49.1c-1.2-1.2-1.3-3.4-1.2-4.5
	c1.1-0.1,3.3,0,4.5,1.2c0.5,0.5,0.8,1.2,1,1.9v2.7C75.2,50.3,73.2,50.2,72,49.1z M55.3,36.6c-0.1,0-0.4,0-0.8-0.4
	c-0.6-0.5-1.1-1.2-1.5-2.1c-0.5-1.2-0.6-2.3-0.5-2.9c0.3-0.1,0.5-0.2,0.7-0.3c0.5,0.3,1.2,1.1,1.8,2.3c0.4,0.9,0.6,1.8,0.5,2.5
	C55.6,36.3,55.4,36.6,55.3,36.6z M61,30.4c0.4,0.5,0.5,0.9,0.5,1c-0.1,0.2-0.4,0.4-1,0.4c-0.8,0.1-1.9-0.1-2.9-0.5
	c-1.3-0.5-2.2-1.2-2.6-1.8c0.1-0.2,0.2-0.4,0.3-0.6s0.1-0.4,0.2-0.6c0.7-0.1,1.9,0,3.2,0.5C59.5,29.2,60.4,29.7,61,30.4z M57.3,23.7
	c1.9-0.8,3.2-0.5,3.4-0.3c0.1,0.2-0.6,1.4-2.5,2.2c-1.2,0.5-2.2,0.6-2.8,0.5c0-0.1-0.1-0.3-0.1-0.4c-0.1-0.1-0.1-0.2-0.2-0.4
	C55.3,24.8,56.1,24.2,57.3,23.7z M52.8,20.2c0.8-2.1,2.1-3,2.5-3h0.1c0.2,0.1,0.4,0.4,0.4,1c0.1,0.8-0.1,1.9-0.5,2.9
	c-0.5,1.3-1.3,2.2-1.9,2.7c-0.2-0.1-0.4-0.2-0.6-0.3c-0.2-0.1-0.4-0.1-0.6-0.2C52.2,22.7,52.3,21.5,52.8,20.2z M47.4,18.1L47.4,18.1
	c0.2,0,0.4,0.1,0.8,0.4c0.6,0.5,1.1,1.2,1.5,2.1c0.5,1.2,0.6,2.3,0.5,2.9c-0.1,0-0.2,0.1-0.4,0.1c-0.1,0.1-0.2,0.1-0.4,0.2
	c-0.5-0.3-1.2-1.1-1.8-2.3C46.8,19.5,47.1,18.2,47.4,18.1z M41.8,24.3c-0.5-0.5-0.5-0.9-0.5-1c0.1-0.2,0.6-0.4,1.4-0.4
	c0.7,0,1.5,0.1,2.6,0.5c1.3,0.5,2.2,1.3,2.7,1.8c-0.1,0.2-0.2,0.3-0.3,0.5s-0.1,0.4-0.2,0.5c-0.7,0.1-1.9,0-3.2-0.5
	C43.2,25.5,42.3,24.9,41.8,24.3z M45.5,31c-0.9,0.4-1.8,0.6-2.5,0.5c-0.6,0-0.8-0.2-0.9-0.3c0-0.1,0-0.4,0.4-0.8
	c0.5-0.6,1.2-1.1,2.1-1.5c0.9-0.4,1.7-0.5,2.3-0.5c0.2,0,0.4,0,0.5,0c0.1,0.3,0.2,0.5,0.3,0.8C47.5,29.8,46.7,30.5,45.5,31z
	 M50,34.5c-0.4,1-1,1.9-1.6,2.5c-0.5,0.4-0.9,0.5-1,0.5c-0.2-0.1-0.4-0.4-0.4-1c-0.1-0.8,0.1-1.9,0.5-2.9c0.5-1.3,1.2-2.2,1.8-2.6
	c0.2,0.1,0.4,0.2,0.6,0.3c0.2,0.1,0.4,0.1,0.5,0.2C50.6,32,50.5,33.2,50,34.5z M49.7,26.7c0.2-0.5,0.5-0.8,1-1
	c0.2-0.1,0.5-0.2,0.7-0.2s0.5,0,0.7,0.1l0,0c0.5,0.2,0.8,0.5,1,1s0.2,1,0,1.4c-0.4,1-1.5,1.4-2.4,1.1C49.8,28.7,49.3,27.6,49.7,26.7
	z M46.1,49.1c-1.2-1.2-1.3-3.4-1.2-4.5c1.1-0.1,3.3,0,4.5,1.2c0.6,0.6,1,1.6,1.1,2.4v2.1C49.4,50.3,47.3,50.2,46.1,49.1z M29.5,36.6
	c-0.1,0-0.4,0-0.8-0.4c-0.6-0.5-1.1-1.2-1.5-2.1c-0.5-1.2-0.6-2.3-0.5-2.9c0.3-0.1,0.5-0.2,0.7-0.3c0.5,0.3,1.2,1.1,1.8,2.3
	c0.4,0.9,0.6,1.8,0.5,2.5C29.7,36.3,29.6,36.6,29.5,36.6z M35.7,31.4c-0.1,0.2-0.4,0.4-1,0.4c-0.8,0.1-1.9-0.1-2.9-0.5
	c-1.3-0.5-2.2-1.2-2.6-1.8c0.1-0.2,0.2-0.4,0.3-0.6c0.1-0.2,0.1-0.4,0.2-0.6c0.7-0.1,1.9,0,3.2,0.5C34.9,29.6,35.8,31,35.7,31.4z
	 M31.4,23.7c1.9-0.8,3.2-0.5,3.4-0.3c0.1,0.2-0.6,1.4-2.5,2.2c-1.2,0.5-2.2,0.6-2.8,0.5c-0.1-0.3-0.2-0.5-0.3-0.7
	C29.5,24.8,30.3,24.2,31.4,23.7z M27,20.2c0.8-2.1,2.1-3,2.5-3h0.1c0.2,0.1,0.4,0.4,0.4,1c0.1,0.8-0.1,1.9-0.5,2.9
	c-0.5,1.3-1.3,2.2-1.9,2.7c-0.2-0.1-0.4-0.2-0.6-0.3c-0.2-0.1-0.4-0.1-0.6-0.2C26.4,22.7,26.5,21.5,27,20.2z M21.6,18.1L21.6,18.1
	c0.2,0,0.4,0.1,0.8,0.4c0.6,0.5,1.1,1.2,1.5,2.1c0.5,1.2,0.6,2.3,0.5,2.9c-0.1,0-0.2,0.1-0.4,0.1c-0.1,0.1-0.2,0.1-0.4,0.2
	c-0.5-0.3-1.2-1.1-1.8-2.3C21,19.5,21.3,18.2,21.6,18.1z M16,24.3c-0.5-0.5-0.5-0.9-0.5-1c0.1-0.2,0.6-0.4,1.4-0.4
	c0.7,0,1.5,0.1,2.6,0.5c1.3,0.5,2.2,1.3,2.7,1.8c-0.1,0.2-0.2,0.3-0.3,0.5c-0.1,0.2-0.1,0.4-0.2,0.5c-0.7,0.1-1.9,0-3.2-0.5
	C17.4,25.5,16.5,24.9,16,24.3z M19.7,31c-0.9,0.4-1.8,0.6-2.5,0.5c-0.6,0-0.8-0.2-0.9-0.3c-0.1-0.3,0.6-1.4,2.5-2.3
	c0.9-0.4,1.7-0.5,2.3-0.5c0.2,0,0.4,0,0.5,0c0.1,0.3,0.2,0.5,0.3,0.8C21.7,29.8,20.9,30.5,19.7,31z M24.1,34.5c-0.4,1-1,1.9-1.6,2.5
	c-0.5,0.4-0.9,0.5-1,0.5c-0.2-0.1-0.4-0.4-0.4-1c-0.1-0.8,0.1-1.9,0.5-2.9c0.5-1.3,1.2-2.2,1.8-2.6c0.2,0.1,0.4,0.2,0.6,0.3
	c0.2,0.1,0.4,0.1,0.5,0.2C24.7,32,24.7,33.2,24.1,34.5z M23.8,26.7c0.2-0.5,0.5-0.8,1-1c0.2-0.1,0.5-0.2,0.7-0.2s0.5,0,0.7,0.1l0,0
	c1,0.4,1.4,1.5,1.1,2.4c-0.4,1-1.5,1.4-2.4,1.1C23.9,28.7,23.5,27.6,23.8,26.7z M86,78.7v6.5H16.4v-6.5H86z M23.7,68.6L28,71
	l-4.8,2.7l-3.8-2.1v-0.5L23.7,68.6z M19.4,68.8v-2.6l2.3,1.3L19.4,68.8z M22.3,65.5H25l-1.3,0.8L22.3,65.5z M37.1,68.1l5.1,2.9
	l-5.1,2.9L32,71L37.1,68.1z M36.5,65.5h1.2l-0.6,0.3L36.5,65.5z M51.4,68.1l5.1,2.9l-5.1,2.9L46.3,71L51.4,68.1z M50.8,65.5H52
	l-0.6,0.3L50.8,65.5z M65.6,68.1l5.1,2.9l-5.1,2.9L60.5,71L65.6,68.1z M65,65.5h1.2l-0.6,0.3L65,65.5z M79.7,68.3l3.5,1.9v1.4
	l-3.6,2.1L74.8,71L79.7,68.3z M78.8,65.5h1.7L79.6,66L78.8,65.5z M81.7,67.1l1.4-0.8v1.6L81.7,67.1z M83.1,73.9v1.8l-1.6-0.9
	L83.1,73.9z M80.8,76.7h-2.6l1.3-0.8L80.8,76.7z M77.5,74.8l-3.3,1.9c0,0,0,0-0.1,0h-3.6c0,0,0,0-0.1,0l-2.9-1.6l5.1-2.9L77.5,74.8z
	 M72.8,69.9L67.7,67l2.5-1.4c0,0,0,0,0.1,0h4.4l2.9,1.6L72.8,69.9z M66.5,76.7h-1.8l0.9-0.5L66.5,76.7z M63.6,75.1l-2.9,1.6
	c0,0,0,0-0.1,0h-4.4c0,0,0,0-0.1,0l-2.9-1.6l5.1-2.9L63.6,75.1z M58.5,69.9L53.4,67l2.5-1.4c0,0,0,0,0.1,0h5c0,0,0,0,0.1,0l2.5,1.4
	L58.5,69.9z M52.3,76.7h-1.8l0.9-0.5L52.3,76.7z M49.4,75.1l-2.9,1.6c0,0,0,0-0.1,0H42c0,0,0,0-0.1,0L39,75.1l5.1-2.9L49.4,75.1z
	 M44.3,69.9L39.2,67l2.5-1.4c0,0,0,0,0.1,0h5c0,0,0,0,0.1,0l2.5,1.4L44.3,69.9z M38,76.7h-1.8l0.9-0.5L38,76.7z M35.1,75.1l-2.9,1.6
	c0,0,0,0-0.1,0h-3.6l-3.3-1.9l4.8-2.7L35.1,75.1z M30,69.9l-4.3-2.5l3.3-1.9h3.6c0,0,0,0,0.1,0l2.5,1.4L30,69.9z M24.4,76.7H22
	l1.2-0.7L24.4,76.7z M21.2,74.9l-1.8,1v-2L21.2,74.9z M86,57v6.5H16.4V57H86z M76.5,29.1c-0.5-0.2-0.8-0.5-1-1s-0.2-1,0-1.4
	c0.2-0.5,0.5-0.8,1-1c0.2-0.1,0.5-0.2,0.7-0.2s0.5,0,0.7,0.1l0,0c0.5,0.2,0.8,0.5,1,1s0.2,1,0,1.4C78.6,29,77.5,29.5,76.5,29.1z
	 M81.2,36.6c-0.1,0-0.4,0-0.8-0.4c-0.6-0.5-1.1-1.2-1.5-2.1c-0.5-1.2-0.6-2.3-0.5-2.9c0.3-0.1,0.5-0.2,0.7-0.3
	c0.5,0.3,1.2,1.1,1.8,2.3c0.4,0.9,0.6,1.8,0.5,2.5C81.4,36.3,81.2,36.6,81.2,36.6z M87.3,31.4c-0.1,0.2-0.4,0.4-1,0.4
	c-0.8,0.1-1.9-0.1-2.9-0.5c-1.3-0.5-2.2-1.2-2.6-1.8c0.1-0.2,0.2-0.4,0.3-0.6c0.1-0.2,0.1-0.4,0.2-0.6c0.7-0.1,1.9,0,3.2,0.5
	c1,0.4,1.9,1,2.5,1.6C87.3,30.8,87.4,31.2,87.3,31.4z"/>
</svg>
