<?xml version="1.0" encoding="utf-8"?>
<!-- Generator: Adobe Illustrator 21.1.0, SVG Export Plug-In . SVG Version: 6.00 Build 0)  -->
<svg version="1.1" id="Calque_1" xmlns="http://www.w3.org/2000/svg" xmlns:xlink="http://www.w3.org/1999/xlink" x="0px" y="0px"
	 viewBox="0 0 100 125" style="enable-background:new 0 0 100 125;" xml:space="preserve">
<style type="text/css">
	.st0{fill:#FFBBEF;}
</style>
<path class="st0" d="M86.8,59c0.6,0,1-0.4,1-1v-8.5c0-0.6-0.4-1-1-1H74.3c0.8-1.4,1.3-2.9,1.7-4.6c0.1,0,0.2,0,0.3,0
	c1.8,0,3.7-0.5,5.4-1.5c4.4-2.5,6.3-7.3,4.4-10.7s-7.1-4.1-11.4-1.5c-0.2,0.1-0.3,0.2-0.5,0.3c-1.5-2.6-3.6-4.6-6.1-5.5
	c-0.1-0.2-0.1-0.4-0.2-0.5c1-1,1.8-2.3,2.1-3.6c0.3-1.6,0-3-0.9-4.1s-2.3-1.6-3.9-1.4c-1.4,0.1-2.9,0.8-4.1,1.8
	c-2.4-1.1-5-1.2-7.1,0c-2.2,1.1-3.6,3.3-4.1,6.2c-0.4,2.7,0.1,5.7,1.6,8.5c0.7,1.4,1.6,2.6,2.6,3.6c-0.1,0.6-0.2,1.2-0.3,1.9
	c-1.4,0.2-2.8,0.8-3.7,1.7c-1.2,1.1-1.8,2.4-1.7,3.8c0.1,1.4,0.9,2.6,2.3,3.5c1.1,0.7,2.4,1,3.8,1c0.2,0,0.5,0,0.7,0
	c0.2,0.4,0.4,0.9,0.6,1.3H44.5V36.4c0-4.3-3.5-7.8-7.8-7.8c-0.4,0-0.7,0-1.1,0.1v-4.3c0-4.3-3.5-7.8-7.8-7.8S20,20.1,20,24.4v24h-5
	c-0.6,0-1,0.4-1,1V58c0,0.6,0.4,1,1,1h2v3.9h-2c-0.6,0-1,0.4-1,1v8.5c0,0.6,0.4,1,1,1h2v3.9h-2c-0.6,0-1,0.4-1,1v8.5
	c0,0.6,0.4,1,1,1h71.6c0.6,0,1-0.4,1-1v-8.5c0-0.6-0.4-1-1-1h-1.9v-3.9h1.9c0.6,0,1-0.4,1-1v-8.5c0-0.6-0.4-1-1-1h-1.9V59H86.8z
	 M75.7,31.9c3.4-2,7.3-1.6,8.7,0.8c1.4,2.4-0.2,6-3.6,7.9c-1.4,0.8-2.9,1.2-4.4,1.2c0.1-0.8,0.1-1.5,0.1-2.3c0-2.6-0.5-5.1-1.4-7.3
	C75.3,32.2,75.5,32.1,75.7,31.9z M65.3,17.4c1-0.1,1.8,0.2,2.3,0.8c0.5,0.6,0.7,1.4,0.5,2.3c-0.2,0.8-0.5,1.5-1.1,2.2
	c-1.1-1.8-2.5-3.3-4-4.4C63.7,17.8,64.5,17.5,65.3,17.4z M51.6,44.5c-0.8-0.5-1.3-1.2-1.4-2c-0.1-0.8,0.3-1.5,1-2.2
	c0.6-0.5,1.4-0.9,2.3-1.1c0,0.1,0,0.2,0,0.4c0,1.9,0.3,3.8,0.8,5.6C53.3,45.2,52.4,45,51.6,44.5z M54.7,33.1
	c-0.6-0.7-1.1-1.5-1.5-2.3c-1.2-2.4-1.7-4.9-1.4-7.2c0.3-2.2,1.4-3.9,3-4.7c3.4-1.8,8.3,0.6,10.8,5.4v0.1c0,0.1,0.1,0.1,0.1,0.2
	c-0.2,0-0.4,0-0.7,0C60.5,24.5,56.5,28,54.7,33.1z M55.5,39.6c0-7.2,4.3-13.1,9.5-13.1s9.5,5.9,9.5,13.1c0,3.3-0.9,6.4-2.5,8.9H58.1
	C56.4,46,55.5,42.9,55.5,39.6z M36.8,30.6c3.2,0,5.8,2.6,5.8,5.8v12.1H31V36.4C31,33.2,33.6,30.6,36.8,30.6z M22.1,24.5
	c0-3.2,2.6-5.8,5.8-5.8s5.8,2.6,5.8,5.8v4.8c-2.8,1.2-4.7,3.9-4.7,7.1v12.1h-6.9V24.5z M85.8,79.3v6.5H16.2v-6.5H85.8z M19.1,77.3
	v-3.9h63.8v3.9H19.1z M85.8,64.9v6.5H16.2v-6.5H85.8z M19.1,62.9V59h63.8v3.9H19.1z M16.2,57v-6.5h69.6V57H16.2z"/>
<circle class="st0" cx="20.5" cy="53.7" r="1.2"/>
<circle class="st0" cx="20.5" cy="68.1" r="1.2"/>
<circle class="st0" cx="20.5" cy="82.5" r="1.2"/>
<circle class="st0" cx="81.1" cy="53.7" r="1.2"/>
<circle class="st0" cx="81.1" cy="68.1" r="1.2"/>
<circle class="st0" cx="81.1" cy="82.5" r="1.2"/>
<circle class="st0" cx="63.7" cy="39.5" r="1.1"/>
<circle class="st0" cx="67.5" cy="45.5" r="1.1"/>
<circle class="st0" cx="63.9" cy="34.2" r="0.8"/>
<circle class="st0" cx="70.3" cy="33.4" r="0.8"/>
<circle class="st0" cx="61" cy="30.8" r="0.8"/>
<circle class="st0" cx="61.9" cy="22.5" r="0.8"/>
<circle class="st0" cx="54.5" cy="28.8" r="0.8"/>
<circle class="st0" cx="66.3" cy="19.4" r="0.8"/>
<circle class="st0" cx="52.1" cy="42.5" r="0.8"/>
<circle class="st0" cx="79.5" cy="39.2" r="0.8"/>
<circle class="st0" cx="77.4" cy="33.4" r="0.8"/>
<circle class="st0" cx="71.1" cy="42.9" r="0.8"/>
<circle class="st0" cx="57.3" cy="42.9" r="0.8"/>
<circle class="st0" cx="55.6" cy="25.5" r="1.1"/>
<circle class="st0" cx="56.7" cy="21.4" r="1.1"/>
<circle class="st0" cx="81.7" cy="34.6" r="1.1"/>
<circle class="st0" cx="66.3" cy="30.8" r="1.1"/>
<circle class="st0" cx="69.8" cy="38.4" r="1.1"/>
<circle class="st0" cx="58.4" cy="38.1" r="1.1"/>
<circle class="st0" cx="61.6" cy="45.1" r="1.1"/>
<circle class="st0" cx="26.6" cy="25.4" r="1.1"/>
<circle class="st0" cx="24.2" cy="46.7" r="1.1"/>
<circle class="st0" cx="33.7" cy="36.2" r="0.8"/>
<circle class="st0" cx="25.7" cy="21.3" r="0.8"/>
<circle class="st0" cx="30" cy="22.7" r="0.8"/>
<circle class="st0" cx="27.5" cy="35.4" r="0.8"/>
<circle class="st0" cx="24" cy="37.8" r="0.8"/>
<circle class="st0" cx="27" cy="44.6" r="0.8"/>
<circle class="st0" cx="31.5" cy="27.2" r="0.8"/>
<circle class="st0" cx="23.6" cy="42.4" r="0.8"/>
<circle class="st0" cx="24.2" cy="28.8" r="0.8"/>
<circle class="st0" cx="36.4" cy="32.9" r="0.8"/>
<circle class="st0" cx="32.3" cy="44.8" r="0.8"/>
<circle class="st0" cx="40" cy="44.6" r="0.8"/>
<circle class="st0" cx="39.4" cy="35.1" r="1.1"/>
<circle class="st0" cx="27" cy="40.2" r="1.1"/>
<circle class="st0" cx="24.2" cy="32.9" r="1.1"/>
<circle class="st0" cx="28.5" cy="29.6" r="1.1"/>
<circle class="st0" cx="38.9" cy="40" r="1.1"/>
<circle class="st0" cx="33.7" cy="41" r="1.1"/>
<circle class="st0" cx="35.9" cy="46.7" r="1.1"/>
</svg>
