<?xml version="1.0" encoding="utf-8"?>
<!-- Generator: Adobe Illustrator 21.1.0, SVG Export Plug-In . SVG Version: 6.00 Build 0)  -->
<svg version="1.1" id="Calque_1" xmlns="http://www.w3.org/2000/svg" xmlns:xlink="http://www.w3.org/1999/xlink" x="0px" y="0px"
	 viewBox="0 0 100 125" style="enable-background:new 0 0 100 125;" xml:space="preserve">
<style type="text/css">
	.st0{fill:#FFBBEF;}
</style>
<path class="st0" d="M14.4,87.5H86c0.6,0,1-0.4,1-1V78c0-0.6-0.4-1-1-1h-1.9V58.7H86c0.6,0,1-0.4,1-1v-8.5c0-0.6-0.4-1-1-1h-9.2
	c0.9-1.5,1.6-3.2,2-5c0.1,0,0.2,0,0.3,0c1.8,0,3.7-0.5,5.4-1.5c2.1-1.2,3.7-2.9,4.5-4.9c0.9-2.1,0.8-4.1-0.1-5.8c-1-1.7-2.7-2.7-5-3
	c-2.1-0.2-4.4,0.3-6.5,1.5c-0.2,0.1-0.3,0.2-0.5,0.3c-1.5-2.6-3.6-4.6-6.1-5.5c-0.1-0.2-0.1-0.4-0.2-0.5c2.4-2.3,2.9-5.7,1.1-7.7
	c-1.8-2.1-5.4-1.9-8,0.3c-2.5-1.1-5-1.2-7.2,0c-2.2,1.1-3.6,3.3-4.1,6.2c-0.4,2.7,0.1,5.7,1.6,8.5c0.7,1.4,1.6,2.6,2.6,3.6
	c-0.1,0.6-0.2,1.2-0.3,1.8C53.2,37,50.8,39.4,51,42c0.1,1.4,0.9,2.6,2.3,3.5c1.1,0.7,2.4,1,3.8,1c0.2,0,0.5,0,0.7,0
	c0.3,0.6,0.6,1.2,0.9,1.7H39.6c0.9-1.5,1.6-3.2,2-5c0.1,0,0.2,0,0.3,0c1.8,0,3.7-0.5,5.4-1.5c2.1-1.2,3.7-2.9,4.5-4.9
	c0.9-2.1,0.8-4.1-0.1-5.8c-1-1.7-2.7-2.7-5-3c-2.1-0.2-4.4,0.3-6.5,1.5c-0.2,0.1-0.3,0.2-0.5,0.3c-1.5-2.6-3.6-4.6-6.1-5.5
	c-0.1-0.2-0.1-0.4-0.2-0.5c2.4-2.3,2.9-5.7,1.1-7.7c-1.8-2.1-5.4-1.9-8,0.3c-2.4-1.1-5-1.2-7.1,0c-2.2,1.1-3.6,3.3-4.1,6.2
	c-0.4,2.7,0.1,5.7,1.6,8.5c0.7,1.4,1.6,2.6,2.6,3.6c-0.1,0.6-0.2,1.2-0.3,1.8C16,37,13.6,39.4,13.8,42c0.1,1.4,0.9,2.6,2.3,3.5
	c1.1,0.7,2.4,1,3.8,1c0.2,0,0.5,0,0.7,0c0.3,0.6,0.6,1.2,0.9,1.7h-7.1c-0.6,0-1,0.4-1,1v8.5c0,0.6,0.4,1,1,1h2V77h-2
	c-0.6,0-1,0.4-1,1v8.5C13.4,87.1,13.9,87.5,14.4,87.5z M78.4,31.2c1.7-1,3.6-1.4,5.2-1.2c1.6,0.2,2.8,0.9,3.4,2c0.6,1.1,0.7,2.5,0,4
	c-0.7,1.6-2,3-3.7,3.9c-1.4,0.8-2.9,1.2-4.4,1.2c0.1-0.8,0.1-1.5,0.1-2.3c0-2.6-0.5-5.1-1.4-7.3C78,31.5,78.2,31.3,78.4,31.2z
	 M41.3,31.2c1.7-1,3.6-1.4,5.2-1.2c1.6,0.2,2.8,0.9,3.4,2c0.6,1.1,0.7,2.5,0,4c-0.7,1.6-2,3-3.7,3.9c-1.4,0.8-2.9,1.2-4.4,1.2
	c0.1-0.8,0.1-1.5,0.1-2.3c0-2.6-0.5-5.1-1.4-7.3C40.9,31.5,41,31.3,41.3,31.2z M70.3,17.4c0.9,1.1,0.6,3-0.6,4.5
	c-1.1-1.8-2.4-3.3-4-4.4C67.3,16.4,69.3,16.3,70.3,17.4z M54.3,43.8c-0.8-0.5-1.3-1.2-1.4-2c-0.1-1.4,1.3-2.8,3.3-3.3
	c0,0.1,0,0.2,0,0.4c0,1.9,0.3,3.8,0.8,5.6C56.1,44.5,55.1,44.2,54.3,43.8z M57.4,32.4c-0.6-0.7-1.1-1.5-1.5-2.3
	c-1.2-2.4-1.7-4.9-1.4-7.2c0.3-2.2,1.4-3.9,3-4.7c1.6-0.8,3.6-0.8,5.6,0.2c2.1,1,3.9,2.9,5.2,5.2v0.1c0,0.1,0.1,0.1,0.1,0.2
	c-0.2,0-0.4,0-0.7,0C63.2,23.8,59.2,27.3,57.4,32.4z M58.3,38.9c0-7.2,4.3-13.1,9.5-13.1s9.5,5.9,9.5,13.1c0,3.4-1,6.7-2.7,9.1
	c0,0.1-0.1,0.1-0.1,0.2H61c0-0.1,0-0.1-0.1-0.2C59.2,45.5,58.3,42.3,58.3,38.9z M33.1,17.4c0.9,1.1,0.6,3-0.6,4.5
	c-1.1-1.8-2.5-3.3-4-4.4C30.2,16.4,32.1,16.3,33.1,17.4z M17.2,43.8c-0.8-0.5-1.3-1.2-1.4-2c-0.1-1.4,1.3-2.8,3.3-3.3
	c0,0.1,0,0.2,0,0.4c0,1.9,0.3,3.8,0.8,5.6C18.9,44.5,17.9,44.2,17.2,43.8z M20.2,32.4c-0.6-0.7-1.1-1.5-1.5-2.3
	c-1.2-2.4-1.7-4.9-1.4-7.2c0.3-2.2,1.4-3.9,3-4.7c3.4-1.8,8.3,0.6,10.8,5.5c0,0.1,0.1,0.1,0.1,0.2c-0.2,0-0.4,0-0.7,0
	C26,23.8,22.1,27.3,20.2,32.4z M21.1,38.9c0-7.2,4.3-13.1,9.5-13.1s9.5,5.9,9.5,13.1c0,3.4-1,6.7-2.7,9.1c0,0.1-0.1,0.1-0.1,0.2
	H23.9c0-0.1,0-0.1-0.1-0.2C22,45.5,21.1,42.3,21.1,38.9z M15.4,56.7v-6.5H85v6.5H15.4z M82.1,58.7V77H18.4V58.7H82.1z M15.4,79H85
	v6.5H15.4V79z"/>
<circle class="st0" cx="19.8" cy="53.5" r="1.2"/>
<circle class="st0" cx="19.8" cy="82.3" r="1.2"/>
<circle class="st0" cx="80.4" cy="53.5" r="1.2"/>
<circle class="st0" cx="80.4" cy="82.3" r="1.2"/>
<circle class="st0" cx="29.3" cy="38.8" r="1.1"/>
<circle class="st0" cx="33.1" cy="44.7" r="1.1"/>
<circle class="st0" cx="29.4" cy="33.5" r="0.8"/>
<circle class="st0" cx="35.9" cy="32.6" r="0.8"/>
<circle class="st0" cx="26.6" cy="30.1" r="0.8"/>
<circle class="st0" cx="27.4" cy="21.8" r="0.8"/>
<circle class="st0" cx="20.1" cy="28.1" r="0.8"/>
<circle class="st0" cx="31.8" cy="18.7" r="0.8"/>
<circle class="st0" cx="17.7" cy="41.7" r="0.8"/>
<circle class="st0" cx="45" cy="38.5" r="0.8"/>
<circle class="st0" cx="42.9" cy="32.6" r="0.8"/>
<circle class="st0" cx="36.7" cy="42.2" r="0.8"/>
<circle class="st0" cx="22.9" cy="42.2" r="0.8"/>
<circle class="st0" cx="21.2" cy="24.8" r="1.1"/>
<circle class="st0" cx="22.3" cy="20.6" r="1.1"/>
<circle class="st0" cx="47.2" cy="33.9" r="1.1"/>
<circle class="st0" cx="31.8" cy="30.1" r="1.1"/>
<circle class="st0" cx="35.3" cy="37.7" r="1.1"/>
<circle class="st0" cx="24" cy="37.4" r="1.1"/>
<circle class="st0" cx="27.2" cy="44.4" r="1.1"/>
<circle class="st0" cx="66.4" cy="38.8" r="1.1"/>
<circle class="st0" cx="70.3" cy="44.7" r="1.1"/>
<circle class="st0" cx="66.6" cy="33.5" r="0.8"/>
<circle class="st0" cx="73" cy="32.6" r="0.8"/>
<circle class="st0" cx="63.8" cy="30.1" r="0.8"/>
<circle class="st0" cx="64.6" cy="21.8" r="0.8"/>
<circle class="st0" cx="57.3" cy="28.1" r="0.8"/>
<circle class="st0" cx="69" cy="18.7" r="0.8"/>
<circle class="st0" cx="54.9" cy="41.7" r="0.8"/>
<circle class="st0" cx="82.2" cy="38.5" r="0.8"/>
<circle class="st0" cx="80.1" cy="32.6" r="0.8"/>
<circle class="st0" cx="73.9" cy="42.2" r="0.8"/>
<circle class="st0" cx="60.1" cy="42.2" r="0.8"/>
<circle class="st0" cx="58.4" cy="24.8" r="1.1"/>
<circle class="st0" cx="59.5" cy="20.6" r="1.1"/>
<circle class="st0" cx="84.4" cy="33.9" r="1.1"/>
<circle class="st0" cx="69" cy="30.1" r="1.1"/>
<circle class="st0" cx="72.5" cy="37.7" r="1.1"/>
<circle class="st0" cx="61.2" cy="37.4" r="1.1"/>
<circle class="st0" cx="64.4" cy="44.4" r="1.1"/>
</svg>
