<?xml version="1.0" encoding="utf-8"?>
<!-- Generator: Adobe Illustrator 21.1.0, SVG Export Plug-In . SVG Version: 6.00 Build 0)  -->
<svg version="1.1" id="Calque_1" xmlns="http://www.w3.org/2000/svg" xmlns:xlink="http://www.w3.org/1999/xlink" x="0px" y="0px"
	 viewBox="0 0 100 125" style="enable-background:new 0 0 100 125;" xml:space="preserve">
<style type="text/css">
	.st0{fill:#FFBBEF;}
</style>
<path class="st0" d="M74.9,16.6c-0.4-0.3-1.3-0.6-2.7,0.1c-0.6,0.4-1.2,0.9-1.8,1.6c-0.6-1.8-1.8-2.8-3.1-2.6
	c-1.2,0.2-2,1.7-1.9,3.6c-2-1.1-3.9-1.1-4.7,0.1c-0.3,0.4-0.6,1.3,0.1,2.7c0.3,0.6,0.9,1.2,1.5,1.7c-0.6,0.2-1.1,0.5-1.5,0.8
	s-0.7,0.7-0.9,1.1c-0.2-0.3-0.5-0.5-0.8-0.6c-1.4-0.6-3.2,0.7-4.3,2.9c-0.2-0.4-0.5-0.7-0.7-1c0.4-0.4,0.6-1,0.6-1.7
	c0-0.6-0.1-1.2-0.2-1.8c0.7,0.2,1.4,0.3,2,0.3c1.4,0,2.4-0.5,2.8-1.5c0.3-0.8,0.1-1.8-0.7-2.7c-0.5-0.6-1.2-1.1-2-1.5
	c1.7-1,2.5-2.5,2-3.7c-0.3-0.8-1.1-1.2-2.2-1.3c-0.5,0-1.1,0.1-1.8,0.2c0.7-2.3,0.2-4.3-1.1-4.8c-0.8-0.3-1.8-0.1-2.7,0.7
	c-0.6,0.5-1.1,1.2-1.5,2c-0.3-0.6-0.7-1.1-1.2-1.4c-0.8-0.7-1.8-0.9-2.5-0.6c-0.8,0.3-1.2,1.1-1.3,2.2c0,0.6,0.1,1.2,0.2,1.8
	c-2.3-0.7-4.2-0.3-4.8,1.1s0.6,3,2.7,4.1c-1.2,0.7-2,1.7-2.1,2.6h-0.1c-0.5-0.2-1.4-0.3-2.6,0.7c-0.5,0.5-1,1.1-1.4,1.9
	c-1-1.6-2.4-2.4-3.6-1.9c-1.2,0.5-1.5,2-1.1,3.8c-2.2-0.6-4-0.2-4.6,1.1c-0.5,1.3,0.5,2.9,2.5,3.9c-1.6,1-2.3,2.4-1.8,3.5
	c0.4,0.8,1.3,1.3,2.4,1.3c0.4,0,0.9-0.1,1.4-0.2c-0.3,1-0.4,1.9-0.2,2.7L30,37.7c-0.4-0.1-0.7,0.1-1,0.3c-0.2,0.3-0.3,0.7-0.2,1
	l16.3,42.6l-2.8,6.2c-0.1,0.3-0.1,0.7,0.1,1c0.2,0.3,0.5,0.5,0.8,0.5h14.4c0.3,0,0.6-0.2,0.8-0.4c0.2-0.3,0.2-0.6,0.1-0.9L56,81.7
	l12-34.9l0,0l4.2-12.5c0.1-0.2,0.1-0.4,0-0.6c0.5-0.7,0.7-1.6,0.6-2.7c0.7,0.4,1.5,0.7,2.2,0.8c0.2,0,0.4,0,0.5,0
	c1.2,0,1.8-0.6,2-0.9c0.8-1.2,0.1-3-1.7-4.5c1.8-0.6,2.8-1.8,2.6-3.1c-0.2-1.2-1.7-1.9-3.5-1.8C76.1,19.4,76.1,17.4,74.9,16.6z
	 M69.2,23.9c0.2,0,0.5,0.1,0.7,0.2l0,0c0.3,0.2,0.5,0.5,0.5,0.8c0.1,0.3,0,0.6-0.2,0.9s-0.5,0.5-0.8,0.5c-0.3,0.1-0.6,0-0.9-0.2
	c-0.6-0.4-0.7-1.1-0.3-1.7c0.2-0.3,0.5-0.5,0.8-0.5C69,23.9,69.1,23.9,69.2,23.9z M67.7,17.7c0.2,0.1,0.8,0.8,1,2.1
	c0.2,0.9,0.1,1.6,0,2c-0.1,0-0.1,0-0.2,0s-0.1,0-0.2,0.1c-0.3-0.3-0.6-0.9-0.8-1.8C67.3,18.8,67.5,17.9,67.7,17.7z M67.3,27.9
	c0.1,0.1,0.2,0.1,0.3,0.2c-0.1,0.5-0.3,1.3-0.8,2c-0.9,1.3-1.8,1.8-2.1,1.8c0-0.2-0.1-0.4-0.1-0.6c0-0.5,0.3-1.2,0.8-2.1
	c0.5-0.8,1.1-1.3,1.6-1.6C67.1,27.7,67.2,27.8,67.3,27.9z M62.4,20.5c0.1,0,0.2-0.1,0.3-0.1c0.5,0,1.3,0.2,2.3,0.9
	c0.8,0.5,1.3,1.1,1.6,1.6c-0.1,0.1-0.2,0.2-0.2,0.3c-0.1,0.1-0.1,0.2-0.2,0.3c-0.5-0.1-1.3-0.3-2.1-0.8
	C62.8,21.7,62.3,20.7,62.4,20.5z M63.9,25.5c0.9-0.2,1.5-0.1,2,0c0,0.1,0,0.3,0.1,0.4c-0.3,0.3-0.9,0.6-1.8,0.8
	c-1.2,0.2-2.1,0-2.3-0.2C61.9,26.3,62.6,25.7,63.9,25.5z M60.6,28.1c0.6,0.4,1.4,0.7,2.4,0.7c0.1,0,0.2,0,0.2,0
	c-0.2,0.4-0.4,0.8-0.5,1.2c-0.7-0.2-1.6-0.1-2.5,0.2C60.5,29.4,60.6,28.7,60.6,28.1z M60.1,32.3c1.3-0.5,2.2-0.5,2.5-0.4
	c0,0.1,0,0.1,0,0.2c-0.2,0.3-0.8,1-2,1.5C59.7,34,59,34.1,58.4,34c0-0.1,0-0.2-0.1-0.3c0-0.1-0.1-0.2-0.1-0.2
	C58.6,33.2,59.2,32.7,60.1,32.3z M60.2,40.5c0.8,0.2,1.5,0.4,2.2,0.4h0.1l-2,1.9C60.5,42.1,60.4,41.3,60.2,40.5z M60.3,38.4
	c-1-0.4-1.7-0.9-2.1-1.4c0.1-0.1,0.2-0.3,0.2-0.4c0.1-0.1,0.1-0.3,0.1-0.4c0.6-0.1,1.5,0,2.5,0.4c1.9,0.7,2.5,1.8,2.4,2
	S62.1,39.1,60.3,38.4z M58.3,42.9c-0.2,0-1.1-0.6-1.7-2c-0.4-0.9-0.5-1.7-0.4-2.2c0.2-0.1,0.3-0.1,0.5-0.2c0.4,0.3,0.9,0.9,1.3,1.8
	C58.6,41.7,58.4,42.8,58.3,42.9z M56.4,29.3c0.7-1.7,1.7-2.4,2-2.4l0,0c0.2,0.1,0.6,1.2-0.2,3.1c-0.4,1-0.9,1.7-1.4,2.1
	c-0.1-0.1-0.3-0.2-0.4-0.2c-0.1-0.1-0.3-0.1-0.4-0.1C55.9,31.2,56,30.3,56.4,29.3z M54.5,34c0.2-0.1,0.4-0.1,0.6-0.1
	c0.2,0,0.4,0,0.5,0.1l0,0c0.3,0.1,0.6,0.4,0.8,0.7c0.1,0.3,0.2,0.7,0,1.1c-0.3,0.7-1.1,1.1-1.8,0.8s-1.1-1.1-0.8-1.8
	C53.9,34.4,54.2,34.1,54.5,34z M55.4,42.9l-0.3-0.1c0-0.1,0.1-0.1,0.1-0.2C55.3,42.7,55.4,42.8,55.4,42.9z M46.4,28.2
	c0.6,0,1.3-0.3,1.9-0.9c0.5-0.5,1-1.1,1.4-1.9c0.2,0.3,0.4,0.6,0.6,0.8c-0.7,0.8-0.9,2.2-0.4,3.7c-0.9-0.3-1.8-0.4-2.6-0.3
	c-1.7,0.1-2.2,1-2.4,1.5v0.1c-0.4-0.4-0.9-0.7-1.5-1c0.5-0.3,0.9-0.7,1.3-1.1c0.4-0.4,0.6-0.9,0.7-1.3c0.1,0.1,0.2,0.1,0.3,0.2
	C45.9,28.2,46.1,28.2,46.4,28.2z M46.6,23.3c0.4-0.9,0.9-1.6,1.3-1.9c0.1,0.1,0.3,0.2,0.4,0.2c0.1,0,0.2,0.1,0.3,0.1
	c0.1,0.6,0,1.4-0.4,2.3c-0.7,1.7-1.6,2.3-1.8,2.3C46.2,26.1,45.9,25,46.6,23.3z M52.7,25.6L52.7,25.6c-0.2,0-1-0.6-1.6-1.9
	c-0.4-0.9-0.5-1.6-0.4-2.1c0.1,0,0.2,0,0.3-0.1l0.1-0.1c0.4,0.3,0.8,0.8,1.2,1.7C52.9,24.5,52.7,25.5,52.7,25.6z M53.5,29.7
	c0.4,0.9,0.5,1.7,0.4,2.2c-0.2,0.1-0.3,0.1-0.5,0.2c-0.4-0.3-1-0.9-1.3-1.8c-0.6-1.4-0.5-2.5-0.3-2.6l0,0
	C52,27.7,52.9,28.3,53.5,29.7z M51.9,33.5c-0.1,0.1-0.1,0.2-0.2,0.4c0,0.1-0.1,0.3-0.1,0.4c-0.6,0.1-1.5,0-2.5-0.4
	c-1.8-0.7-2.4-1.7-2.4-2c0.1-0.1,0.4-0.2,1-0.2c0.5,0,1.2,0.1,2.1,0.4C50.8,32.5,51.6,33.1,51.9,33.5z M44.1,33.5
	c-0.2,0.2-1.2,0.4-2.7-0.2c-0.8-0.3-1.5-0.8-1.8-1.2c0.1-0.1,0.1-0.2,0.2-0.4c0-0.1,0.1-0.2,0.1-0.3c0.5-0.1,1.3,0,2.1,0.4
	C43.4,32.4,44.1,33.3,44.1,33.5z M39.4,37.4c-0.3-0.1-0.9-0.6-1.4-1.8c-0.4-0.8-0.4-1.5-0.4-1.9c0.1,0,0.3-0.1,0.4-0.1
	c0.3,0.3,0.8,0.8,1.1,1.6C39.6,36.3,39.5,37.2,39.4,37.4z M37.8,38.7c0.6,0.5,1.2,0.7,1.7,0.7c0.3,0,0.5,0,0.7-0.1
	c0.8-0.3,1.2-1.1,1.3-2.2c0-0.5,0-1.1-0.2-1.7c0.7,0.2,1.3,0.3,1.9,0.3c1.3,0,2.3-0.5,2.7-1.4c0,0,0,0,0-0.1
	c0.5,0.5,1.1,0.9,1.8,1.2c-0.6,0.4-1.1,0.8-1.5,1.2c-0.7,0.9-0.9,1.8-0.6,2.6c0.3,0.8,1.2,1.3,2.3,1.3c0.1,0,0.2,0,0.3,0
	c0.5,0,1.1-0.1,1.6-0.2c-0.1,0.4-0.2,0.9-0.3,1.3l-13.9-2.8c0.4-0.4,0.7-0.9,1-1.4C37,38,37.4,38.4,37.8,38.7z M47.5,38.5
	c0-0.2,0.6-1.1,2-1.7c0.7-0.3,1.4-0.4,1.9-0.4c0.1,0,0.2,0,0.3,0c0.1,0.2,0.1,0.3,0.2,0.5c-0.3,0.4-0.9,0.9-1.8,1.3
	C48.7,38.8,47.6,38.6,47.5,38.5z M51.9,40.5c0.4-1,0.9-1.7,1.4-2.1c0.1,0.1,0.3,0.2,0.4,0.2c0.1,0.1,0.3,0.1,0.4,0.1
	c0.1,0.6,0,1.5-0.4,2.5c-0.7,1.9-1.8,2.5-2,2.4C51.5,43.5,51.2,42.3,51.9,40.5z M57.5,21.5c-0.1,0.2-1.2,0.5-2.9-0.2
	c-0.9-0.4-1.6-0.9-1.9-1.3c0.1-0.1,0.1-0.2,0.2-0.4c0-0.1,0.1-0.2,0.1-0.4c0.6-0.1,1.4,0,2.3,0.4C56.9,20.3,57.5,21.3,57.5,21.5z
	 M54.3,15.6c1.2-0.5,2.1-0.5,2.4-0.3c-0.1,0.3-0.7,1-1.9,1.5c-0.9,0.4-1.6,0.4-2,0.4c-0.1-0.1-0.1-0.3-0.2-0.4
	C52.9,16.4,53.5,15.9,54.3,15.6z M50.9,12.7c0.6-1.6,1.6-2.3,1.8-2.3l0,0c0.2,0.1,0.5,1.2-0.2,2.9c-0.4,0.9-0.9,1.6-1.3,2
	c-0.1-0.1-0.2-0.1-0.4-0.2c-0.1,0-0.2-0.1-0.4-0.1C50.4,14.4,50.5,13.6,50.9,12.7z M49,17.2c0.2-0.1,0.3-0.1,0.5-0.1s0.3,0,0.5,0.1
	c0.3,0.1,0.6,0.4,0.7,0.7s0.1,0.7,0,1s-0.4,0.6-0.7,0.7s-0.7,0.1-1,0s-0.6-0.4-0.7-0.7c-0.1-0.3-0.1-0.7,0-1
	C48.5,17.5,48.7,17.3,49,17.2z M46.4,11.1L46.4,11.1c0.2,0,1,0.6,1.6,1.9c0.4,0.9,0.5,1.6,0.4,2.1c-0.1,0-0.1,0-0.2,0.1
	c-0.1,0-0.1,0.1-0.2,0.1c-0.4-0.3-0.8-0.8-1.2-1.7C46.1,12.2,46.3,11.2,46.4,11.1z M41.6,15.2c0.1-0.1,0.4-0.2,0.9-0.2
	s1.2,0.1,2,0.4c0.9,0.4,1.6,0.9,2,1.3c-0.1,0.1-0.1,0.2-0.2,0.4c0,0.1-0.1,0.2-0.1,0.3c-0.6,0.1-1.4,0-2.3-0.4
	C42.3,16.3,41.6,15.4,41.6,15.2z M44.2,19.8c0.7-0.3,1.3-0.4,1.8-0.4c0.1,0,0.2,0,0.2,0c0,0.1,0,0.2,0.1,0.3c0,0.1,0.1,0.1,0.1,0.2
	c-0.3,0.4-0.8,0.8-1.7,1.2c-1.3,0.6-2.3,0.4-2.4,0.4C42.3,21.2,42.9,20.4,44.2,19.8z M41.7,23.4c0-0.1,0-0.1,0-0.2
	c0.3,0.1,0.7,0.2,1,0.2c0.1,0,0.2,0,0.2,0c0.5,0,1-0.1,1.5-0.2c-0.3,0.8-0.4,1.7-0.3,2.4c0,0,0,0,0,0.1c-0.7-0.3-1.7-0.3-2.8-0.1
	C41.7,24.9,41.8,24.1,41.7,23.4z M41.1,27.9c1.1-0.5,2-0.4,2.2-0.3c-0.1,0.3-0.7,0.9-1.8,1.4c-0.8,0.3-1.5,0.4-1.9,0.4
	c0-0.1-0.1-0.2-0.2-0.4C39.8,28.7,40.3,28.3,41.1,27.9z M37.8,25.1c0.6-1.5,1.5-2.2,1.7-2.2l0,0c0.2,0.2,0.4,1.2-0.2,2.7
	c-0.3,0.9-0.8,1.5-1.2,1.9c-0.1-0.1-0.2-0.1-0.3-0.2c-0.1,0-0.2-0.1-0.3-0.1C37.4,26.8,37.5,26,37.8,25.1z M36.5,29.4
	c0.1,0,0.3,0,0.4,0.1c0.6,0.2,0.9,0.9,0.7,1.5s-0.9,0.9-1.5,0.7c-0.6-0.2-0.9-0.9-0.7-1.5C35.6,29.6,36,29.4,36.5,29.4z M35.2,35.9
	c-0.6,1.5-1.5,2.2-1.7,2.2l0,0c-0.2-0.2-0.4-1.2,0.2-2.7c0.3-0.8,0.8-1.5,1.2-1.8c0.1,0.1,0.2,0.1,0.4,0.2c0.1,0,0.2,0.1,0.3,0.1
	C35.6,34.3,35.5,35.1,35.2,35.9z M33.5,23.7c0.3,0.1,0.9,0.7,1.4,1.8c0.4,0.8,0.4,1.5,0.4,1.9c-0.1,0-0.2,0.1-0.4,0.2
	c-0.3-0.3-0.8-0.8-1.1-1.6C33.4,24.8,33.4,23.9,33.5,23.7z M28.9,27.5c0.1-0.1,0.4-0.2,0.8-0.2c0.5,0,1.1,0.1,1.9,0.4
	c0.9,0.3,1.5,0.8,1.9,1.2c-0.1,0.1-0.1,0.2-0.2,0.3c0,0.1-0.1,0.2-0.1,0.3c-0.5,0.1-1.3,0-2.2-0.4C29.6,28.6,28.9,27.7,28.9,27.5z
	 M29.7,33.5c0.1-0.3,0.6-0.9,1.8-1.4c0.8-0.3,1.5-0.4,1.9-0.4c0,0.1,0.1,0.3,0.2,0.4c-0.3,0.3-0.8,0.8-1.6,1.1
	C30.8,33.6,29.9,33.6,29.7,33.5z M56.3,87.3H44.9l2-4.6h7.5L56.3,87.3z M54.4,80.7H47L31.4,40.1l18.2,3.7c0.2,0.8,0.7,1.4,1.3,1.7
	c0.2,0.1,0.5,0.1,0.7,0.1c0.7,0,1.4-0.4,2.1-1l5.7,1.1l6.2,1.4L54.4,80.7z M66.4,45.3l-4.6-1.1l7.3-6.8L66.4,45.3z M65.3,38.1
	c-0.2-1.1-1.3-2.3-3-3.1c0.6-0.4,1.1-0.8,1.5-1.2l0,0c0.2,0.1,0.4,0.1,0.7,0.1c0.4,0,1-0.1,1.6-0.5c0.6-0.3,1.2-0.9,1.7-1.5
	c0.4,1,0.9,1.8,1.6,2.3L65.3,38.1z M70.6,32.5c-0.2-0.1-0.8-0.8-1-2.1c-0.2-0.9-0.1-1.6,0-2c0.1,0,0.2,0,0.3,0H70
	c0.3,0.3,0.6,0.9,0.8,1.8C71,31.4,70.8,32.3,70.6,32.5z M71.1,22.3c-0.1-0.1-0.2-0.1-0.3-0.2c0.1-0.5,0.3-1.3,0.8-2.1
	c0.9-1.3,1.8-1.8,2.1-1.8l0,0c0.2,0.2,0.1,1.3-0.8,2.7c-0.5,0.8-1.1,1.3-1.6,1.6C71.3,22.4,71.2,22.3,71.1,22.3z M76,29.6
	c-0.2,0.2-1.3,0.1-2.7-0.8c-0.8-0.5-1.3-1.1-1.5-1.6c0.1-0.1,0.2-0.2,0.2-0.3c0.1-0.1,0.1-0.2,0.2-0.3c0.5,0.1,1.3,0.3,2,0.8
	C75.6,28.4,76,29.4,76,29.6z M76.6,23.6c-0.2,0.3-0.8,0.8-2.1,1c-0.9,0.2-1.5,0.1-1.9,0c0-0.1,0-0.1,0-0.2s0-0.1-0.1-0.2
	c0.3-0.3,0.9-0.6,1.8-0.8C75.5,23.2,76.3,23.5,76.6,23.6z"/>
</svg>
