<?xml version="1.0" encoding="utf-8"?>
<!-- Generator: Adobe Illustrator 21.1.0, SVG Export Plug-In . SVG Version: 6.00 Build 0)  -->
<svg version="1.1" id="Calque_1" xmlns="http://www.w3.org/2000/svg" xmlns:xlink="http://www.w3.org/1999/xlink" x="0px" y="0px"
	 viewBox="0 0 100 125" style="enable-background:new 0 0 100 125;" xml:space="preserve">
<style type="text/css">
	.st0{fill:#FFBBEF;}
</style>
<path class="st0" d="M25.5,30.8c-0.5,1.3,0.5,2.9,2.5,4c-1.6,1-2.3,2.4-1.8,3.5c0.4,0.8,1.3,1.3,2.4,1.3c0.4,0,0.9-0.1,1.4-0.2
	c-0.6,2.2-0.2,4,1.2,4.6c0.2,0.1,0.5,0.1,0.7,0.1c1.2,0,2.4-1,3.2-2.6c0.3,0.5,0.7,1,1.1,1.3c0.6,0.5,1.2,0.7,1.7,0.7
	c0.3,0,0.5,0,0.7-0.1c0.6-0.3,1-0.9,1.2-1.7c1,2,2.6,5.6,4.2,10.7h-4c-0.6,0-1,0.4-1,1v35c0,0.6,0.4,1,1,1h20.8c0.6,0,1-0.4,1-1v-35
	c0-0.6-0.4-1-1-1h-6.7c0.1-2,0.3-3.6,0.3-4.6c0.1,0.2,0.3,0.3,0.5,0.4c0.6,0.5,1.2,0.8,1.8,0.8c0.3,0,0.5-0.1,0.8-0.2
	c1.3-0.5,1.7-2.3,1.1-4.3c0.8,0.2,1.5,0.4,2.2,0.4c0.2,0,0.3,0,0.4,0c1.2-0.1,2.1-0.6,2.4-1.5c0.3-0.9,0.1-1.8-0.7-2.8
	c-0.5-0.6-1.3-1.1-2.1-1.6c0.6-0.4,1.1-0.8,1.5-1.2l0,0c0.2,0.1,0.4,0.1,0.7,0.1c0.4,0,1-0.1,1.6-0.5c0.6-0.3,1.2-0.9,1.7-1.5
	c0.6,1.6,1.6,2.6,2.7,2.6c0.1,0,0.2,0,0.4,0c0.8-0.2,1.4-0.8,1.7-1.9c0.1-0.5,0.2-1.1,0.2-1.7c0.7,0.4,1.5,0.7,2.2,0.8
	c0.2,0,0.4,0,0.5,0c1.2,0,1.8-0.6,2-0.9c0.8-1.2,0.1-3-1.7-4.5c1.8-0.6,2.8-1.8,2.6-3.1c-0.2-1.2-1.7-1.9-3.5-1.8
	c1.1-2,1.1-4-0.1-4.8c-0.4-0.3-1.3-0.6-2.7,0.1c-0.6,0.4-1.2,0.9-1.8,1.6c-0.6-1.8-1.8-2.8-3.1-2.6c-0.8,0.2-1.4,0.8-1.7,1.9
	c-0.1,0.5-0.2,1.1-0.2,1.7c-2-1.1-3.9-1.1-4.7,0.1c-0.3,0.4-0.6,1.3,0.1,2.7c0.3,0.6,0.9,1.2,1.5,1.7c-0.6,0.2-1.1,0.5-1.5,0.8
	s-0.7,0.7-0.9,1.1c-0.2-0.3-0.5-0.5-0.8-0.6c-1.4-0.6-3.2,0.7-4.3,2.9c-0.2-0.4-0.5-0.7-0.7-1c0.4-0.4,0.6-1,0.6-1.7
	c0-0.6-0.1-1.2-0.2-1.8c0.7,0.2,1.4,0.3,2,0.3c1.4,0,2.4-0.5,2.8-1.5c0.6-1.4-0.6-3.1-2.7-4.1c0.6-0.3,1-0.7,1.4-1.2
	c0.7-0.8,0.9-1.7,0.6-2.5s-1.1-1.2-2.2-1.3c-0.5,0-1.1,0.1-1.8,0.2c0.3-0.9,0.4-1.7,0.3-2.5c-0.1-1.2-0.6-2-1.5-2.4
	c-1.4-0.6-3.1,0.6-4.1,2.7c-0.3-0.6-0.7-1.1-1.2-1.4c-0.8-0.7-1.8-0.9-2.5-0.6c-0.8,0.3-1.2,1.1-1.3,2.2c0,0.6,0.1,1.2,0.2,1.8
	c-2.3-0.7-4.2-0.3-4.8,1.1s0.6,3,2.7,4.1c-1.2,0.7-2,1.7-2.1,2.6h-0.1c-0.5-0.2-1.4-0.3-2.6,0.7c-0.5,0.5-1,1.1-1.4,1.9
	c-1-1.6-2.4-2.4-3.6-1.9c-1.2,0.5-1.5,2-1.1,3.8C27.9,29,26,29.4,25.5,30.8z M30.3,37.1c-1.1,0.5-2,0.4-2.3,0.3
	c0.1-0.3,0.6-0.9,1.8-1.4c0.8-0.3,1.5-0.4,1.9-0.4c0,0.1,0.1,0.3,0.2,0.4C31.6,36.4,31.1,36.8,30.3,37.1z M33.6,39.9
	c-0.6,1.5-1.5,2.2-1.7,2.2l0,0c-0.2-0.2-0.4-1.2,0.2-2.7c0.3-0.8,0.8-1.5,1.2-1.8c0.1,0.1,0.2,0.1,0.4,0.2c0.1,0,0.2,0.1,0.3,0.1
	C34,38.3,33.9,39.1,33.6,39.9z M37.8,41.4c-0.3-0.1-0.9-0.7-1.4-1.8C36,38.8,36,38.2,36,37.7c0.1,0,0.2-0.1,0.4-0.1
	c0.3,0.3,0.8,0.8,1.1,1.6C38,40.3,38,41.2,37.8,41.4z M39.7,37.3c-0.8-0.3-1.5-0.8-1.8-1.2c0.1-0.1,0.1-0.2,0.2-0.4
	c0-0.1,0.1-0.2,0.1-0.3c0.5,0,1.3,0.1,2.1,0.4c1.5,0.6,2.2,1.5,2.2,1.7C42.3,37.7,41.2,37.9,39.7,37.3z M44.8,32.2
	c0.6,0,1.3-0.3,1.9-0.9c0.5-0.5,1-1.1,1.4-1.9c0.2,0.3,0.4,0.6,0.6,0.8C48,31,47.8,32.4,48.3,34c-2.4-0.7-4.4-0.3-5,1.1v0.1
	c-0.4-0.4-0.9-0.7-1.5-1c1.1-0.7,1.8-1.5,2-2.4c0.1,0.1,0.2,0.1,0.3,0.2C44.3,32.2,44.5,32.2,44.8,32.2z M45,27.3
	c0.4-0.9,0.9-1.6,1.3-1.9c0.1,0.1,0.3,0.2,0.4,0.2c0.1,0,0.2,0.1,0.3,0.1c0.1,0.6,0,1.4-0.4,2.3c-0.7,1.7-1.6,2.3-1.8,2.3
	C44.6,30.1,44.3,29,45,27.3z M50.3,44.5c0.4-1,0.9-1.7,1.4-2.1c0.1,0.1,0.3,0.2,0.5,0.2c0.1,0,0.3,0.1,0.4,0.1
	c0.1,0.6,0,1.5-0.4,2.5c-0.7,1.7-1.8,2.5-2,2.4C49.9,47.5,49.6,46.3,50.3,44.5z M48.5,42.2c-1.4,0.6-2.5,0.5-2.6,0.3
	c0-0.2,0.6-1.1,2-1.7c0.7-0.3,1.4-0.4,1.9-0.4c0.1,0,0.2,0,0.3,0c0,0.1,0.1,0.2,0.1,0.3s0.1,0.1,0.1,0.2
	C50,41.3,49.4,41.8,48.5,42.2z M51.8,36.1c-0.4-0.3-1-0.9-1.3-1.8c-0.6-1.4-0.5-2.5-0.3-2.6l0,0c0.2,0,1.1,0.6,1.7,2
	c0.4,0.9,0.5,1.7,0.4,2.2c-0.1,0-0.2,0-0.2,0.1C52,36,51.9,36,51.8,36.1z M51.1,29.6L51.1,29.6c-0.2,0-1-0.6-1.6-1.9
	c-0.4-0.9-0.5-1.6-0.4-2.1c0.1,0,0.2,0,0.3-0.1l0.1-0.1c0.4,0.3,0.8,0.8,1.2,1.7C51.3,28.5,51.1,29.5,51.1,29.6z M50.3,37.5
	c-0.1,0.1-0.1,0.3-0.2,0.4c0,0.1-0.1,0.3-0.1,0.4c-0.6,0.1-1.5,0-2.5-0.4c-1.8-0.7-2.4-1.7-2.4-2c0.1-0.1,0.4-0.2,1-0.2
	c0.5,0,1.2,0.1,2.1,0.4C49.2,36.5,50,37.1,50.3,37.5z M41.1,39.7c0.2,0,0.3,0,0.5,0c0.1,0,0.3,0,0.4,0c1.6-0.1,2.1-0.9,2.3-1.4
	c0,0,0,0,0-0.1c0.5,0.4,1.1,0.9,1.8,1.2c-1.8,1.1-2.7,2.6-2.1,3.8c0.4,0.9,1.3,1.3,2.6,1.3c0.5,0,1.1-0.1,1.6-0.2
	c-0.7,2.4-0.3,4.5,1.2,5c0.2,0.1,0.5,0.1,0.7,0.1c0.8,0,1.6-0.4,2.3-1.1c-0.1,1-0.2,2.3-0.3,3.9h-6C44.2,45.8,42.1,41.5,41.1,39.7z
	 M59.8,54.3v33H41v-33h3.6c1.9,6.8,3.7,15.8,3.8,26.5c0,0.5,0.5,1,1,1l0,0c0.6,0,1-0.5,1-1c-0.1-10.7-1.8-19.6-3.7-26.5H52
	c-0.3,6.8-0.5,16.9,0.6,26.6c0.1,0.5,0.5,0.9,1,0.9h0.1c0.5-0.1,0.9-0.6,0.9-1.1C53.5,71.1,53.7,61,54,54.3H59.8z M56.7,46.9
	L56.7,46.9c-0.2,0-1.1-0.6-1.7-2c-0.4-0.9-0.5-1.7-0.4-2.2c0.1,0,0.2-0.1,0.3-0.1s0.1-0.1,0.2-0.1c0.4,0.3,1,0.9,1.3,1.8
	C57,45.7,56.9,46.8,56.7,46.9z M61.4,41.9c0.3,0.4,0.4,0.6,0.4,0.7c0,0-0.2,0.2-0.7,0.2c-0.7,0.1-1.5-0.1-2.4-0.4
	c-1-0.4-1.7-0.9-2.1-1.4c0.1-0.1,0.2-0.3,0.2-0.4c0.1-0.1,0.1-0.3,0.1-0.4c0.6-0.1,1.5,0,2.5,0.4C60.2,40.9,61,41.4,61.4,41.9z
	 M74.4,33.6c-0.2,0.2-1.3,0.1-2.7-0.8c-0.8-0.5-1.3-1.1-1.5-1.6c0.1-0.1,0.2-0.2,0.2-0.3c0.1-0.1,0.1-0.2,0.2-0.3
	c0.5,0.1,1.3,0.3,2,0.8C74,32.4,74.5,33.4,74.4,33.6z M72.7,27.5c1.2-0.2,2,0,2.3,0.2c-0.2,0.3-0.8,0.8-2.1,1
	c-0.9,0.2-1.5,0.1-1.9,0c0-0.1,0-0.1,0-0.2s0-0.1-0.1-0.2C71.2,28,71.8,27.6,72.7,27.5z M70,24c0.9-1.3,1.8-1.8,2.1-1.8l0,0
	c0.2,0.2,0.1,1.3-0.8,2.7c-0.5,0.8-1.1,1.3-1.6,1.6c-0.1-0.1-0.2-0.2-0.3-0.2c-0.1-0.1-0.2-0.1-0.3-0.2C69.3,25.5,69.5,24.8,70,24z
	 M69.2,34.2c0.2,1.2,0,2.1-0.2,2.3c-0.2-0.1-0.8-0.8-1-2.1c-0.2-0.9-0.1-1.6,0-2c0.1,0,0.2,0,0.3,0h0.1C68.7,32.7,69,33.3,69.2,34.2
	z M67.6,27.9c0.2,0,0.5,0.1,0.7,0.2l0,0c0.3,0.2,0.5,0.5,0.5,0.8c0.1,0.3,0,0.6-0.2,0.9s-0.5,0.5-0.8,0.5c-0.3,0.1-0.6,0-0.9-0.2
	s-0.5-0.5-0.5-0.8c-0.1-0.3,0-0.6,0.2-0.9s0.5-0.5,0.8-0.5C67.4,27.9,67.5,27.9,67.6,27.9z M66.1,21.7c0.2,0.1,0.8,0.8,1,2.1
	c0.2,0.9,0.1,1.6,0,2c-0.1,0-0.1,0-0.2,0s-0.1,0-0.2,0.1c-0.3-0.3-0.6-0.9-0.8-1.8C65.7,22.8,65.9,21.9,66.1,21.7z M65.7,31.9
	c0.1,0.1,0.2,0.1,0.3,0.2c-0.1,0.5-0.3,1.3-0.8,2c-0.9,1.3-1.8,1.8-2.1,1.8c0-0.2-0.1-0.4-0.1-0.6c0-0.5,0.3-1.2,0.8-2.1
	c0.5-0.8,1.1-1.3,1.6-1.6C65.5,31.7,65.6,31.8,65.7,31.9z M60.8,24.5c0.1,0,0.2-0.1,0.3-0.1c0.5,0,1.3,0.2,2.3,0.9
	c0.8,0.5,1.3,1.1,1.6,1.6c-0.1,0.1-0.2,0.2-0.2,0.3c-0.1,0.1-0.1,0.2-0.2,0.3c-0.5-0.1-1.3-0.3-2.1-0.8
	C61.2,25.7,60.7,24.7,60.8,24.5z M62.3,29.5c0.9-0.2,1.5-0.1,2,0c0,0.1,0,0.2,0,0.3c0,0.1,0,0.1,0.1,0.2c-0.3,0.3-0.9,0.6-1.8,0.8
	c-1.2,0.2-2.1,0-2.3-0.2C60.4,30.3,61,29.7,62.3,29.5z M59.1,32.1c0.6,0.4,1.4,0.7,2.4,0.7c0.1,0,0.2,0,0.2,0
	c-0.2,0.4-0.4,0.8-0.5,1.2c-0.7-0.2-1.6-0.1-2.5,0.2C58.9,33.4,59,32.7,59.1,32.1z M58.5,36.3c1.3-0.5,2.2-0.5,2.5-0.4
	c0,0.1,0,0.1,0,0.2c-0.2,0.3-0.8,1-2,1.5c-0.9,0.4-1.6,0.5-2.2,0.4c0-0.1,0-0.2-0.1-0.3c0-0.1-0.1-0.2-0.1-0.2
	C57,37.2,57.6,36.7,58.5,36.3z M54.8,33.3c0.7-1.8,1.7-2.4,2-2.4l0,0c0.2,0.1,0.6,1.2-0.2,3.1c-0.4,1-1,1.7-1.4,2.1
	C55.1,36,55,36,54.8,35.9c-0.1-0.1-0.3-0.1-0.4-0.1C54.3,35.2,54.4,34.3,54.8,33.3z M52.9,38c0.2-0.1,0.4-0.1,0.6-0.1
	c0.2,0,0.4,0,0.5,0.1l0,0c0.3,0.1,0.6,0.4,0.8,0.7c0.1,0.3,0.2,0.7,0,1.1c-0.1,0.3-0.4,0.6-0.7,0.8c-0.3,0.1-0.7,0.2-1.1,0
	c-0.3-0.1-0.6-0.4-0.8-0.7c-0.1-0.3-0.2-0.7,0-1.1C52.3,38.4,52.6,38.1,52.9,38z M55.9,25.5c-0.1,0.2-1.2,0.5-2.9-0.2
	c-0.9-0.4-1.6-0.9-1.9-1.3c0.1-0.1,0.1-0.2,0.2-0.4c0-0.1,0.1-0.2,0.1-0.4c0.6-0.1,1.4,0,2.3,0.4C55.3,24.3,55.9,25.3,55.9,25.5z
	 M52.7,19.6c1.2-0.5,2.1-0.5,2.4-0.3c-0.1,0.3-0.7,1-1.9,1.5c-0.9,0.4-1.6,0.4-2,0.4c-0.1-0.1-0.1-0.3-0.2-0.4
	C51.3,20.4,51.9,19.9,52.7,19.6z M49.3,16.7c0.6-1.6,1.6-2.3,1.8-2.3l0,0c0.2,0.1,0.5,1.2-0.2,2.9c-0.4,0.9-0.9,1.6-1.3,2
	c-0.1-0.1-0.2-0.1-0.4-0.2C49.1,19,49,19,48.9,19C48.8,18.4,48.9,17.6,49.3,16.7z M47.4,21.2c0.2-0.1,0.3-0.1,0.5-0.1s0.3,0,0.5,0.1
	c0.7,0.3,1,1,0.7,1.7c-0.1,0.3-0.4,0.6-0.7,0.7s-0.7,0.1-1,0s-0.6-0.4-0.7-0.7c-0.1-0.3-0.1-0.7,0-1C46.9,21.5,47.1,21.3,47.4,21.2z
	 M44.8,15.1L44.8,15.1c0.2,0,1,0.6,1.6,1.9c0.4,0.9,0.5,1.6,0.4,2.1c-0.1,0-0.1,0-0.2,0.1c-0.1,0-0.1,0.1-0.2,0.1
	c-0.4-0.3-0.8-0.8-1.2-1.7C44.6,16.2,44.7,15.2,44.8,15.1z M40,19.2c0.1-0.1,0.4-0.2,0.9-0.2s1.2,0.1,2,0.4c0.9,0.4,1.6,0.9,2,1.3
	c-0.1,0.1-0.1,0.2-0.2,0.4c0,0.1-0.1,0.2-0.1,0.3c-0.6,0.1-1.4,0-2.3-0.4C40.7,20.3,40,19.4,40,19.2z M42.6,23.8
	c0.7-0.3,1.3-0.4,1.8-0.4c0.1,0,0.2,0,0.2,0c0,0.1,0,0.2,0.1,0.3c0,0.1,0.1,0.1,0.1,0.2c-0.3,0.4-0.8,0.8-1.7,1.2
	c-1.3,0.6-2.3,0.4-2.4,0.4C40.7,25.2,41.3,24.4,42.6,23.8z M40.1,27.4c0-0.1,0-0.1,0-0.2c0.3,0.1,0.7,0.2,1,0.2c0.1,0,0.2,0,0.2,0
	c0.5,0,1-0.1,1.5-0.2c-0.3,0.8-0.4,1.7-0.3,2.4c0,0,0,0,0,0.1c-0.7-0.3-1.7-0.3-2.8-0.1C40.1,28.9,40.2,28.1,40.1,27.4z M39.5,31.9
	c1.1-0.5,2-0.4,2.2-0.3c-0.1,0.3-0.7,0.9-1.8,1.4c-0.8,0.3-1.5,0.4-1.9,0.4c0-0.1,0-0.1-0.1-0.2c0-0.1-0.1-0.1-0.1-0.2
	C38.2,32.7,38.7,32.3,39.5,31.9z M36.2,29.1c0.6-1.5,1.5-2.2,1.7-2.2l0,0c0.2,0.2,0.4,1.2-0.2,2.7c-0.3,0.9-0.8,1.5-1.2,1.8
	c-0.1-0.1-0.2-0.1-0.3-0.2c-0.1,0-0.2-0.1-0.3-0.1C35.8,30.8,35.9,30,36.2,29.1z M34.5,33.4c0.2-0.1,0.3-0.1,0.5-0.1
	c0.1,0,0.3,0,0.4,0.1c0.3,0.1,0.5,0.3,0.7,0.6c0.1,0.3,0.1,0.6,0,0.9c-0.2,0.6-0.9,0.9-1.5,0.7s-0.9-0.9-0.7-1.5
	C33.9,33.8,34.2,33.6,34.5,33.4z M31.9,27.7c0.3,0.1,0.9,0.7,1.4,1.8c0.4,0.8,0.4,1.5,0.4,1.9c-0.1,0-0.1,0-0.2,0.1
	c-0.1,0-0.1,0.1-0.2,0.1c-0.3-0.3-0.8-0.8-1.1-1.6C31.8,28.8,31.8,27.9,31.9,27.7z M30.1,31.8c0.9,0.3,1.5,0.8,1.9,1.2
	c-0.1,0.1-0.1,0.2-0.2,0.3c0,0.1-0.1,0.2-0.1,0.3c-0.5,0.1-1.3,0-2.2-0.4c-1.5-0.6-2.2-1.5-2.2-1.7c0.1-0.1,0.4-0.2,0.8-0.2
	C28.7,31.4,29.3,31.5,30.1,31.8z"/>
</svg>
